<svg width="209" height="209" viewBox="0 0 209 209" fill="none" xmlns="http://www.w3.org/2000/svg">
<path opacity="0.8" d="M168.968 95.1442L178.137 30.7717L113.606 39.9176L104.438 104.29L168.968 95.1442Z" fill="#A295AE"/>
<path opacity="0.8" d="M39.8495 113.417L30.6812 177.79L95.2118 168.644L104.38 104.271L39.8495 113.417Z" fill="#5D6F6D"/>
<path opacity="0.8" d="M95.2118 40.0036L30.6812 30.8578L39.8495 95.2301L104.38 104.376L95.2118 40.0036Z" fill="#8CD592"/>
<path opacity="0.8" d="M113.53 168.651L178.061 177.797L168.893 113.424L104.362 104.278L113.53 168.651Z" fill="#665E74"/>
<path opacity="0.8" d="M65.2729 156.232L104.42 208.217L143.567 156.232L104.42 104.247L65.2729 156.232Z" fill="#3C3647"/>
<path opacity="0.8" d="M156.402 143.2L208.515 104.149L156.402 65.0978L104.288 104.149L156.402 143.2Z" fill="#837193"/>
<path opacity="0.8" d="M143.474 52.2849L104.327 0.299805L65.18 52.2849L104.327 104.27L143.474 52.2849Z" fill="#A2F4AC"/>
<path opacity="0.8" d="M52.2288 65.2719L0.115723 104.323L52.2288 143.374L104.342 104.323L52.2288 65.2719Z" fill="#7EA685"/>
<path d="M129.094 104.259L104.315 79.5404L79.5356 104.259L104.315 128.978L129.094 104.259Z" fill="#3C3647"/>
</svg>
