<svg id="alert" viewBox="0 0 16 16"
  xmlns="http://www.w3.org/2000/svg">
  <path fill-rule="evenodd" d="M7 1.8a2 2 0 0 1 2.7.7l5.5 9a2 2 0 0 1-.7 2.7 2 2 0 0 1-1 .3h-11a2 2 0 0 1-1.7-1 2 2 0 0 1 0-2l5.5-9c.1-.3.4-.6.7-.7Zm1 1.1a.6.6 0 0 0-.5.3l-5.5 9a.6.6 0 0 0 .2.8h11.3a.6.6 0 0 0 .5-.2.6.6 0 0 0 0-.6l-5.5-9a.6.6 0 0 0-.5-.3Zm0 2.5c.4 0 .7.3.7.7v2.6c0 .4-.3.7-.7.7a.7.7 0 0 1-.7-.7V6c0-.4.3-.7.7-.7Zm-.7 5.8c0-.4.3-.7.7-.7.4 0 .7.3.7.7 0 .4-.3.7-.7.7a.7.7 0 0 1-.7-.7Z" clip-rule="evenodd"></path>
</svg>
