<svg id="arrow-down-right" viewBox="0 0 16 16"
  xmlns="http://www.w3.org/2000/svg">
  <path fill-rule="evenodd" d="M3.75 2C4.16421 2 4.5 2.33579 4.5 2.75V7.70455C4.5 8.20856 4.67781 8.67611 4.97095 9.00774C5.26144 9.33637 5.63413 9.5 6 9.5H10.9393L9.21967 7.78033C8.92678 7.48744 8.92678 7.01256 9.21967 6.71967C9.51256 6.42678 9.98744 6.42678 10.2803 6.71967L13.2803 9.71967C13.5732 10.0126 13.5732 10.4874 13.2803 10.7803L10.2803 13.7803C9.98744 14.0732 9.51256 14.0732 9.21967 13.7803C8.92678 13.4874 8.92678 13.0126 9.21967 12.7197L10.9393 11H6C5.17239 11 4.4005 10.6273 3.84707 10.0012C3.29629 9.37806 3 8.55073 3 7.70455V2.75C3 2.33579 3.33579 2 3.75 2Z" clip-rule="evenodd"></path>
</svg>
