<svg id="bell" viewBox="0 0 16 16"
  xmlns="http://www.w3.org/2000/svg">
  <title>Bell</title>
  <path stroke="none" stroke-linecap="round" stroke-linejoin="round" d="M 4.2578125,9.5371094 A 0.48497349,0.48497349 0 0 0 3.8613281,10.271484 c 0.1278908,0.220498 0.3123509,0.404083 0.5332031,0.53125 0.2208364,0.127234 0.469746,0.19336 0.7246094,0.19336 0.2549075,0 0.5057942,-0.06622 0.7265625,-0.19336 0.2209261,-0.127195 0.4053584,-0.310832 0.5332031,-0.53125 A 0.48524534,0.48524534 0 1 0 5.5390625,9.7851562 c -0.042655,0.073542 -0.1042204,0.1334566 -0.1777344,0.1757813 -0.073772,0.042483 -0.1572549,0.064455 -0.2421875,0.064455 -0.084877,0 -0.1666307,-0.02205 -0.2402344,-0.064455 a 0.48497349,0.48497349 0 0 0 -0.00195,0 C 4.8033654,9.9185653 4.7437811,9.858619 4.7011719,9.7851562 A 0.48497349,0.48497349 0 0 0 4.2578125,9.5371094 Z M 5.1191406,0.33007812 c -0.9000835,0 -1.7619418,0.35770326 -2.3984375,0.99414068 -0.6364437,0.6364553 -0.9960937,1.5002695 -0.9960937,2.4003906 0,1.6279743 -0.3456841,2.6318195 -0.6679688,3.2226562 C 0.73435599,7.5381023 0.48632813,7.6855469 0.48632812,7.6855469 A 0.48497349,0.48497349 0 0 0 0.75585938,8.5742188 H 9.484375 A 0.48497349,0.48497349 0 0 0 9.7539062,7.6855469 c 0,0 -0.2480263,-0.1474363 -0.5703124,-0.7382813 C 8.8613076,6.3564206 8.5136719,5.3525577 8.5136719,3.7246094 8.5136719,2.8245343 8.1559608,1.9607183 7.5195312,1.3242188 6.8830498,0.68778399 6.0192575,0.33007812 5.1191406,0.33007812 Z m 0,0.96874998 c 0.6432832,0 1.2599452,0.2560723 1.7148438,0.7109375 0.4548504,0.4549005 0.7109375,1.0715989 0.7109375,1.7148438 0,1.7665017 0.3819955,2.9448075 0.7871093,3.6875 0.071756,0.1315497 0.08293,0.084889 0.15625,0.1914062 H 1.7519531 c 0.073321,-0.1065164 0.084494,-0.059857 0.15625,-0.1914062 0.4051154,-0.7426883 0.7871094,-1.9209743 0.7871094,-3.6875 0,-0.643279 0.2561012,-1.2599992 0.7109375,-1.7148438 C 3.8611543,1.554903 4.4759041,1.2988281 5.1191406,1.2988281 Z" transform="translate(1 1) scale(1.3125)"></path>
</svg>
