
<svg id="change" xmlns="http://www.w3.org/2000/svg" viewBox="0 0 24 24">
<title>Change</title>
  <path d="M8.7071 4.2712c.3905.3749.3905.9827 0 1.3576L7.4142 6.87H19c.5523 0 1 .4298 1 .96s-.4477.96-1 .96H7.4142l1.293 1.2412c.3904.3749.3904.9827 0 1.3576-.3906.3749-1.0238.3749-1.4143 0l-3-2.88c-.3905-.3749-.3905-.9827 0-1.3576l3-2.88c.3905-.375 1.0237-.375 1.4142 0ZM15.2929 17.7111c-.3905.3749-.3905.9827 0 1.3576.3905.3749 1.0237.3749 1.4142 0l3-2.88c.3905-.3749.3905-.9827 0-1.3576l-3-2.88c-.3905-.3749-1.0237-.3749-1.4142 0-.3905.3749-.3905.9827 0 1.3576l1.2929 1.2412H5c-.5523 0-1 .4298-1 .96s.4477.96 1 .96h11.5858l-1.2929 1.2412Z"/>
</svg>
