<svg id="chevrons-left" viewBox="0 0 16 16"
  xmlns="http://www.w3.org/2000/svg">
  <path d="M13.7489 3.10823C13.4142 2.77349 12.8715 2.77349 12.5368 3.10823L8.25105 7.39394C7.91632 7.72868 7.91632 8.27139 8.25105 8.60613L12.5368 12.8918C12.8715 13.2266 13.4142 13.2266 13.7489 12.8918C14.0837 12.5571 14.0837 12.0144 13.7489 11.6797L10.0693 8.00003L13.7489 4.32041C14.0837 3.98568 14.0837 3.44296 13.7489 3.10823ZM7.74895 3.10823C7.41421 2.77349 6.8715 2.77349 6.53677 3.10823L2.25105 7.39394C1.91632 7.72868 1.91632 8.27139 2.25105 8.60613L6.53677 12.8918C6.8715 13.2266 7.41421 13.2266 7.74895 12.8918C8.08368 12.5571 8.08368 12.0144 7.74895 11.6797L4.06933 8.00003L7.74895 4.32041C8.08368 3.98568 8.08368 3.44296 7.74895 3.10823Z"></path>
</svg>
