<svg id="chevrons-right" viewBox="0 0 16 16"
  xmlns="http://www.w3.org/2000/svg">
  <path d="M2.57562 3.24408C2.90106 2.91864 3.4287 2.91864 3.75413 3.24408L7.9208 7.41074C8.24624 7.73618 8.24624 8.26382 7.9208 8.58926L3.75413 12.7559C3.4287 13.0814 2.90106 13.0814 2.57562 12.7559C2.25018 12.4305 2.25018 11.9028 2.57562 11.5774L6.15303 8L2.57562 4.42259C2.25018 4.09715 2.25018 3.56951 2.57562 3.24408ZM8.40896 3.24408C8.73439 2.91864 9.26203 2.91864 9.58747 3.24408L13.7541 7.41074C14.0796 7.73618 14.0796 8.26382 13.7541 8.58926L9.58747 12.7559C9.26203 13.0814 8.73439 13.0814 8.40896 12.7559C8.08352 12.4305 8.08352 11.9028 8.40896 11.5774L11.9864 8L8.40896 4.42259C8.08352 4.09715 8.08352 3.56951 8.40896 3.24408Z"></path>
</svg>
