<svg id="collapse-left" viewBox="0 0 16 16"
  xmlns="http://www.w3.org/2000/svg">
  <path d="M14.001 2.666c.368 0 .666.3.666.668v9.332a.667.667 0 11-1.332 0V3.334c0-.368.298-.668.666-.668zM5.335 4a.667.667 0 01.47 1.139L3.61 7.334h6.391a.666.666 0 110 1.332h-6.39l2.195 2.195a.667.667 0 01-.944.944L1.53 8.47a.691.691 0 01-.043-.047.638.638 0 01-.072-.105l-.004-.008a.682.682 0 01-.023-.051l-.004-.01-.002-.004a.657.657 0 01-.033-.111l-.002-.008a.666.666 0 01.015-.316l.002-.008a.694.694 0 01.02-.053l.004-.01a.666.666 0 01.023-.05l.002-.003.002-.005a.658.658 0 01.03-.05l.001-.001.002-.004a.673.673 0 01.035-.047l.004-.004a.666.666 0 01.043-.047l3.332-3.334A.667.667 0 015.335 4z"></path>
</svg>
