<svg id="collapse-right" viewBox="0 0 16 16"
  xmlns="http://www.w3.org/2000/svg">
  <path d="M2.5 2.666c-.368 0-.666.3-.666.668v9.332a.667.667 0 101.332 0V3.334a.667.667 0 00-.666-.668zM11.166 4a.667.667 0 00-.47 1.139l2.195 2.195H6.5a.666.666 0 100 1.332h6.39l-2.195 2.195a.667.667 0 00.944.944L14.97 8.47a.697.697 0 00.043-.047.643.643 0 00.039-.05l.004-.007a.632.632 0 00.029-.049l.004-.007a.663.663 0 00.023-.051l.004-.01.002-.004a.644.644 0 00.033-.111l.002-.008a.665.665 0 00-.015-.316l-.002-.008a.73.73 0 00-.02-.053l-.004-.01a.655.655 0 00-.023-.05l-.002-.003-.002-.005a.648.648 0 00-.03-.05l-.001-.001-.002-.004a.653.653 0 00-.035-.047l-.004-.004a.662.662 0 00-.043-.047l-3.332-3.334A.668.668 0 0011.166 4z"></path>
</svg>
