<svg id="download" viewBox="0 0 16 16"
  xmlns="http://www.w3.org/2000/svg">
  <path fill-rule="evenodd" clip-rule="evenodd" d="M13.9689 13.4388C13.9689 13.807 13.6704 14.1055 13.3022 14.1055H3.96891C3.60072 14.1055 3.30225 13.807 3.30225 13.4388C3.30225 13.0706 3.60072 12.7721 3.96891 12.7721H13.3022C13.6704 12.7721 13.9689 13.0706 13.9689 13.4388Z" />
  <path fill-rule="evenodd" clip-rule="evenodd" d="M12.4403 6.9674C12.7007 7.22775 12.7007 7.64986 12.4403 7.91021L9.10698 11.2435C8.84663 11.5039 8.42452 11.5039 8.16417 11.2435L4.83084 7.91021C4.57049 7.64986 4.57049 7.22775 4.83084 6.9674C5.09119 6.70705 5.5133 6.70705 5.77365 6.9674L8.63558 9.82933L11.4975 6.9674C11.7579 6.70705 12.18 6.70705 12.4403 6.9674Z" />
  <path fill-rule="evenodd" clip-rule="evenodd" d="M8.63558 2.10547C9.00377 2.10547 9.30224 2.40395 9.30224 2.77214V10.7721C9.30224 11.1403 9.00377 11.4388 8.63558 11.4388C8.26739 11.4388 7.96891 11.1403 7.96891 10.7721V2.77214C7.96891 2.40395 8.26739 2.10547 8.63558 2.10547Z" />
</svg>
