<svg id="draggable" viewBox="0 0 8 14"
  xmlns="http://www.w3.org/2000/svg">
  <path fill-rule="evenodd" clip-rule="evenodd" d="M0.776855 1.07249C0.776855 0.480171 1.25703 0 1.84935 0H1.86007C2.45239 0 2.93256 0.480171 2.93256 1.07249C2.93256 1.66481 2.45239 2.14498 1.86007 2.14498H1.84935C1.25703 2.14498 0.776855 1.66481 0.776855 1.07249ZM5.06682 1.07249C5.06682 0.480171 5.54699 0 6.13932 0H6.15004C6.74236 0 7.22253 0.480171 7.22253 1.07249C7.22253 1.66481 6.74236 2.14498 6.15004 2.14498H6.13932C5.54699 2.14498 5.06682 1.66481 5.06682 1.07249ZM0.776855 7.00276C0.776855 6.41044 1.25703 5.93027 1.84935 5.93027H1.86007C2.45239 5.93027 2.93256 6.41044 2.93256 7.00276C2.93256 7.59508 2.45239 8.07525 1.86007 8.07525H1.84935C1.25703 8.07525 0.776855 7.59508 0.776855 7.00276ZM5.06682 7.00276C5.06682 6.41044 5.54699 5.93027 6.13932 5.93027H6.15004C6.74236 5.93027 7.22253 6.41044 7.22253 7.00276C7.22253 7.59508 6.74236 8.07525 6.15004 8.07525H6.13932C5.54699 8.07525 5.06682 7.59508 5.06682 7.00276ZM0.776855 12.9275C0.776855 12.3352 1.25703 11.855 1.84935 11.855H1.86007C2.45239 11.855 2.93256 12.3352 2.93256 12.9275C2.93256 13.5198 2.45239 14 1.86007 14H1.84935C1.25703 14 0.776855 13.5198 0.776855 12.9275ZM5.06682 12.9275C5.06682 12.3352 5.54699 11.855 6.13932 11.855H6.15004C6.74236 11.855 7.22253 12.3352 7.22253 12.9275C7.22253 13.5198 6.74236 14 6.15004 14H6.13932C5.54699 14 5.06682 13.5198 5.06682 12.9275Z"></path>
</svg>
