<svg id="duplicate" viewBox="0 0 16 16"
  xmlns="http://www.w3.org/2000/svg">
  <path fill-rule="evenodd" d="M2.67 2.08a.58.58 0 00-.59.59v6a.58.58 0 00.59.58h.66a.75.75 0 010 1.5h-.66A2.08 2.08 0 01.58 8.67v-6A2.08 2.08 0 012.67.58h6a2.08 2.08 0 012.08 2.09v.66a.75.75 0 01-1.5 0v-.66a.58.58 0 00-.58-.59h-6zm4.66 4.67a.58.58 0 00-.58.58v6c0 .33.26.59.58.59h6c.33 0 .59-.26.59-.59v-6a.58.58 0 00-.59-.58h-6zm-2.08.58c0-1.15.93-2.08 2.08-2.08h6c1.15 0 2.09.93 2.09 2.08v6c0 1.15-.94 2.09-2.09 2.09h-6a2.08 2.08 0 01-2.08-2.09v-6z" clip-rule="evenodd"></path>
</svg>
