<svg id="empty" viewBox="0 0 24 24"
  xmlns="http://www.w3.org/2000/svg">
  <path fill-rule="evenodd" d="M12 .88c.62 0 1.13.5 1.13 1.12v4a1.13 1.13 0 01-2.26 0V2c0-.62.5-1.13 1.13-1.13zM4.13 4.13a1.12 1.12 0 011.6 0l2.83 2.83a1.12 1.12 0 11-1.6 1.6L4.13 5.73a1.12 1.12 0 010-1.6zm15.74 0c.43.44.43 1.16 0 1.6l-2.83 2.83a1.13 1.13 0 01-1.6-1.6l2.83-2.83a1.13 1.13 0 011.6 0zM.87 12c0-.62.5-1.13 1.13-1.13h4a1.13 1.13 0 010 2.26H2c-.62 0-1.13-.5-1.13-1.13zm16 0c0-.62.5-1.13 1.13-1.13h4a1.13 1.13 0 010 2.26h-4c-.62 0-1.13-.5-1.13-1.13zm-8.31 3.44c.43.44.43 1.16 0 1.6l-2.83 2.83a1.13 1.13 0 01-1.6-1.6l2.83-2.83a1.13 1.13 0 011.6 0zm6.88 0a1.13 1.13 0 011.6 0l2.83 2.83a1.13 1.13 0 01-1.6 1.6l-2.83-2.83a1.12 1.12 0 010-1.6zM12 16.88c.62 0 1.13.5 1.13 1.12v4a1.13 1.13 0 01-2.26 0v-4c0-.62.5-1.13 1.13-1.13z" clip-rule="evenodd"></path>
</svg>
