<svg id="epics" viewBox="0 0 24 24"
  xmlns="http://www.w3.org/2000/svg">
  <path fill-rule="evenodd" clip-rule="evenodd" d="M12.01 3c.274 0 .524.155.647.4l5.683 11.358.007.014 2.576 5.15a.724.724 0 01-.646 1.048L3.725 21a.724.724 0 01-.648-1.048L6.6 12.91a.473.473 0 01.006-.011L11.362 3.4a.724.724 0 01.647-.4zM7.552 14.245L4.897 19.55l14.208-.027-1.948-3.891-3.944-1.94-3.006 1.696a.724.724 0 01-.723-.006l-1.931-1.137zm8.533-.754L12.01 5.342l-3.807 7.605 1.657.975 2.974-1.68a.725.725 0 01.676-.02l2.577 1.269z"></path>
</svg>
