<svg id="external-link" viewBox="0 0 16 16"
  xmlns="http://www.w3.org/2000/svg">
  <path d="M7.04 3.709c0-.392.317-.709.708-.709h3.542c.392 0 .709.317.709.709V7.25a.708.708 0 1 1-1.417 0V5.475l-5.327 5.327a.763.763 0 1 1-1.08-1.079l5.307-5.306H7.748a.709.709 0 0 1-.709-.708Z"></path>
  <path d="M1.648 6.266a.418.418 0 0 1 .296-.122h2.752a.763.763 0 1 0 0-1.526H1.944A1.944 1.944 0 0 0 0 6.562v6.494A1.944 1.944 0 0 0 1.944 15h6.494a1.944 1.944 0 0 0 1.944-1.944v-2.75a.763.763 0 1 0-1.526 0v2.75a.418.418 0 0 1-.418.418H1.944a.418.418 0 0 1-.418-.418V6.562a.42.42 0 0 1 .122-.296Z"></path>
</svg>
