<svg id="eye-off" viewBox="0 0 16 16"
  xmlns="http://www.w3.org/2000/svg">
  <path d="M1.722 6.853c-.569.012-.897.728-.574 1.178.519.941.973 1.487 1.723 2.257-.458.4-.943.772-1.383 1.19-.42.481.044 1.311.674 1.208.44-.082.715-.483 1.064-.733l.786-.665c.945.706 2.057 1.213 3.234 1.356.018.617-.039 1.242.034 1.854.157.619 1.101.71 1.375.134.167-.417.06-.883.09-1.324v-.664c1.17-.142 2.275-.642 3.216-1.34.476.424.93.878 1.422 1.282.532.357 1.298-.207 1.115-.82-.137-.427-.57-.649-.862-.963l-.537-.491c.796-.822 1.323-1.42 1.84-2.439.259-.586-.435-1.24-1.005-.95-.482.264-.58.884-.933 1.276-1.102 1.587-2.501 2.726-4.496 2.963-1.842.23-3.573-.806-4.763-2.133-.645-.679-.948-1.154-1.431-1.948a.754.754 0 00-.59-.228z"></path>
</svg>
