<svg id="eye" viewBox="0 0 16 16"
  xmlns="http://www.w3.org/2000/svg">
  <path fill-rule="evenodd" clip-rule="evenodd" d="M2.62459 8C2.67489 8.08699 2.73464 8.18713 2.80364 8.2976C3.06049 8.70879 3.44057 9.25502 3.93309 9.79819C4.93231 10.9002 6.30237 11.8921 7.97889 11.8921C9.65541 11.8921 11.0254 10.9002 12.0247 9.79819C12.5173 9.25502 12.8973 8.70879 13.1541 8.2976C13.2232 8.18713 13.2829 8.08699 13.3332 8C13.2829 7.91301 13.2232 7.81287 13.1541 7.7024C12.8973 7.29121 12.5173 6.74498 12.0247 6.20181C11.0254 5.09984 9.65541 4.10787 7.97889 4.10787C6.30237 4.10787 4.93231 5.09984 3.93309 6.20181C3.44057 6.74498 3.06049 7.29121 2.80364 7.7024C2.73464 7.81287 2.67489 7.91301 2.62459 8ZM14.4605 6.83008C14.1674 6.36076 13.7313 5.73298 13.1593 5.10212C12.0293 3.85606 10.2767 2.5 7.97889 2.5C5.68106 2.5 3.89407 3.82593 2.79855 5.10212C2.28156 5.70436 2.09889 5.88238 1.49725 6.83008C0.895606 7.77778 0.781854 7.91247 1.49725 9.16992C1.79043 9.63924 2.22651 10.267 2.79855 10.8979C3.92843 12.1439 5.68106 13.5 7.97889 13.5C10.2767 13.5 12.0293 12.1439 13.1593 10.8979C13.7313 10.267 14.1674 9.63924 14.4605 9.16992C15.175 7.87537 15.1911 8.03636 14.4605 6.83008ZM7.97891 7.04268C7.46766 7.04268 7.0532 7.47118 7.0532 7.99977C7.0532 8.52835 7.46766 8.95685 7.97891 8.95685C8.49016 8.95685 8.90462 8.52835 8.90462 7.99977C8.90462 7.47118 8.49016 7.04268 7.97891 7.04268ZM5.49805 7.99977C5.49805 6.58318 6.60877 5.43481 7.97891 5.43481C9.34906 5.43481 10.4597 6.58318 10.4597 7.99977C10.4597 9.41635 9.34906 10.5647 7.97891 10.5647C6.60877 10.5647 5.49805 9.41635 5.49805 7.99977Z"></path>
</svg>
