<svg id="face" viewBox="0 0 24 24"
  xmlns="http://www.w3.org/2000/svg">
  <path d="M13.2011 5.62612C13.6358 6.06912 13.9553 6.64542 13.949 7.27504C13.9427 7.90469 13.6117 8.47456 13.1681 8.9088C12.7246 9.34304 12.1478 9.66177 11.5183 9.65512C10.8893 9.64845 10.3202 9.31781 9.8865 8.87469C9.45276 8.43159 9.13443 7.8556 9.14081 7.22677C9.14712 6.59796 9.47702 6.02852 9.91955 5.59425C10.3621 5.15998 10.9378 4.84094 11.5667 4.84692C12.1962 4.85291 12.7663 5.18311 13.2011 5.62612Z" />
  <path d="M19.6124 5.62612C20.0472 6.06912 20.3667 6.64542 20.3604 7.27504C20.3541 7.90469 20.0231 8.47456 19.5795 8.9088C19.136 9.34304 18.5592 9.66177 17.9297 9.65512C17.3007 9.64845 16.7316 9.31781 16.2979 8.87469C15.8641 8.43159 15.5458 7.8556 15.5522 7.22677C15.5585 6.59796 15.8884 6.02852 16.3309 5.59425C16.7735 5.15998 17.3491 4.84094 17.9781 4.84692C18.6076 4.85291 19.1777 5.18311 19.6124 5.62612Z" />
  <path d="M8.795 11.618C5.95968 11.6176 3.06418 12.3546 0.895899 14.1916C0.577566 14.4613 0.579034 14.9423 0.87377 15.2376L3.30962 17.6781C3.60473 17.9738 4.08202 17.9699 4.42018 17.7246C5.47019 16.963 6.99599 16.4463 8.79137 16.4466C10.9492 16.4468 12.7182 17.1882 13.7406 18.209C14.6409 19.1084 15.3295 20.5878 15.4825 22.4022C15.5176 22.818 15.8525 23.1568 16.2698 23.1566L19.5864 23.1552C20.0041 23.155 20.3444 22.8159 20.3243 22.3987C20.1876 19.561 19.2826 16.7341 17.2494 14.7032C15.036 12.4917 11.88 11.6186 8.795 11.618Z" />
</svg>
