<svg id="folder" viewBox="0 0 16 16"
  xmlns="http://www.w3.org/2000/svg">
  <title>Folder</title>
  <path fill-rule="evenodd" d="M3 2.55a.5.5 0 00-.35.15c-.1.1-.15.22-.15.36v8.92c0 .14.05.27.15.36.09.1.22.15.35.15h10a.5.5 0 00.35-.15c.1-.1.15-.22.15-.36V5.04a.52.52 0 00-.15-.36.5.5 0 00-.35-.15H7.37a.75.75 0 01-.62-.34L5.72 2.55H3zm-1.41-.93c.37-.39.88-.6 1.41-.6h3.12c.26 0 .49.13.63.34L7.78 3H13c.53 0 1.04.22 1.41.6.38.38.59.9.59 1.44v6.94c0 .54-.21 1.06-.59 1.44-.37.38-.88.6-1.41.6H3c-.53 0-1.04-.22-1.41-.6-.38-.38-.59-.9-.59-1.44V3.06c0-.54.21-1.06.59-1.44z" clip-rule="evenodd"></path>
</svg>
