<svg id="full-view" viewBox="0 0 16 16"
  xmlns="http://www.w3.org/2000/svg">
  <path d="M2.09931 2.4C1.71453 2.4 1.4 2.71302 1.4 3.10237V11.919C1.4 12.3083 1.71453 12.6213 2.09931 12.6213H12.8944C13.2792 12.6213 13.5938 12.3083 13.5938 11.919V3.10237C13.5938 2.71302 13.2792 2.4 12.8944 2.4H2.09931ZM0 3.10237C0 1.94271 0.938449 1 2.09931 1H12.8944C14.0553 1 14.9937 1.94271 14.9937 3.10237V11.919C14.9937 13.0786 14.0553 14.0213 12.8944 14.0213H2.09931C0.938449 14.0213 0 13.0786 0 11.919V3.10237Z"></path>
  <path d="M11.9975 3.49053H2.99752C2.72138 3.49053 2.49752 3.71439 2.49752 3.99053V10.9905C2.49752 11.2667 2.72138 11.4905 2.99752 11.4905H11.9975C12.2737 11.4905 12.4975 11.2667 12.4975 10.9905V3.99053C12.4975 3.71438 12.2737 3.49053 11.9975 3.49053Z"></path>
</svg>
