<svg id="help" viewBox="0 0 16 16"
  xmlns="http://www.w3.org/2000/svg">
  <title>Help</title>
  <path d="M7.32298 5.66564C7.51078 5.5552 7.72444 5.4964 7.9423 5.49519C8.16016 5.49398 8.37447 5.55041 8.56348 5.65876C8.75249 5.76711 8.90948 5.92353 9.01852 6.11213C9.12757 6.30074 9.18479 6.51484 9.18439 6.7327C9.18439 7.01395 8.96585 7.31516 8.52971 7.60497C8.29871 7.75713 8.05178 7.88362 7.79332 7.98219L7.73726 8.00309C7.65375 8.03034 7.57646 8.07386 7.50986 8.13113C7.44326 8.18841 7.38866 8.25831 7.34922 8.3368C7.30978 8.4153 7.28628 8.50082 7.28008 8.58845C7.27387 8.67607 7.28509 8.76406 7.31307 8.84732C7.34106 8.93059 7.38526 9.00749 7.44313 9.07358C7.501 9.13967 7.57138 9.19364 7.65022 9.23238C7.72906 9.27112 7.81479 9.29386 7.90247 9.29928C7.99015 9.30471 8.07803 9.29271 8.16104 9.26399H8.16484L8.17149 9.26114L8.1943 9.25259C8.30346 9.21296 8.41122 9.16954 8.51736 9.12241C8.71785 9.03309 8.9915 8.89722 9.26896 8.71193C9.78396 8.36892 10.5146 7.71994 10.5156 6.73365C10.5165 6.12778 10.3029 5.54115 9.91277 5.07765C9.52259 4.61414 8.98097 4.30369 8.38382 4.20126C7.78668 4.09883 7.17255 4.21105 6.65021 4.51803C6.12788 4.82501 5.73104 5.30695 5.52999 5.87849C5.49826 5.96146 5.48348 6.04994 5.48651 6.13872C5.48954 6.22749 5.51033 6.31476 5.54764 6.39538C5.58494 6.47599 5.63802 6.54832 5.70374 6.60808C5.76945 6.66785 5.84648 6.71385 5.93026 6.74336C6.01404 6.77287 6.10288 6.78531 6.19155 6.77992C6.28022 6.77454 6.36691 6.75146 6.4465 6.71202C6.5261 6.67259 6.59699 6.61762 6.655 6.55034C6.713 6.48307 6.75694 6.40485 6.78423 6.32032C6.88099 6.04486 7.0722 5.81259 7.32393 5.66469L7.32298 5.66564ZM7.33438 11.1672C7.33438 10.9908 7.40446 10.8216 7.52919 10.6969C7.65393 10.5722 7.82311 10.5021 7.99951 10.5021H8.00616C8.18257 10.5021 8.35174 10.5722 8.47648 10.6969C8.60122 10.8216 8.67129 10.9908 8.67129 11.1672C8.67129 11.3436 8.60122 11.5128 8.47648 11.6375C8.35174 11.7623 8.18257 11.8323 8.00616 11.8323H7.99951C7.82311 11.8323 7.65393 11.7623 7.52919 11.6375C7.40446 11.5128 7.33438 11.3436 7.33438 11.1672ZM7.99951 2.3305C7.25495 2.3305 6.51768 2.47715 5.82979 2.76208C5.14191 3.04702 4.51688 3.46465 3.9904 3.99113C3.46391 4.51761 3.04628 5.14264 2.76135 5.83053C2.47642 6.51841 2.32977 7.25568 2.32977 8.00024C2.32977 8.74481 2.47642 9.48208 2.76135 10.17C3.04628 10.8578 3.46391 11.4829 3.9904 12.0094C4.51688 12.5358 5.14191 12.9535 5.82979 13.2384C6.51768 13.5233 7.25495 13.67 7.99951 13.67C9.50322 13.67 10.9453 13.0726 12.0086 12.0094C13.0719 10.9461 13.6693 9.50395 13.6693 8.00024C13.6693 6.49653 13.0719 5.05441 12.0086 3.99113C10.9453 2.92785 9.50322 2.3305 7.99951 2.3305ZM0.999512 8.00024C0.999512 7.08099 1.18057 6.17074 1.53235 5.32146C1.88414 4.47218 2.39975 3.70051 3.04976 3.0505C3.69977 2.40049 4.47145 1.88487 5.32073 1.53309C6.17001 1.1813 7.08026 1.00024 7.99951 1.00024C8.91876 1.00024 9.82902 1.1813 10.6783 1.53309C11.5276 1.88487 12.2992 2.40049 12.9493 3.0505C13.5993 3.70051 14.1149 4.47218 14.4667 5.32146C14.8185 6.17074 14.9995 7.08099 14.9995 8.00024C14.9995 9.85676 14.262 11.6372 12.9493 12.95C11.6365 14.2627 9.85603 15.0002 7.99951 15.0002C6.143 15.0002 4.36252 14.2627 3.04976 12.95C1.73701 11.6372 0.999512 9.85676 0.999512 8.00024Z"></path>
</svg>
