<svg id="img" viewBox="0 0 16 16"
  xmlns="http://www.w3.org/2000/svg">
  <path fill-rule="evenodd" clip-rule="evenodd" d="M5.33325 3.99984C4.96506 3.99984 4.66658 4.29831 4.66658 4.6665V9.37107L5.94572 8.4574C6.1617 8.30313 6.44861 8.29167 6.67621 8.42823L7.81512 9.11157L9.12406 7.27906C9.33806 6.97946 9.75443 6.91006 10.054 7.12407L11.3333 8.03779V6.99984H12.6666V10.9998C12.6666 12.1044 11.7712 12.9998 10.6666 12.9998H5.33325C4.22868 12.9998 3.33325 12.1044 3.33325 10.9998V4.6665C3.33325 3.56193 4.22868 2.6665 5.33325 2.6665H8.66658V3.99984H5.33325ZM11.3333 9.67633L9.82154 8.59654L8.54237 10.3874C8.34034 10.6702 7.95492 10.7504 7.65688 10.5716L6.36502 9.79644L4.66665 11.0096C4.67185 11.3733 4.96831 11.6665 5.33325 11.6665H10.6666C11.0348 11.6665 11.3333 11.368 11.3333 10.9998V9.67633Z" />
  <path fill-rule="evenodd" clip-rule="evenodd" d="M5.33325 6.33317C5.33325 5.4127 6.07944 4.6665 6.99992 4.6665C7.92039 4.6665 8.66658 5.4127 8.66658 6.33317C8.66658 7.25364 7.92039 7.99984 6.99992 7.99984C6.07944 7.99984 5.33325 7.25364 5.33325 6.33317ZM6.99992 5.99984C6.81582 5.99984 6.66658 6.14908 6.66658 6.33317C6.66658 6.51727 6.81582 6.6665 6.99992 6.6665C7.18401 6.6665 7.33325 6.51727 7.33325 6.33317C7.33325 6.14908 7.18401 5.99984 6.99992 5.99984Z" />
  <path fill-rule="evenodd" clip-rule="evenodd" d="M1.33325 2.6665C1.33325 1.56193 2.22868 0.666504 3.33325 0.666504H10.781C11.3114 0.666504 11.8201 0.877218 12.1952 1.25229L14.0808 3.13791C14.4559 3.51298 14.6666 4.02169 14.6666 4.55212V13.3332C14.6666 14.4377 13.7712 15.3332 12.6666 15.3332H3.33325C2.22868 15.3332 1.33325 14.4377 1.33325 13.3332V2.6665ZM3.33325 1.99984C2.96506 1.99984 2.66659 2.29831 2.66659 2.6665V13.3332C2.66659 13.7014 2.96506 13.9998 3.33325 13.9998H12.6666C13.0348 13.9998 13.3333 13.7014 13.3333 13.3332V5.33317H11.3333C10.5969 5.33317 9.99992 4.73622 9.99992 3.99984V1.99984H3.33325ZM11.3333 2.27598V3.99984H13.0571L11.3333 2.27598Z" />
</svg>
