<svg id="info" viewBox="0 0 16 16"
  xmlns="http://www.w3.org/2000/svg">
  <path d="M8 2.5C4.96243 2.5 2.5 4.96243 2.5 8C2.5 11.0376 4.96243 13.5 8 13.5C11.0376 13.5 13.5 11.0376 13.5 8C13.5 4.96243 11.0376 2.5 8 2.5ZM1 8C1 4.13401 4.13401 1 8 1C11.866 1 15 4.13401 15 8C15 11.866 11.866 15 8 15C4.13401 15 1 11.866 1 8Z" clip-rule="evenodd"></path>
  <path d="M7.25 5.33339C7.25 4.91918 7.58579 4.58339 8 4.58339H8.00667C8.42088 4.58339 8.75667 4.91918 8.75667 5.33339C8.75667 5.74761 8.42088 6.08339 8.00667 6.08339H8C7.58579 6.08339 7.25 5.74761 7.25 5.33339ZM8.00333 7.25006C8.41755 7.25006 8.75333 7.58585 8.75333 8.00006V10.6667C8.75333 11.0809 8.41755 11.4167 8.00333 11.4167C7.58912 11.4167 7.25333 11.0809 7.25333 10.6667V8.00006C7.25333 7.58585 7.58912 7.25006 8.00333 7.25006Z" clip-rule="evenodd"></path>
</svg>
