<svg id="issues" viewBox="0 0 24 24"
  xmlns="http://www.w3.org/2000/svg">
  <path fill-rule="evenodd" clip-rule="evenodd" d="M7.464 4.5c-.23 0-.469.1-.657.307-.19.21-.307.508-.307.832v13.116l5.072-3.767a.75.75 0 01.928 0l5 3.767V5.639c0-.324-.118-.622-.308-.832a.889.889 0 00-.656-.307H7.464zm-1.767-.7c.455-.502 1.089-.8 1.767-.8h9.072c.678 0 1.312.298 1.767.8.453.498.697 1.161.697 1.839v14.66a.75.75 0 01-1.214.59l-5.75-4.357-5.822 4.357A.75.75 0 015 20.299V5.64c0-.678.244-1.34.697-1.84z"></path>
</svg>
