<svg id="leave" viewBox="0 0 17 17" xmlns="http://www.w3.org/2000/svg">
<path fill-rule="evenodd" clip-rule="evenodd" d="M2.24618 2.7059C1.85548 3.0966 1.63598 3.6265 1.63598 4.17904V13.5124C1.63598 14.0649 1.85548 14.5948 2.24618 14.9855C2.63688 15.3762 3.16678 15.5957 3.71932 15.5957H6.38599C6.8002 15.5957 7.13599 15.2599 7.13599 14.8457C7.13599 14.4315 6.8002 14.0957 6.38599 14.0957H3.71932C3.56461 14.0957 3.41624 14.0342 3.30684 13.9248C3.19744 13.8155 3.13598 13.6671 3.13598 13.5124V4.17904C3.13598 4.02433 3.19744 3.87595 3.30684 3.76656C3.41624 3.65716 3.56461 3.5957 3.71932 3.5957H6.38599C6.8002 3.5957 7.13599 3.25992 7.13599 2.8457C7.13599 2.43149 6.8002 2.0957 6.38599 2.0957H3.71932C3.16678 2.0957 2.63688 2.3152 2.24618 2.7059ZM14.9163 8.31537C15.2092 8.60827 15.2092 9.08314 14.9163 9.37603L11.583 12.7094C11.2901 13.0023 10.8152 13.0023 10.5223 12.7094C10.2294 12.4165 10.2294 11.9416 10.5223 11.6487L12.5753 9.5957L6.38599 9.5957C5.97177 9.5957 5.63599 9.25992 5.63599 8.8457C5.63599 8.43149 5.97177 8.0957 6.38599 8.0957L12.5753 8.0957L10.5223 6.0427C10.2294 5.74981 10.2294 5.27493 10.5223 4.98204C10.8152 4.68915 11.2901 4.68915 11.583 4.98204L14.9163 8.31537Z" />
</svg>
