<svg id="link" viewBox="0 0 16 16"
  xmlns="http://www.w3.org/2000/svg">
  <path d="M8.4349 2.08859C9.16547 1.38235 10.1439 0.991557 11.1596 1.00039C12.1752 1.00922 13.1468 1.41697 13.865 2.13582C14.5832 2.85466 14.9905 3.82709 14.9994 4.84365C15.0082 5.86021 14.6178 6.83957 13.9122 7.5708L13.9036 7.5797L12.0063 9.47852C11.6136 9.87166 11.141 10.1758 10.6206 10.3701C10.1002 10.5644 9.5441 10.6444 8.99007 10.6047C8.43603 10.565 7.89701 10.4065 7.40956 10.1399C6.92212 9.87335 6.49765 9.50498 6.16494 9.05979C5.92958 8.74486 5.99386 8.29858 6.30851 8.06301C6.62316 7.82743 7.06903 7.89177 7.30439 8.2067C7.51488 8.48835 7.78342 8.7214 8.0918 8.89004C8.40019 9.05868 8.7412 9.15896 9.09171 9.18408C9.44222 9.20921 9.79403 9.15859 10.1233 9.03566C10.4525 8.91273 10.7515 8.72036 10.9999 8.47161L12.8927 6.57719C13.3365 6.11503 13.582 5.49722 13.5765 4.85602C13.5709 4.21289 13.3132 3.59769 12.8588 3.14291C12.4044 2.68813 11.7898 2.43016 11.1472 2.42457C10.5063 2.419 9.88873 2.66499 9.42691 3.10968L8.34302 4.18824C8.06437 4.46553 7.61389 4.46421 7.33685 4.1853C7.05982 3.90639 7.06113 3.45551 7.33979 3.17822L8.4349 2.08859ZM5.37842 5.63041C5.89884 5.4361 6.45492 5.35609 7.00896 5.39581C7.56299 5.43552 8.10201 5.59403 8.58946 5.86059C9.0769 6.12714 9.50138 6.49551 9.83408 6.9407C10.0694 7.25563 10.0052 7.70191 9.69051 7.93748C9.37586 8.17306 8.92999 8.10872 8.69463 7.79379C8.48415 7.51214 8.2156 7.27909 7.90722 7.11045C7.59883 6.94181 7.25782 6.84153 6.90731 6.81641C6.5568 6.79128 6.20499 6.8419 5.87574 6.96483C5.54649 7.08776 5.24751 7.28013 4.99907 7.52888L3.10636 9.42331C2.6625 9.88547 2.41699 10.5033 2.42255 11.1445C2.42814 11.7876 2.68587 12.4028 3.14024 12.8576C3.5946 13.3124 4.20925 13.5703 4.8518 13.5759C5.49242 13.5815 6.10967 13.3358 6.57141 12.8915L7.6482 11.8137C7.92605 11.5356 8.37653 11.5356 8.65438 11.8137C8.93223 12.0918 8.93223 12.5427 8.65438 12.8208L7.5642 13.912C6.83363 14.6182 5.85508 15.0089 4.83944 15.0001C3.8238 14.9913 2.85225 14.5835 2.13406 13.8647C1.41586 13.1458 1.00848 12.1734 0.999658 11.1568C0.990833 10.1403 1.38127 9.16092 2.08687 8.42969L2.09546 8.42079L3.99271 6.52197C4.38539 6.12883 4.85803 5.82471 5.37842 5.63041Z"></path>
</svg>
