<svg id="meetup" viewBox="0 0 24 24"
  xmlns="http://www.w3.org/2000/svg">
  <path d="M5.236 5.25C3.956 5.25 3 6.347 3 7.596v8.158c0 1.248.955 2.346 2.236 2.346h8.377c1.281 0 2.237-1.098 2.237-2.346v-2.772l5.05 3.247a.714.714 0 001.1-.6V7.72a.714.714 0 00-1.1-.6l-5.05 3.246V7.596c0-1.249-.956-2.346-2.237-2.346H5.236zm0 1.428h8.377c.402 0 .809.364.809.918V15.754c0 .554-.408.918-.809.918H5.236c-.4 0-.808-.364-.808-.918V7.596c0-.554.407-.918.808-.918zm15.336 2.351v5.291l-4.117-2.644 4.117-2.647z"></path>
</svg>
