<svg id="members" viewBox="0 0 16 16"
  xmlns="http://www.w3.org/2000/svg">
  <path d="M6.009 2.71a1.967 1.967 0 1 0-.09 3.933 1.967 1.967 0 0 0 .09-3.933ZM2.642 4.676a3.367 3.367 0 1 1 6.734 0 3.367 3.367 0 0 1-6.734 0Zm7.357-2.753a.7.7 0 0 1 .85-.505 3.367 3.367 0 0 1 0 6.523.7.7 0 0 1-.347-1.356 1.967 1.967 0 0 0 0-3.81.7.7 0 0 1-.503-.852Zm-8.5 8.354a3.367 3.367 0 0 1 2.38-.986h4.318a3.367 3.367 0 0 1 3.366 3.366v1.334a.7.7 0 0 1-1.4 0v-1.334a1.968 1.968 0 0 0-1.966-1.966H3.88a1.967 1.967 0 0 0-1.966 1.966v1.334a.7.7 0 1 1-1.4 0v-1.334c0-.892.354-1.749.986-2.38Zm10.61-.374a.7.7 0 0 1 .851-.503 3.366 3.366 0 0 1 2.525 3.257v1.334a.7.7 0 0 1-1.4 0v-1.333a1.966 1.966 0 0 0-1.475-1.903.7.7 0 0 1-.502-.852Z"></path>
</svg>
