<svg id="modal-view" viewBox="0 0 16 16"
  xmlns="http://www.w3.org/2000/svg">
  <path d="M2.60272 2.88926C2.21795 2.88926 1.90342 3.20227 1.90342 3.59163V12.4082C1.90342 12.7976 2.21795 13.1106 2.60272 13.1106H13.3979C13.7826 13.1106 14.0972 12.7976 14.0972 12.4082V3.59163C14.0972 3.20227 13.7826 2.88926 13.3979 2.88926H2.60272ZM0.503418 3.59163C0.503418 2.43196 1.44187 1.48926 2.60272 1.48926H13.3979C14.5587 1.48926 15.4972 2.43196 15.4972 3.59163V12.4082C15.4972 13.5679 14.5587 14.5106 13.3979 14.5106H2.60272C1.44187 14.5106 0.503418 13.5679 0.503418 12.4082V3.59163Z"></path>
  <path d="M10.9199 5.5H4.91992C4.64378 5.5 4.41992 5.72386 4.41992 6V10C4.41992 10.2761 4.64378 10.5 4.91992 10.5H10.9199C11.1961 10.5 11.4199 10.2761 11.4199 10V6C11.4199 5.72386 11.1961 5.5 10.9199 5.5Z"></path>
</svg>
