<svg id="more-horizontal" viewBox="0 0 16 16"
  xmlns="http://www.w3.org/2000/svg">
<path fill-rule="evenodd" clip-rule="evenodd" d="M8.6358 9.94761C7.61844 9.94761 6.7937 9.12287 6.7937 8.1055C6.7937 7.08814 7.61844 6.2634 8.6358 6.2634C9.65317 6.2634 10.4779 7.08814 10.4779 8.1055C10.4779 9.12287 9.65317 9.94761 8.6358 9.94761Z"/>
<path fill-rule="evenodd" clip-rule="evenodd" d="M3.47791 9.94761C2.46054 9.94761 1.6358 9.12287 1.6358 8.1055C1.6358 7.08814 2.46054 6.2634 3.47791 6.2634C4.49528 6.2634 5.32001 7.08814 5.32001 8.1055C5.32001 9.12287 4.49528 9.94761 3.47791 9.94761Z"/>
<path fill-rule="evenodd" clip-rule="evenodd" d="M13.7937 9.94761C12.7763 9.94761 11.9516 9.12287 11.9516 8.1055C11.9516 7.08814 12.7763 6.2634 13.7937 6.2634C14.8111 6.2634 15.6358 7.08814 15.6358 8.1055C15.6358 9.12287 14.8111 9.94761 13.7937 9.94761Z"/>
</svg>
