<svg id="notification-notice" viewBox="0 0 16 16"
  xmlns="http://www.w3.org/2000/svg">
  <path d="M3.55438 3.0684C3.42549 3.0684 3.30188 3.1196 3.21074 3.21074C3.1196 3.30187 3.0684 3.42548 3.0684 3.55437V11.8226L4.27004 10.6209C4.41711 10.4739 4.61657 10.3912 4.82455 10.3912H12.4456C12.5745 10.3912 12.6981 10.34 12.7893 10.2489C12.8804 10.1578 12.9316 10.0341 12.9316 9.90525V3.55437C12.9316 3.42548 12.8804 3.30187 12.7893 3.21074C12.6981 3.1196 12.5745 3.0684 12.4456 3.0684H3.55438ZM2.10171 2.10171C2.48698 1.71644 3.00952 1.5 3.55438 1.5H12.4456C12.9905 1.5 13.513 1.71644 13.8983 2.10171C14.2836 2.48698 14.5 3.00952 14.5 3.55437V9.90525C14.5 10.4501 14.2836 10.9726 13.8983 11.3579C13.513 11.7432 12.9905 11.9596 12.4456 11.9596H5.14938L2.83871 14.2703C2.61443 14.4946 2.27713 14.5617 1.9841 14.4403C1.69106 14.3189 1.5 14.033 1.5 13.7158V3.55437C1.5 3.00952 1.71644 2.48698 2.10171 2.10171Z" clip-rule="evenodd"></path>
</svg>
