<svg id="notification-warning" viewBox="0 0 16 16"
  xmlns="http://www.w3.org/2000/svg">
  <path d="M7.00645 1.75672C7.30975 1.58842 7.65194 1.5 8 1.5C8.34806 1.5 8.69025 1.58842 8.99355 1.75672C9.29685 1.92502 9.55102 2.16752 9.73153 2.46084L9.73363 2.46425L15.2287 11.5058C15.4055 11.8076 15.499 12.1499 15.5 12.4984C15.501 12.8469 15.4094 13.1896 15.2342 13.4924C15.0591 13.7952 14.8066 14.0476 14.5019 14.2243C14.1971 14.4011 13.8507 14.4961 13.4971 14.4999L13.4891 14.5L2.50293 14.5C2.14933 14.4961 1.80291 14.4011 1.49814 14.2243C1.19337 14.0476 0.940863 13.7952 0.76575 13.4924C0.590637 13.1896 0.499018 12.8469 0.500008 12.4984C0.500998 12.1499 0.594563 11.8077 0.771394 11.5059L0.777236 11.4959L6.26846 2.46083C6.44897 2.16752 6.70315 1.92502 7.00645 1.75672ZM8 2.93715C7.90254 2.93715 7.80673 2.9619 7.72181 3.00903C7.63735 3.05589 7.5665 3.12331 7.51601 3.20483C7.51573 3.20528 7.51545 3.20573 7.51517 3.20618L2.03181 12.2285C1.98379 12.312 1.95841 12.4064 1.95814 12.5024C1.95786 12.6 1.98351 12.696 2.03254 12.7808C2.08158 12.8655 2.15228 12.9362 2.23761 12.9857C2.32204 13.0346 2.41788 13.0612 2.51579 13.0628H13.4842C13.5821 13.0612 13.678 13.0346 13.7624 12.9857C13.8477 12.9362 13.9184 12.8655 13.9675 12.7808C14.0165 12.696 14.0421 12.6 14.0419 12.5024C14.0416 12.4064 14.0162 12.312 13.9682 12.2285L8.48483 3.20618C8.48455 3.20573 8.48427 3.20528 8.48399 3.20483C8.4335 3.12331 8.36265 3.05589 8.27819 3.00903C8.19327 2.9619 8.09746 2.93715 8 2.93715ZM7.99993 5.39801C8.40258 5.39801 8.72899 5.71972 8.72899 6.11658V8.67151C8.72899 9.06837 8.40258 9.39008 7.99993 9.39008C7.59727 9.39008 7.27086 9.06837 7.27086 8.67151V6.11658C7.27086 5.71972 7.59727 5.39801 7.99993 5.39801ZM7.27086 11.2264C7.27086 10.8296 7.59727 10.5079 7.99993 10.5079H8.00722C8.40987 10.5079 8.73629 10.8296 8.73629 11.2264C8.73629 11.6233 8.40987 11.945 8.00722 11.945H7.99993C7.59727 11.945 7.27086 11.6233 7.27086 11.2264Z" clip-rule="evenodd"></path>
</svg>
