<svg id="paperclip" viewBox="0 0 16 16"
  xmlns="http://www.w3.org/2000/svg">
  <path fill-rule="evenodd" clip-rule="evenodd" d="M12.0999 2.33116C11.6436 2.33116 11.2061 2.51242 10.8834 2.83505L5.03437 8.6955C4.48801 9.24186 4.18107 9.98288 4.18107 10.7556C4.18107 11.5282 4.48801 12.2692 5.03437 12.8156C5.58073 13.362 6.32176 13.6689 7.09442 13.6689C7.86709 13.6689 8.60812 13.362 9.15448 12.8156L14.6331 7.33697C14.893 7.07705 15.3144 7.07705 15.5743 7.33697C15.8343 7.59688 15.8343 8.01828 15.5743 8.27819L10.0957 13.7568C9.29972 14.5528 8.22012 15 7.09442 15C5.96873 15 4.88913 14.5528 4.09315 13.7568C3.29716 12.9608 2.84998 11.8812 2.84998 10.7556C2.84998 9.62985 3.29716 8.55026 4.09315 7.75427L9.9422 1.89382C10.5145 1.32156 11.2906 1.00007 12.0999 1.00007C12.9092 1.00007 13.6854 1.32156 14.2576 1.89382C14.8299 2.46609 15.1514 3.24225 15.1514 4.05155C15.1514 4.86085 14.8299 5.63701 14.2576 6.20927L8.40263 12.0697C8.05409 12.4183 7.58137 12.6141 7.08846 12.6141C6.59555 12.6141 6.12283 12.4183 5.7743 12.0697C5.42576 11.7212 5.22995 11.2485 5.22995 10.7556C5.22995 10.2626 5.42576 9.78992 5.7743 9.44138L11.2063 4.00393C11.4664 3.74417 11.8878 3.74442 12.1475 4.00448C12.4073 4.26455 12.4071 4.68595 12.147 4.94571L6.71552 10.3826C6.61678 10.4815 6.56104 10.6158 6.56104 10.7556C6.56104 10.8954 6.61661 11.0296 6.71552 11.1285C6.81443 11.2274 6.94858 11.283 7.08846 11.283C7.22834 11.283 7.36249 11.2274 7.46141 11.1285L13.3164 5.26805C13.6389 4.94544 13.8203 4.5077 13.8203 4.05155C13.8203 3.59527 13.6391 3.15769 13.3164 2.83505C12.9938 2.51242 12.5562 2.33116 12.0999 2.33116Z" />
</svg>
