<svg id="pdf" viewBox="0 0 16 16"
  xmlns="http://www.w3.org/2000/svg">
  <path d="M4.66658 5.99984C4.2984 5.99984 3.99992 6.29831 3.99992 6.6665C3.99992 7.03469 4.2984 7.33317 4.66658 7.33317H10.6666C11.0348 7.33317 11.3333 7.03469 11.3333 6.6665C11.3333 6.29831 11.0348 5.99984 10.6666 5.99984H4.66658Z" />
  <path d="M3.99992 9.33317C3.99992 8.96498 4.2984 8.6665 4.66658 8.6665H10.6666C11.0348 8.6665 11.3333 8.96498 11.3333 9.33317C11.3333 9.70136 11.0348 9.99984 10.6666 9.99984H4.66658C4.2984 9.99984 3.99992 9.70136 3.99992 9.33317Z" />
  <path d="M4.66658 11.3332C4.2984 11.3332 3.99992 11.6316 3.99992 11.9998C3.99992 12.368 4.2984 12.6665 4.66658 12.6665H7.99992C8.36811 12.6665 8.66658 12.368 8.66658 11.9998C8.66658 11.6316 8.36811 11.3332 7.99992 11.3332H4.66658Z" />
  <path fill-rule="evenodd" clip-rule="evenodd" d="M1.33325 2.6665C1.33325 1.56193 2.22868 0.666504 3.33325 0.666504H10.781C11.3114 0.666504 11.8201 0.877218 12.1952 1.25229L14.0808 3.13791C14.4559 3.51298 14.6666 4.02169 14.6666 4.55212V13.3332C14.6666 14.4377 13.7712 15.3332 12.6666 15.3332H3.33325C2.22868 15.3332 1.33325 14.4377 1.33325 13.3332V2.6665ZM3.33325 1.99984C2.96506 1.99984 2.66659 2.29831 2.66659 2.6665V13.3332C2.66659 13.7014 2.96506 13.9998 3.33325 13.9998H12.6666C13.0348 13.9998 13.3333 13.7014 13.3333 13.3332V5.33317H11.3333C10.5969 5.33317 9.99992 4.73622 9.99992 3.99984V1.99984H3.33325ZM11.3333 3.99984V2.27598L13.0571 3.99984H11.3333Z" />
</svg>
