<svg id="refresh" viewBox="0 0 16 16"
  xmlns="http://www.w3.org/2000/svg">
  <path d="M6.31057 1.99812C7.29884 1.70241 8.34404 1.67042 9.34785 1.90537C10.3515 2.1403 11.2788 2.63385 12.0439 3.33735C12.8089 4.04071 13.3869 4.93087 13.7264 5.92344C13.8605 6.31535 13.6515 6.74175 13.2596 6.87581C12.8677 7.00988 12.4413 6.80085 12.3072 6.40893C12.0473 5.64933 11.6066 4.97295 11.0287 4.44156C10.4509 3.91031 9.75473 3.54115 9.006 3.3659C8.25738 3.19068 7.47827 3.21443 6.74057 3.43516C6.00272 3.65594 5.32823 4.06727 4.78118 4.63345C4.77574 4.63909 4.7702 4.64464 4.76458 4.65011L3.3476 6.02746H5.04545C5.45967 6.02746 5.79545 6.36324 5.79545 6.77746C5.79545 7.19167 5.45967 7.52746 5.04545 7.52746H1.5C1.08579 7.52746 0.75 7.19167 0.75 6.77746V3.10983C0.75 2.69561 1.08579 2.35983 1.5 2.35983C1.91421 2.35983 2.25 2.69561 2.25 3.10983V5.00249L3.7109 3.58245C4.43254 2.8385 5.32629 2.29263 6.31057 1.99812ZM10.2045 9.22254C10.2045 8.80833 10.5403 8.47254 10.9545 8.47254H14.5C14.9142 8.47254 15.25 8.80833 15.25 9.22254V12.8902C15.25 13.3044 14.9142 13.6402 14.5 13.6402C14.0858 13.6402 13.75 13.3044 13.75 12.8902V10.9975L12.2891 12.4176C11.5675 13.1615 10.6737 13.7074 9.68943 14.0019C8.70116 14.2976 7.65596 14.3296 6.65215 14.0946C5.64846 13.8597 4.7212 13.3662 3.95606 12.6626C3.19107 11.9593 2.61309 11.0691 2.27355 10.0766C2.13949 9.68465 2.34852 9.25825 2.74043 9.12419C3.13235 8.99012 3.55874 9.19915 3.69281 9.59107C3.95265 10.3507 4.39336 11.0271 4.97131 11.5584C5.54911 12.0897 6.24527 12.4589 6.994 12.6341C7.74262 12.8093 8.52173 12.7856 9.25943 12.5648C9.99728 12.3441 10.6718 11.9327 11.2188 11.3666C11.2243 11.3609 11.2298 11.3554 11.2354 11.3499L12.6524 9.97254H10.9545C10.5403 9.97254 10.2045 9.63676 10.2045 9.22254Z"></path>
</svg>
