<svg id="remove-user" viewBox="0 0 16 16"
  xmlns="http://www.w3.org/2000/svg">
  <path fill-rule="evenodd" clip-rule="evenodd" d="M5.5 0C3.567 0 2 1.567 2 3.5C2 5.433 3.567 7 5.5 7C7.43299 7 9 5.433 9 3.5C9 1.567 7.43299 0 5.5 0ZM5.5 1.61538C4.45915 1.61538 3.61539 2.45916 3.61539 3.5C3.61539 4.54084 4.45915 5.38461 5.5 5.38461C6.54084 5.38461 7.38461 4.54084 7.38461 3.5C7.38461 2.45916 6.54084 1.61538 5.5 1.61538Z"></path>
  <path d="M10.6221 5.84003C10.3292 5.54714 9.85436 5.54714 9.56147 5.84003C9.26857 6.13292 9.26857 6.6078 9.56147 6.90069L11.2811 8.62036L9.56147 10.34C9.26857 10.6329 9.26857 11.1078 9.56147 11.4007C9.85436 11.6936 10.3292 11.6936 10.6221 11.4007L12.3418 9.68102L14.0615 11.4007C14.3544 11.6936 14.8292 11.6936 15.1221 11.4007C15.415 11.1078 15.415 10.6329 15.1221 10.34L13.4025 8.62036L15.1221 6.90069C15.415 6.6078 15.415 6.13292 15.1221 5.84003C14.8292 5.54714 14.3544 5.54714 14.0615 5.84003L12.3418 7.5597L10.6221 5.84003Z"></path>
  <path d="M0.893866 9.02979C1.47612 8.38176 2.28411 8 3.14595 8H7.33887C7.75308 8 8.08887 8.33579 8.08887 8.75C8.08887 9.16421 7.75308 9.5 7.33887 9.5H3.14595C2.7369 9.5 2.32606 9.68015 2.00965 10.0323C1.69087 10.3871 1.5 10.884 1.5 11.4167V12.75C1.5 13.1642 1.16421 13.5 0.75 13.5C0.335786 13.5 0 13.1642 0 12.75V11.4167C0 10.5349 0.313993 9.67519 0.893866 9.02979Z"></path>
</svg>
