<svg id="scrum" viewBox="0 0 24 24"
  xmlns="http://www.w3.org/2000/svg">
  <path d="M12.344 5.32a7.458 7.458 0 00-5.4 2.264 7.506 7.506 0 00-2.061 4.266c-.102.784-.098 1.691-.074 2.38.004.117.01.185.015.29l-.57-.57a.762.762 0 00-1.078 1.077l1.855 1.856a.762.762 0 001.078 0l1.797-1.797a.762.762 0 00-1.078-1.078l-.48.48c-.006-.11-.012-.185-.016-.31-.023-.664-.02-1.473.064-2.133a5.975 5.975 0 011.64-3.399 5.937 5.937 0 013.341-1.73 5.896 5.896 0 013.7.629 5.923 5.923 0 012.575 2.738 5.974 5.974 0 01-1.498 7.002c-.553.483-.964.827-1.455 1.067-.472.23-1.06.38-1.959.38a.768.768 0 00-.12.012.773.773 0 00-.052-.002H3.207a.763.763 0 100 1.525h9.361a.76.76 0 00.137-.013c.012 0 .023.004.035.004 1.087 0 1.91-.189 2.625-.537.697-.34 1.251-.814 1.793-1.288a7.499 7.499 0 002.4-4.082 7.497 7.497 0 00-.52-4.707 7.445 7.445 0 00-6.694-4.324zm7.092 13.422a.763.763 0 100 1.525h2.2a.763.763 0 000-1.525h-2.2z"></path>
</svg>
