<svg id="search3" viewBox="0 0 16 16"
  xmlns="http://www.w3.org/2000/svg">
  <title>Help circle</title>
  <path fill-rule="evenodd" d="m8.1842 5.1102c-0.33855-0.05808-0.68676 0.00555-0.98291 0.1796-0.29615 0.17405-0.52109 0.44729-0.63513 0.77133-0.13327 0.3789-0.54848 0.57801-0.92738 0.44472-0.3789-0.13329-0.57801-0.54849-0.44472-0.9274 0.22799-0.64808 0.67797-1.1946 1.2703-1.5426 0.59232-0.34809 1.2887-0.47534 1.9658-0.35919 0.67716 0.11615 1.2914 0.46818 1.7337 0.99377 0.44232 0.52547 0.68451 1.1905 0.68357 1.8774-3.64e-4 1.113-0.82553 1.848-1.4148 2.2409-0.3168 0.2112-0.62844 0.36648-0.85804 0.46851-0.11585 0.051495-0.21338 0.09054-0.28364 0.11732-0.035201 0.0135-0.06371 0.023775-0.084509 0.0312l-0.025236 0.00885-0.00807 0.0027-0.00283 0.00102-0.00109 3.63e-4s-9.454e-4 2.91e-4 -0.23091-0.68967l0.22996 0.68997c-0.38102 0.12698-0.79288-0.078916-0.91993-0.46001-0.12698-0.38088 0.078764-0.79266 0.45957-0.91979l0.01128-0.0039c0.011205-0.00405 0.029528-0.01065 0.053964-0.019995 0.049019-0.01869 0.12196-0.04779 0.21069-0.087196 0.17949-0.079785 0.41331-0.19724 0.64197-0.34968 0.50153-0.33432 0.76706-0.69003 0.76706-1.0312v-0.00108c4.963e-4 -0.34354-0.12059-0.67615-0.34176-0.93894-0.22124-0.2628-0.52836-0.43881-0.86692-0.49688zm-0.91499 6.5277c0-0.40167 0.32561-0.72728 0.72728-0.72728h0.00727c0.40167 0 0.72728 0.32561 0.72728 0.72728 0 0.40167-0.32561 0.72728-0.72728 0.72728h-0.00727c-0.40167 0-0.72728-0.32561-0.72728-0.72728z" clip-rule="evenodd"></path>
  <path fill-rule="evenodd" d="m8 1.4546c-3.615 0-6.5454 2.9306-6.5454 6.5454 0 3.615 2.9306 6.5454 6.5454 6.5454 3.615 0 6.5454-2.9304 6.5454-6.5454 0-3.615-2.9304-6.5454-6.5454-6.5454zm-8 6.5454c0-4.4183 3.5817-8 8-8 4.4183 0 8 3.5817 8 8 0 4.4183-3.5817 8-8 8-4.4183 0-8-3.5817-8-8z" clip-rule="evenodd"></path>
</svg>
