<svg id="settings" viewBox="0 0 24 24"
  xmlns="http://www.w3.org/2000/svg">
  <path fill-rule="evenodd" clip-rule="evenodd" d="M12.402 10.909a1.705 1.705 0 100 3.41 1.705 1.705 0 000-3.41zm-3.205 1.704a3.205 3.205 0 116.41 0 3.205 3.205 0 01-6.41 0z"></path>
  <path fill-rule="evenodd" clip-rule="evenodd" d="M12.402 4.363a.886.886 0 00-.886.887V5.392a2.1 2.1 0 01-1.273 1.922.75.75 0 01-.205.055 2.1 2.1 0 01-2.17-.479l-.006-.005-.049-.05a.889.889 0 00-1.447.967c.044.108.11.206.192.288l.055.055a2.1 2.1 0 01.43 2.295 2.1 2.1 0 01-1.914 1.352h-.091a.886.886 0 000 1.773h.142a2.1 2.1 0 011.92 1.27 2.1 2.1 0 01-.421 2.312l-.006.006-.049.049a.888.888 0 101.255 1.255l.055-.055a2.099 2.099 0 012.294-.43 2.1 2.1 0 011.353 1.914v.091a.886.886 0 001.773 0V19.835a2.1 2.1 0 011.269-1.92 2.1 2.1 0 012.312.421l.006.006.05.05a.888.888 0 101.255-1.255l-.056-.056a2.1 2.1 0 01-.421-2.312 2.1 2.1 0 011.92-1.27h.076a.886.886 0 100-1.772H19.623a2.1 2.1 0 01-1.921-1.273.752.752 0 01-.056-.205 2.1 2.1 0 01.479-2.17l.006-.005.049-.05a.889.889 0 00-.967-1.447.886.886 0 00-.288.193l-.055.055a2.1 2.1 0 01-2.313.421 2.1 2.1 0 01-1.269-1.92V5.25a.886.886 0 00-.886-.887zm6.054 10.705l.686.303a.6.6 0 00.118.66l.045.044a2.386 2.386 0 01-1.687 4.076 2.387 2.387 0 01-1.689-.7l-.045-.045a.6.6 0 00-.66-.117l-.007.003a.6.6 0 00-.363.547v.138a2.386 2.386 0 11-4.773 0v-.063a.6.6 0 00-.393-.542.7.7 0 01-.044-.018.6.6 0 00-.659.118l-.045.045a2.388 2.388 0 11-3.376-3.376l.045-.045a.6.6 0 00.118-.66l-.004-.007a.6.6 0 00-.548-.364h-.137a2.386 2.386 0 110-4.773h.063a.601.601 0 00.542-.392.748.748 0 01.018-.044.6.6 0 00-.118-.66l-.045-.045A2.389 2.389 0 018.1 5.257c.29.12.552.296.774.518l.046.045a.6.6 0 00.659.118.75.75 0 01.162-.05.6.6 0 00.274-.501V5.25a2.386 2.386 0 114.773 0v.072a.6.6 0 00.364.547l.007.004a.6.6 0 00.66-.118l.045-.045a2.386 2.386 0 014.076 1.687 2.388 2.388 0 01-.7 1.688l-.045.046a.6.6 0 00-.118.66.75.75 0 01.05.161.601.601 0 00.501.275h.137a2.386 2.386 0 110 4.773h-.071a.6.6 0 00-.548.363l-.69-.295z"></path>
</svg>
