<svg id="side-view" viewBox="0 0 16 16"
  xmlns="http://www.w3.org/2000/svg">
  <path d="M2.60272 2.88926C2.21795 2.88926 1.90342 3.20227 1.90342 3.59163V12.4082C1.90342 12.7976 2.21795 13.1106 2.60272 13.1106H13.3979C13.7826 13.1106 14.0972 12.7976 14.0972 12.4082V3.59163C14.0972 3.20227 13.7826 2.88926 13.3979 2.88926H2.60272ZM0.503418 3.59163C0.503418 2.43196 1.44187 1.48926 2.60272 1.48926H13.3979C14.5587 1.48926 15.4972 2.43196 15.4972 3.59163V12.4082C15.4972 13.5679 14.5587 14.5106 13.3979 14.5106H2.60272C1.44187 14.5106 0.503418 13.5679 0.503418 12.4082V3.59163Z"></path>
  <path d="M12.5009 3.97979H9.50094C9.2248 3.97979 9.00094 4.20364 9.00094 4.47979V11.4798C9.00094 11.7559 9.2248 11.9798 9.50094 11.9798H12.5009C12.7771 11.9798 13.0009 11.7559 13.0009 11.4798V4.47979C13.0009 4.20364 12.7771 3.97979 12.5009 3.97979Z"></path>
</svg>
