<svg id="slash" viewBox="0 0 16 16"
  xmlns="http://www.w3.org/2000/svg">
  <title>Slash icon</title>
  <path fill-rule="evenodd" clip-rule="evenodd" d="M7 2C3.96243 2 1.5 4.46243 1.5 7.5C1.5 10.5376 3.96243 13 7 13C10.0376 13 12.5 10.5376 12.5 7.5C12.5 4.46243 10.0376 2 7 2ZM0 7.5C0 3.63401 3.13401 0.5 7 0.5C10.866 0.5 14 3.63401 14 7.5C14 11.366 10.866 14.5 7 14.5C3.13401 14.5 0 11.366 0 7.5Z" fill="#BEC7D8"/>
  <path fill-rule="evenodd" clip-rule="evenodd" d="M2.05092 2.55095C2.34381 2.25806 2.81868 2.25806 3.11158 2.55095L11.9491 11.3885C12.242 11.6813 12.242 12.1562 11.9491 12.4491C11.6562 12.742 11.1813 12.742 10.8884 12.4491L2.05092 3.61161C1.75802 3.31872 1.75802 2.84385 2.05092 2.55095Z" fill="#BEC7D8"/>
</svg>
