<svg id="sliders-vertical" viewBox="0 0 16 16"
  xmlns="http://www.w3.org/2000/svg">
  <path fill-rule="evenodd" d="M14.5 3.05155C14.5 3.43587 14.1766 3.74742 13.7778 3.74742L9.28395 3.74742C8.88508 3.74742 8.56173 3.43587 8.56173 3.05155C8.56173 2.66722 8.88508 2.35567 9.28395 2.35567L13.7778 2.35567C14.1767 2.35567 14.5 2.66722 14.5 3.05155ZM14.5 8C14.5 8.38432 14.1766 8.69588 13.7778 8.69588L11.2901 8.69588L11.2901 9.85567C11.2901 10.24 10.9668 10.5515 10.5679 10.5515C10.169 10.5515 9.84568 10.24 9.84568 9.85567L9.84568 6.14433C9.84568 5.76001 10.169 5.44845 10.5679 5.44845C10.9668 5.44845 11.2901 5.76001 11.2901 6.14433L11.2901 7.30412L13.7778 7.30412C14.1766 7.30412 14.5 7.61568 14.5 8ZM14.5 12.9485C14.5 13.3328 14.1766 13.6443 13.7778 13.6443L8 13.6443C7.60113 13.6443 7.27778 13.3328 7.27778 12.9485C7.27778 12.5641 7.60113 12.2526 8 12.2526L13.7778 12.2526C14.1766 12.2526 14.5 12.5641 14.5 12.9485ZM8.72222 8C8.72222 8.38432 8.39887 8.69588 8 8.69588L2.22222 8.69588C1.82335 8.69588 1.5 8.38432 1.5 8C1.5 7.61568 1.82335 7.30412 2.22222 7.30412L8 7.30412C8.39887 7.30412 8.72222 7.61568 8.72222 8ZM6.71605 0.5C7.11492 0.5 7.43827 0.811554 7.43827 1.19588L7.43827 4.90722C7.43827 5.29154 7.11492 5.60309 6.71605 5.60309C6.31718 5.60309 5.99383 5.29154 5.99383 4.90722L5.99383 3.74742L2.22222 3.74742C1.82335 3.74742 1.5 3.43587 1.5 3.05155C1.5 2.66722 1.82335 2.35567 2.22222 2.35567L5.99383 2.35567L5.99383 1.19588C5.99383 0.811554 6.31718 0.5 6.71605 0.5ZM5.4321 10.3969C5.83097 10.3969 6.15432 10.7085 6.15432 11.0928L6.15432 14.8041C6.15432 15.1884 5.83097 15.5 5.4321 15.5C5.03323 15.5 4.70988 15.1884 4.70988 14.8041L4.70988 13.6443L2.22222 13.6443C1.82335 13.6443 1.5 13.3328 1.5 12.9485C1.5 12.5641 1.82335 12.2526 2.22222 12.2526L4.70988 12.2526L4.70988 11.0928C4.70988 10.7085 5.03323 10.3969 5.4321 10.3969Z" clip-rule="evenodd"></path>
</svg>
