<svg xmlns="http://www.w3.org/2000/svg">
  <title>Taiga.io icons set</title>
  <desc>Taiga is the project management tool for multi-functional agile teams.</desc>
  <defs>
    <symbol id="example" viewBox="0 0 16 16">
      <!-- Edit the icon title. -->
      <title>Example</title>
      <!-- Edit the icon SVG with a clean version -->
      <path d="M3.1 1a.7.7 0 000 1.4h9.3a.7.7 0 100-1.4H3zm4.7 3.2c-.2 0-.4 0-.5.2L2.5 9a.7.7 0 001 1l3.6-3.6v7.8c0 .4.3.7.7.7.3 0 .7-.3.7-.7V6.5l3.5 3.6a.7.7 0 001-1L8.2 4.4a.7.7 0 00-.4-.2z" fill="currentColor" stroke="currentColor"/>
    </symbol>
    <symbol id="taiga-logo" viewBox="0 0 16 16">
      <title>Taiga Logo</title>
      <path d="m12.413 2.2341c-0.16107-0.0028-0.33728-0.0028-0.52064 0.0031-0.28091 0.0087-0.57947 0.02291-0.87548 0.06298 0.07429 0.20116 0.13259 0.41978 0.16667 0.66208 0.01264 0.08983 0.02245 0.17881 0.02997 0.26711 0.23158-0.03579 0.47238-0.06373 0.70721-0.07096 0.16598-0.0051 0.32582-0.0053 0.47211-0.0028 0.14118 0.0025 0.26795 0.0076 0.37755 0.01332 0.0144 0.22402 0.02709 0.52645 0.02096 0.85481-0.0044 0.22971-0.02853 0.46519-0.06027 0.69268 0.08171 0.0054 0.16422 0.01331 0.24742 0.02425 0.25067 0.03287 0.47611 0.09183 0.68331 0.16777 0.03552-0.29358 0.04576-0.5891 0.05099-0.86735 0.01381-0.73677-0.05845-1.3567-0.05845-1.3567l-0.04251-0.3674-0.368-0.03798s-0.34758-0.03616-0.83084-0.0447zm-8.8509 0.0022c-0.48531 0.0098-0.83441 0.04707-0.83441 0.04707l-0.36791 0.03904-0.041467 0.36758s-0.070235 0.61734-0.054721 1.351c0.00609 0.28676 0.018256 0.59184 0.057361 0.89423 0.19699-0.07158 0.41068-0.12769 0.64684-0.1609 0.095452-0.01342 0.18991-0.02331 0.28364-0.03099-0.034779-0.23612-0.061297-0.48236-0.066369-0.72214-0.00691-0.3263 0.00496-0.62655 0.018693-0.8495 0.11032-6e-3 0.23839-0.01155 0.38081-0.01437 0.14695-0.0031 0.30742-0.0031 0.47412 0.0015 0.21766 0.0062 0.44042 0.03029 0.657 0.06127 0.00544-0.07723 0.01263-0.15492 0.022955-0.23344 0.033456-0.25502 0.093846-0.48402 0.17176-0.69418-0.27957-0.03431-0.56043-0.04708-0.82553-0.0546-0.18415-0.0052-0.36103-5e-3 -0.52278-0.0018zm10.083 8.7677c-0.20614 0.076-0.43014 0.13531-0.67873 0.16912-0.08432 0.01147-0.16795 0.02048-0.25088 0.02741 0.04075 0.25494 0.07099 0.52619 0.07653 0.78876 0.0069 0.32454-0.0049 0.62267-0.01845 0.84529-0.22507 0.0099-0.52774 0.01659-0.85644 4e-3 -0.22539-0.0086-0.45606-0.03621-0.67963-0.07099-0.0053 0.06811-0.01109 0.13632-0.02016 0.20539-0.03488 0.26614-0.09888 0.50427-0.18192 0.72182 0.28635 0.03883 0.57467 0.05456 0.84646 0.06496 0.73937 0.02832 1.3627-0.03163 1.3627-0.03163l0.37222-0.03547 0.04197-0.37158s0.07019-0.61739 0.05467-1.3512c-0.0066-0.3095-0.02123-0.64022-0.06837-0.96593zm-11.316 0.05488c-0.040427 0.3008-0.054561 0.60438-0.062699 0.88988-0.021168 0.73953 0.044763 1.3623 0.044763 1.3623l0.039062 0.37195 0.37199 0.03835s0.61797 0.06427 1.3515 0.04165c0.289-0.0089 0.59653-0.02427 0.90089-0.06709-0.086449-0.22123-0.15319-0.46384-0.19009-0.73515-0.00876-0.06448-0.014891-0.12822-0.021003-0.1919-0.23481 0.03675-0.47959 0.06544-0.71818 0.0728-0.32439 0.01-0.62268 0.0012-0.84538-0.01035-0.012075-0.22496-0.021702-0.52752-0.012304-0.85638 0.00694-0.24246 0.035467-0.49152 0.072363-0.73025-0.088508-0.0054-0.17774-0.01355-0.26797-0.02539-0.24243-0.03179-0.46132-0.08805-0.66298-0.16038zm5.6323-11.059-0.28704 0.23335s-0.4824 0.39156-0.98513 0.92621c-0.50267 0.53465-1.0664 1.179-1.1671 1.9459-0.099521 0.75815 0.14123 1.5794 0.48235 2.3512 0.24726-0.2063 0.51766-0.3848 0.80614-0.52066-0.26224-0.66101-0.42854-1.3003-0.37472-1.7106 0.040427-0.30768 0.46976-0.9506 0.92481-1.4346 0.22352-0.23772 0.44224-0.44379 0.60811-0.59331 0.16864 0.14823 0.39147 0.35303 0.61931 0.5896 0.46272 0.48045 0.90081 1.1206 0.94417 1.429 0.083468 0.59413-0.0184 1.1761-0.244 1.763 0.2792 0.14283 0.54033 0.32542 0.77787 0.53448 0.32336-0.76158 0.49931-1.5682 0.37872-2.4258-0.10811-0.76903-0.68177-1.4094-1.193-1.9402-0.51121-0.53075-1.0006-0.91799-1.0006-0.91799zm4.4925 5.5008c-0.62987 0.01696-1.2862 0.22779-1.9107 0.50358 0.20603 0.2471 0.38438 0.51734 0.52022 0.80555 0.66027-0.26176 1.2987-0.42758 1.7086-0.37382 0.30774 0.04043 0.95068 0.46971 1.4347 0.92476 0.23643 0.22235 0.44112 0.43952 0.59051 0.60507-0.15056 0.16768-0.35771 0.38832-0.59691 0.61419-0.48747 0.46043-1.1352 0.89633-1.4483 0.93889-0.58187 0.07909-1.1521-0.01893-1.7268-0.23622-0.14235 0.27979-0.32512 0.54134-0.53403 0.77948 0.74929 0.3143 1.5424 0.48448 2.385 0.36998 0.77052-0.10469 1.4191-0.67398 1.957-1.182 0.53793-0.508 0.93169-0.995 0.93169-0.995l0.23536-0.29056-0.23595-0.29014s-0.39152-0.48246-0.92625-0.98518c-0.53467-0.50272-1.1791-1.0664-1.946-1.1671-0.1439-0.01893-0.29014-0.02555-0.43792-0.02155zm-8.8835 0.01664c-0.15902 0.0025-0.31982 0.01483-0.48249 0.03771-0.76899 0.10811-1.4093 0.68187-1.9401 1.193-0.53075 0.51126-0.91805 1.0007-0.91805 1.0007l-0.22969 0.28987 0.23329 0.28704s0.39158 0.48251 0.9262 0.98513c0.53462 0.50272 1.1789 1.0664 1.9458 1.1671 0.75784 0.09947 1.5788-0.14107 2.3504-0.48203-0.20628-0.24726-0.38462-0.51766-0.52038-0.80625-0.66076 0.26214-1.2999 0.42822-1.71 0.3744-0.30768-0.040374-0.95062-0.4696-1.4345-0.92465-0.23775-0.22352-0.44374-0.4423-0.5933-0.60817 0.14823-0.16864 0.35302-0.39147 0.58958-0.61931 0.48043-0.46272 1.1207-0.90076 1.4291-0.94417 0.59432-0.08357 1.1764 0.01845 1.7635 0.24422 0.14259-0.27872 0.32458-0.53969 0.53309-0.77702-0.61684-0.26246-1.263-0.42859-1.9425-0.4176zm2.3676 4.9735c-0.31435 0.74934-0.48464 1.5426-0.37008 2.3852 0.10475 0.77046 0.67403 1.419 1.182 1.9569s0.995 0.93169 0.995 0.93169l0.29062 0.23542 0.29014-0.23595s0.48246-0.39158 0.98513-0.9263c0.50273-0.53467 1.0664-1.1791 1.1671-1.946 0.09936-0.75724-0.14064-1.5774-0.48112-2.3484-0.24731 0.20619-0.51777 0.38459-0.8063 0.52043 0.26166 0.66006 0.42742 1.2983 0.37366 1.708-0.040374 0.30768-0.46976 0.95068-0.92481 1.4347-0.2223 0.23643-0.43936 0.44112-0.60497 0.59046-0.16763-0.15051-0.38838-0.35766-0.61425-0.59686-0.46038-0.48747-0.89638-1.1352-0.93889-1.4483-0.079147-0.58214 0.018934-1.1525 0.23643-1.7275-0.27979-0.1423-0.54139-0.3248-0.77963-0.53355zm2.0818-4.9351c-0.64017-0.0063-1.2261 0.3184-1.6765 0.76044s-0.78614 1.0217-0.79222 1.6616c-0.00608 0.63947 0.3183 1.2248 0.75979 1.6747 0.44155 0.44992 1.0205 0.78534 1.6599 0.79179 0.63931 0.0065 1.225-0.31718 1.6755-0.75819 0.45051-0.44091 0.78667-1.0195 0.79345-1.6591 0.0068-0.64001-0.31728-1.2264-0.75878-1.6774-0.4415-0.45099-1.0209-0.78747-1.6611-0.79393zm-0.00923 0.92161c0.29536 0.0031 0.70278 0.2015 1.0117 0.51707 0.30891 0.31558 0.49894 0.72731 0.49579 1.0228-0.00309 0.29504-0.20144 0.70177-0.51654 1.0102s-0.7263 0.49819-1.0215 0.4952c-0.2952-0.003093-0.7024-0.20096-1.0112-0.51568-0.30886-0.31472-0.49894-0.72539-0.49611-1.0204 0.00272-0.29547 0.20096-0.70326 0.51611-1.0125 0.31515-0.30923 0.72641-0.49958 1.0218-0.49664z"/>
    </symbol>
    <symbol id="discover" viewBox="0 0 16 16">
      <title>Discover</title>
      <path d="m8 1.4545c-3.615 0-6.5455 2.9305-6.5455 6.5455 0 3.615 2.9305 6.5455 6.5455 6.5455 3.615 0 6.5455-2.9305 6.5455-6.5455 0-3.615-2.9305-6.5455-6.5455-6.5455zm-8 6.5455c0-4.4183 3.5817-8 8-8 4.4183 0 8 3.5817 8 8 0 4.4183-3.5817 8-8 8-4.4183 0-8-3.5817-8-8zm11.598-3.5979c0.19476 0.19479 0.26284 0.48291 0.17571 0.74425l-1.5418 4.6254c-0.07244 0.21716-0.24284 0.38756-0.46 0.46l-4.6254 1.5418c-0.26134 0.08713-0.54945 0.01906-0.74425-0.17571-0.19479-0.19476-0.2628-0.48291-0.17569-0.74422l1.5418-4.6255c0.072385-0.21716 0.2428-0.38758 0.45996-0.45996l4.6255-1.5418c0.26131-0.08711 0.54945-0.0191 0.74422 0.17569zm-4.5647 2.631-0.96686 2.9006 2.9006-0.96691 0.96691-2.9006z"/>
    </symbol>
  </defs>
</svg>



