<svg xmlns="http://www.w3.org/2000/svg">
  <title>Taiga.io icons set</title>
  <desc>Taiga is the project management tool for multi-functional agile teams.</desc>
  <defs>
    <symbol id="example" viewBox="0 0 16 16">
        <!-- Edit the icon title. -->
        <title>Example</title>
        <!-- Edit the icon SVG with a clean version -->
        <path d="M3.1 1a.7.7 0 000 1.4h9.3a.7.7 0 100-1.4H3zm4.7 3.2c-.2 0-.4 0-.5.2L2.5 9a.7.7 0 001 1l3.6-3.6v7.8c0 .4.3.7.7.7.3 0 .7-.3.7-.7V6.5l3.5 3.6a.7.7 0 001-1L8.2 4.4a.7.7 0 00-.4-.2z" fill="currentColor" stroke="currentColor"/>
      </symbol>
  </defs>
</svg>
