<svg xmlns="http://www.w3.org/2000/svg">
  <title>Taiga.io icons set</title>
  <desc>Taiga is the project management tool for multi-functional agile teams.</desc>
  <defs>
    <symbol id="taiga-logo" viewBox="0 0 48 48">
      <title>Taiga Logo</title>
      <path d="M37.24 7.42a31.98 31.98 0 00-4.19.2 9.53 9.53 0 01.6 2.78 17.59 17.59 0 013.53-.22c.42 0 .8.02 1.13.04.04.67.08 1.58.06 2.56 0 .7-.08 1.4-.18 2.08l.75.07c.75.1 1.42.28 2.05.5.1-.87.13-1.76.15-2.6.04-2.2-.18-4.06-.18-4.06l-.12-1.1-1.1-.12s-1.05-.1-2.5-.13zm-26.55 0c-1.46.03-2.5.14-2.5.14l-1.11.12-.13 1.1s-.2 1.85-.16 4.06c.02.86.06 1.77.17 2.68a9.53 9.53 0 012.8-.58c-.11-.7-.19-1.44-.2-2.16-.03-.98.01-1.88.05-2.55a33.07 33.07 0 012.57-.04c.65.02 1.32.09 1.97.18a9.5 9.5 0 01.58-2.78 26.56 26.56 0 00-4.04-.17zm30.24 26.3a9.57 9.57 0 01-2.78.6c.12.76.2 1.57.23 2.36.02.97-.02 1.87-.06 2.54-.68.03-1.58.05-2.57 0-.68-.02-1.37-.1-2.04-.2l-.06.61c-.1.8-.3 1.51-.54 2.17a34.17 34.17 0 006.63.1l1.11-.11.13-1.11s.2-1.86.16-4.06c-.02-.93-.06-1.92-.2-2.9zM7 33.9a34.17 34.17 0 00-.05 6.76l.11 1.11 1.12.12a33.79 33.79 0 006.75-.08 9.55 9.55 0 01-.63-2.78c-.7.1-1.44.2-2.15.22-.98.03-1.87 0-2.54-.03a31.7 31.7 0 01-.04-2.57c.02-.73.11-1.48.22-2.2a9.53 9.53 0 01-2.8-.56zM23.88.71l-.86.7S21.58 2.6 20.07 4.2c-1.51 1.6-3.2 3.54-3.5 5.84-.3 2.28.42 4.74 1.44 7.05.75-.61 1.56-1.15 2.42-1.56-.78-1.98-1.28-3.9-1.12-5.13.12-.92 1.4-2.85 2.77-4.3a31.3 31.3 0 011.83-1.78c.5.44 1.17 1.06 1.85 1.77 1.4 1.44 2.7 3.36 2.84 4.28.25 1.79-.06 3.53-.74 5.3.84.42 1.63.97 2.34 1.6.97-2.29 1.5-4.7 1.13-7.28-.32-2.3-2.04-4.23-3.57-5.82-1.54-1.6-3-2.76-3-2.76l-.88-.69zm13.48 16.5c-1.89.06-3.86.69-5.73 1.52.62.74 1.15 1.55 1.56 2.41 1.98-.78 3.9-1.28 5.13-1.12.92.12 2.85 1.41 4.3 2.78.7.66 1.32 1.32 1.77 1.81a31.6 31.6 0 01-1.79 1.85c-1.46 1.38-3.4 2.68-4.34 2.81-1.75.24-3.46-.06-5.19-.7-.42.83-.97 1.62-1.6 2.33 2.25.94 4.63 1.45 7.16 1.11 2.3-.31 4.26-2.02 5.87-3.54a34.17 34.17 0 002.8-2.99l.7-.87-.7-.87s-1.18-1.45-2.79-2.96c-1.6-1.5-3.53-3.2-5.83-3.5a8.35 8.35 0 00-1.32-.06zm-26.65.06c-.48 0-.96.04-1.45.11-2.3.32-4.22 2.05-5.82 3.58-1.59 1.53-2.75 3-2.75 3l-.69.87.7.86s1.17 1.45 2.78 2.96c1.6 1.5 3.54 3.2 5.84 3.5 2.27.3 4.73-.42 7.05-1.45a11.32 11.32 0 01-1.56-2.42c-1.99.79-3.9 1.29-5.13 1.13-.93-.12-2.86-1.41-4.3-2.78a31.29 31.29 0 01-1.79-1.82c.45-.5 1.06-1.18 1.77-1.86 1.44-1.39 3.36-2.7 4.29-2.83 1.78-.25 3.53.05 5.29.73.43-.84.97-1.62 1.6-2.33a14.23 14.23 0 00-5.83-1.25zm7.1 14.92a13.54 13.54 0 00-1.1 7.15c.3 2.31 2.02 4.26 3.54 5.87 1.52 1.62 2.98 2.8 2.98 2.8l.88.7.87-.7s1.44-1.18 2.95-2.78c1.51-1.6 3.2-3.54 3.5-5.84.3-2.27-.42-4.73-1.44-7.04-.74.61-1.55 1.15-2.42 1.56.79 1.98 1.28 3.9 1.12 5.12-.12.92-1.4 2.85-2.77 4.3-.67.71-1.32 1.33-1.82 1.78-.5-.46-1.16-1.08-1.84-1.8-1.38-1.46-2.69-3.4-2.82-4.34-.23-1.75.06-3.46.71-5.18-.84-.43-1.62-.98-2.34-1.6zM24.06 17.46a7.24 7.24 0 00-5.03 2.28 7.24 7.24 0 00-2.38 4.99 7.23 7.23 0 002.28 5.02 7.24 7.24 0 004.98 2.38 7.24 7.24 0 005.03-2.28 7.23 7.23 0 002.38-4.98 7.24 7.24 0 00-2.28-5.03 7.24 7.24 0 00-4.98-2.38zm-.03 2.77c.89 0 2.11.6 3.04 1.55.92.94 1.5 2.18 1.48 3.07 0 .88-.6 2.1-1.55 3.03a4.85 4.85 0 01-3.06 1.48c-.89 0-2.1-.6-3.03-1.55a4.85 4.85 0 01-1.5-3.06c.02-.88.61-2.1 1.56-3.03a4.85 4.85 0 013.06-1.5z"/>
    </symbol>
    <symbol id="discover" viewBox="0 0 24 24">
      <title>Discover</title>
      <path fill-rule="evenodd" d="M12.5 3.53a9 9 0 100 18 9 9 0 000-18zm-11 9a11 11 0 1122 0 11 11 0 01-22 0zm15.95-4.95a1 1 0 01.24 1.03l-2.12 6.36a1 1 0 01-.63.63l-6.36 2.12a1 1 0 01-1.27-1.27l2.12-6.36a1 1 0 01.63-.63l6.36-2.12a1 1 0 011.03.24zm-6.28 3.62L9.84 15.2l3.99-1.33 1.33-3.99-3.99 1.33z" clip-rule="evenodd"/>
    </symbol>
    <symbol id="folder" viewBox="0 0 16 16">
      <title>Folder</title>
      <path fill-rule="evenodd" d="M3 2.55a.5.5 0 00-.35.15c-.1.1-.15.22-.15.36v8.92c0 .14.05.27.15.36.09.1.22.15.35.15h10a.5.5 0 00.35-.15c.1-.1.15-.22.15-.36V5.04a.52.52 0 00-.15-.36.5.5 0 00-.35-.15H7.37a.75.75 0 01-.62-.34L5.72 2.55H3zm-1.41-.93c.37-.39.88-.6 1.41-.6h3.12c.26 0 .49.13.63.34L7.78 3H13c.53 0 1.04.22 1.41.6.38.38.59.9.59 1.44v6.94c0 .54-.21 1.06-.59 1.44-.37.38-.88.6-1.41.6H3c-.53 0-1.04-.22-1.41-.6-.38-.38-.59-.9-.59-1.44V3.06c0-.54.21-1.06.59-1.44z" clip-rule="evenodd"/>
    </symbol>
    <symbol id="bell" viewBox="0 0 16 16">
      <title>Bell</title>
      <path stroke="none" stroke-linecap="round" stroke-linejoin="round" d="M 4.2578125,9.5371094 A 0.48497349,0.48497349 0 0 0 3.8613281,10.271484 c 0.1278908,0.220498 0.3123509,0.404083 0.5332031,0.53125 0.2208364,0.127234 0.469746,0.19336 0.7246094,0.19336 0.2549075,0 0.5057942,-0.06622 0.7265625,-0.19336 0.2209261,-0.127195 0.4053584,-0.310832 0.5332031,-0.53125 A 0.48524534,0.48524534 0 1 0 5.5390625,9.7851562 c -0.042655,0.073542 -0.1042204,0.1334566 -0.1777344,0.1757813 -0.073772,0.042483 -0.1572549,0.064455 -0.2421875,0.064455 -0.084877,0 -0.1666307,-0.02205 -0.2402344,-0.064455 a 0.48497349,0.48497349 0 0 0 -0.00195,0 C 4.8033654,9.9185653 4.7437811,9.858619 4.7011719,9.7851562 A 0.48497349,0.48497349 0 0 0 4.2578125,9.5371094 Z M 5.1191406,0.33007812 c -0.9000835,0 -1.7619418,0.35770326 -2.3984375,0.99414068 -0.6364437,0.6364553 -0.9960937,1.5002695 -0.9960937,2.4003906 0,1.6279743 -0.3456841,2.6318195 -0.6679688,3.2226562 C 0.73435599,7.5381023 0.48632813,7.6855469 0.48632812,7.6855469 A 0.48497349,0.48497349 0 0 0 0.75585938,8.5742188 H 9.484375 A 0.48497349,0.48497349 0 0 0 9.7539062,7.6855469 c 0,0 -0.2480263,-0.1474363 -0.5703124,-0.7382813 C 8.8613076,6.3564206 8.5136719,5.3525577 8.5136719,3.7246094 8.5136719,2.8245343 8.1559608,1.9607183 7.5195312,1.3242188 6.8830498,0.68778399 6.0192575,0.33007812 5.1191406,0.33007812 Z m 0,0.96874998 c 0.6432832,0 1.2599452,0.2560723 1.7148438,0.7109375 0.4548504,0.4549005 0.7109375,1.0715989 0.7109375,1.7148438 0,1.7665017 0.3819955,2.9448075 0.7871093,3.6875 0.071756,0.1315497 0.08293,0.084889 0.15625,0.1914062 H 1.7519531 c 0.073321,-0.1065164 0.084494,-0.059857 0.15625,-0.1914062 0.4051154,-0.7426883 0.7871094,-1.9209743 0.7871094,-3.6875 0,-0.643279 0.2561012,-1.2599992 0.7109375,-1.7148438 C 3.8611543,1.554903 4.4759041,1.2988281 5.1191406,1.2988281 Z" transform="translate(1 1) scale(1.3125)"/>
    </symbol>
    <symbol id="search" viewBox="0 0 16 16">
      <title>Search</title>
      <path fill-rule="evenodd" d="M12.13 11.07a6.08 6.08 0 10-1.06 1.06l2.4 2.4a.75.75 0 101.06-1.06l-2.4-2.4zM2.75 7.33a4.58 4.58 0 119.17 0 5 5 0 01-1.41 3.3 4.57 4.57 0 01-7.76-3.3z" clip-rule="evenodd"/>
    </symbol>
    <symbol id="help" viewBox="0 0 16 16">
      <title>Help</title>
        <path d="M7.32298 5.66564C7.51078 5.5552 7.72444 5.4964 7.9423 5.49519C8.16016 5.49398 8.37447 5.55041 8.56348 5.65876C8.75249 5.76711 8.90948 5.92353 9.01852 6.11213C9.12757 6.30074 9.18479 6.51484 9.18439 6.7327C9.18439 7.01395 8.96585 7.31516 8.52971 7.60497C8.29871 7.75713 8.05178 7.88362 7.79332 7.98219L7.73726 8.00309C7.65375 8.03034 7.57646 8.07386 7.50986 8.13113C7.44326 8.18841 7.38866 8.25831 7.34922 8.3368C7.30978 8.4153 7.28628 8.50082 7.28008 8.58845C7.27387 8.67607 7.28509 8.76406 7.31307 8.84732C7.34106 8.93059 7.38526 9.00749 7.44313 9.07358C7.501 9.13967 7.57138 9.19364 7.65022 9.23238C7.72906 9.27112 7.81479 9.29386 7.90247 9.29928C7.99015 9.30471 8.07803 9.29271 8.16104 9.26399H8.16484L8.17149 9.26114L8.1943 9.25259C8.30346 9.21296 8.41122 9.16954 8.51736 9.12241C8.71785 9.03309 8.9915 8.89722 9.26896 8.71193C9.78396 8.36892 10.5146 7.71994 10.5156 6.73365C10.5165 6.12778 10.3029 5.54115 9.91277 5.07765C9.52259 4.61414 8.98097 4.30369 8.38382 4.20126C7.78668 4.09883 7.17255 4.21105 6.65021 4.51803C6.12788 4.82501 5.73104 5.30695 5.52999 5.87849C5.49826 5.96146 5.48348 6.04994 5.48651 6.13872C5.48954 6.22749 5.51033 6.31476 5.54764 6.39538C5.58494 6.47599 5.63802 6.54832 5.70374 6.60808C5.76945 6.66785 5.84648 6.71385 5.93026 6.74336C6.01404 6.77287 6.10288 6.78531 6.19155 6.77992C6.28022 6.77454 6.36691 6.75146 6.4465 6.71202C6.5261 6.67259 6.59699 6.61762 6.655 6.55034C6.713 6.48307 6.75694 6.40485 6.78423 6.32032C6.88099 6.04486 7.0722 5.81259 7.32393 5.66469L7.32298 5.66564ZM7.33438 11.1672C7.33438 10.9908 7.40446 10.8216 7.52919 10.6969C7.65393 10.5722 7.82311 10.5021 7.99951 10.5021H8.00616C8.18257 10.5021 8.35174 10.5722 8.47648 10.6969C8.60122 10.8216 8.67129 10.9908 8.67129 11.1672C8.67129 11.3436 8.60122 11.5128 8.47648 11.6375C8.35174 11.7623 8.18257 11.8323 8.00616 11.8323H7.99951C7.82311 11.8323 7.65393 11.7623 7.52919 11.6375C7.40446 11.5128 7.33438 11.3436 7.33438 11.1672ZM7.99951 2.3305C7.25495 2.3305 6.51768 2.47715 5.82979 2.76208C5.14191 3.04702 4.51688 3.46465 3.9904 3.99113C3.46391 4.51761 3.04628 5.14264 2.76135 5.83053C2.47642 6.51841 2.32977 7.25568 2.32977 8.00024C2.32977 8.74481 2.47642 9.48208 2.76135 10.17C3.04628 10.8578 3.46391 11.4829 3.9904 12.0094C4.51688 12.5358 5.14191 12.9535 5.82979 13.2384C6.51768 13.5233 7.25495 13.67 7.99951 13.67C9.50322 13.67 10.9453 13.0726 12.0086 12.0094C13.0719 10.9461 13.6693 9.50395 13.6693 8.00024C13.6693 6.49653 13.0719 5.05441 12.0086 3.99113C10.9453 2.92785 9.50322 2.3305 7.99951 2.3305ZM0.999512 8.00024C0.999512 7.08099 1.18057 6.17074 1.53235 5.32146C1.88414 4.47218 2.39975 3.70051 3.04976 3.0505C3.69977 2.40049 4.47145 1.88487 5.32073 1.53309C6.17001 1.1813 7.08026 1.00024 7.99951 1.00024C8.91876 1.00024 9.82902 1.1813 10.6783 1.53309C11.5276 1.88487 12.2992 2.40049 12.9493 3.0505C13.5993 3.70051 14.1149 4.47218 14.4667 5.32146C14.8185 6.17074 14.9995 7.08099 14.9995 8.00024C14.9995 9.85676 14.262 11.6372 12.9493 12.95C11.6365 14.2627 9.85603 15.0002 7.99951 15.0002C6.143 15.0002 4.36252 14.2627 3.04976 12.95C1.73701 11.6372 0.999512 9.85676 0.999512 8.00024Z"/>
    </symbol>
    <symbol id="search3" viewBox="0 0 16 16">
      <title>Help circle</title>
      <path fill-rule="evenodd" d="m8.1842 5.1102c-0.33855-0.05808-0.68676 0.00555-0.98291 0.1796-0.29615 0.17405-0.52109 0.44729-0.63513 0.77133-0.13327 0.3789-0.54848 0.57801-0.92738 0.44472-0.3789-0.13329-0.57801-0.54849-0.44472-0.9274 0.22799-0.64808 0.67797-1.1946 1.2703-1.5426 0.59232-0.34809 1.2887-0.47534 1.9658-0.35919 0.67716 0.11615 1.2914 0.46818 1.7337 0.99377 0.44232 0.52547 0.68451 1.1905 0.68357 1.8774-3.64e-4 1.113-0.82553 1.848-1.4148 2.2409-0.3168 0.2112-0.62844 0.36648-0.85804 0.46851-0.11585 0.051495-0.21338 0.09054-0.28364 0.11732-0.035201 0.0135-0.06371 0.023775-0.084509 0.0312l-0.025236 0.00885-0.00807 0.0027-0.00283 0.00102-0.00109 3.63e-4s-9.454e-4 2.91e-4 -0.23091-0.68967l0.22996 0.68997c-0.38102 0.12698-0.79288-0.078916-0.91993-0.46001-0.12698-0.38088 0.078764-0.79266 0.45957-0.91979l0.01128-0.0039c0.011205-0.00405 0.029528-0.01065 0.053964-0.019995 0.049019-0.01869 0.12196-0.04779 0.21069-0.087196 0.17949-0.079785 0.41331-0.19724 0.64197-0.34968 0.50153-0.33432 0.76706-0.69003 0.76706-1.0312v-0.00108c4.963e-4 -0.34354-0.12059-0.67615-0.34176-0.93894-0.22124-0.2628-0.52836-0.43881-0.86692-0.49688zm-0.91499 6.5277c0-0.40167 0.32561-0.72728 0.72728-0.72728h0.00727c0.40167 0 0.72728 0.32561 0.72728 0.72728 0 0.40167-0.32561 0.72728-0.72728 0.72728h-0.00727c-0.40167 0-0.72728-0.32561-0.72728-0.72728z" clip-rule="evenodd"/>
      <path fill-rule="evenodd" d="m8 1.4546c-3.615 0-6.5454 2.9306-6.5454 6.5454 0 3.615 2.9306 6.5454 6.5454 6.5454 3.615 0 6.5454-2.9304 6.5454-6.5454 0-3.615-2.9304-6.5454-6.5454-6.5454zm-8 6.5454c0-4.4183 3.5817-8 8-8 4.4183 0 8 3.5817 8 8 0 4.4183-3.5817 8-8 8-4.4183 0-8-3.5817-8-8z" clip-rule="evenodd"/>
    </symbol>
    <symbol id="plus" viewBox="0 0 16 16">
      <title>Plus</title>
      <path d="M7.99967 2.5835C8.41389 2.5835 8.74967 2.91928 8.74967 3.3335V7.25016H12.6663C13.0806 7.25016 13.4163 7.58595 13.4163 8.00016C13.4163 8.41438 13.0806 8.75016 12.6663 8.75016H8.74967V12.6668C8.74967 13.081 8.41389 13.4168 7.99967 13.4168C7.58546 13.4168 7.24967 13.081 7.24967 12.6668V8.75016H3.33301C2.91879 8.75016 2.58301 8.41438 2.58301 8.00016C2.58301 7.58595 2.91879 7.25016 3.33301 7.25016H7.24967V3.3335C7.24967 2.91928 7.58546 2.5835 7.99967 2.5835Z"/>
    </symbol>
    <symbol id="overview" viewBox="0 0 24 24">
      <path fill-rule="evenodd" clip-rule="evenodd" d="M7.904 6.137a1 1 0 011-1h13a1 1 0 110 2h-13a1 1 0 01-1-1zM7.904 12.137a1 1 0 011-1h13a1 1 0 110 2h-13a1 1 0 01-1-1zM7.904 18.137a1 1 0 011-1h13a1 1 0 110 2h-13a1 1 0 01-1-1zM2.904 6.137a1 1 0 011-1h.01a1 1 0 110 2h-.01a1 1 0 01-1-1zM2.904 12.137a1 1 0 011-1h.01a1 1 0 110 2h-.01a1 1 0 01-1-1zM2.904 18.137a1 1 0 011-1h.01a1 1 0 110 2h-.01a1 1 0 01-1-1z" />
    </symbol>
    <symbol id="epics" viewBox="0 0 24 24">
      <path fill-rule="evenodd" clip-rule="evenodd" d="M12.01 3c.274 0 .524.155.647.4l5.683 11.358.007.014 2.576 5.15a.724.724 0 01-.646 1.048L3.725 21a.724.724 0 01-.648-1.048L6.6 12.91a.473.473 0 01.006-.011L11.362 3.4a.724.724 0 01.647-.4zM7.552 14.245L4.897 19.55l14.208-.027-1.948-3.891-3.944-1.94-3.006 1.696a.724.724 0 01-.723-.006l-1.931-1.137zm8.533-.754L12.01 5.342l-3.807 7.605 1.657.975 2.974-1.68a.725.725 0 01.676-.02l2.577 1.269z" />
    </symbol>
    <symbol id="scrum" viewBox="0 0 24 24">
      <path d="M12.344 5.32a7.458 7.458 0 00-5.4 2.264 7.506 7.506 0 00-2.061 4.266c-.102.784-.098 1.691-.074 2.38.004.117.01.185.015.29l-.57-.57a.762.762 0 00-1.078 1.077l1.855 1.856a.762.762 0 001.078 0l1.797-1.797a.762.762 0 00-1.078-1.078l-.48.48c-.006-.11-.012-.185-.016-.31-.023-.664-.02-1.473.064-2.133a5.975 5.975 0 011.64-3.399 5.937 5.937 0 013.341-1.73 5.896 5.896 0 013.7.629 5.923 5.923 0 012.575 2.738 5.974 5.974 0 01-1.498 7.002c-.553.483-.964.827-1.455 1.067-.472.23-1.06.38-1.959.38a.768.768 0 00-.12.012.773.773 0 00-.052-.002H3.207a.763.763 0 100 1.525h9.361a.76.76 0 00.137-.013c.012 0 .023.004.035.004 1.087 0 1.91-.189 2.625-.537.697-.34 1.251-.814 1.793-1.288a7.499 7.499 0 002.4-4.082 7.497 7.497 0 00-.52-4.707 7.445 7.445 0 00-6.694-4.324zm7.092 13.422a.763.763 0 100 1.525h2.2a.763.763 0 000-1.525h-2.2z" />
    </symbol>
    <symbol id="kanban" viewBox="0 0 24 24">
      <path d="M6.553 3.031c-1.508 0-2.664 1.268-2.664 2.748v12.504c0 1.481 1.156 2.748 2.664 2.748h12.672c1.507 0 2.664-1.267 2.664-2.748V5.78c0-1.48-1.157-2.748-2.664-2.748H6.553zm0 1.705H9.32v14.588H6.553c-.493 0-.96-.428-.96-1.04V5.778c0-.613.467-1.043.96-1.043zm4.472 0h3.727v14.588h-3.727V4.736zm5.432 0h2.768c.492 0 .959.43.959 1.043v12.504c0 .613-.467 1.041-.96 1.041h-2.767V4.736z" />
    </symbol>
    <symbol id="issues" viewBox="0 0 24 24">
      <path fill-rule="evenodd" clip-rule="evenodd" d="M7.464 4.5c-.23 0-.469.1-.657.307-.19.21-.307.508-.307.832v13.116l5.072-3.767a.75.75 0 01.928 0l5 3.767V5.639c0-.324-.118-.622-.308-.832a.889.889 0 00-.656-.307H7.464zm-1.767-.7c.455-.502 1.089-.8 1.767-.8h9.072c.678 0 1.312.298 1.767.8.453.498.697 1.161.697 1.839v14.66a.75.75 0 01-1.214.59l-5.75-4.357-5.822 4.357A.75.75 0 015 20.299V5.64c0-.678.244-1.34.697-1.84z" />
    </symbol>
    <symbol id="wiki" viewBox="0 0 24 24">
      <path fill-rule="evenodd" clip-rule="evenodd" d="M2 4.69388C2 4.31066 2.33164 4 2.74074 4H8.2963C9.47504 4 10.6055 4.43863 11.439 5.21939C11.65 5.417 11.8375 5.63243 12 5.86191C12.1625 5.63243 12.35 5.417 12.561 5.21939C13.3945 4.43863 14.525 4 15.7037 4H21.2593C21.6684 4 22 4.31066 22 4.69388V17.7041C22 18.0873 21.6684 18.398 21.2593 18.398H14.7778C14.2375 18.398 13.7194 18.599 13.3374 18.9568C12.9554 19.3147 12.7407 19.8 12.7407 20.3061C12.7407 20.6893 12.4091 21 12 21C11.5909 21 11.2593 20.6893 11.2593 20.3061C11.2593 19.8 11.0446 19.3147 10.6626 18.9568C10.2806 18.599 9.76248 18.398 9.22222 18.398H2.74074C2.33164 18.398 2 18.0873 2 17.7041V4.69388ZM11.2593 17.6187C10.668 17.2255 9.95696 17.0102 9.22222 17.0102H3.48148V5.38776H8.2963C9.08212 5.38776 9.83576 5.68017 10.3914 6.20068C10.9471 6.72119 11.2593 7.42715 11.2593 8.16327V17.6187ZM12.7407 17.6187C13.332 17.2255 14.043 17.0102 14.7778 17.0102H20.5185V5.38776H15.7037C14.9179 5.38776 14.1642 5.68017 13.6086 6.20068C13.0529 6.72119 12.7407 7.42715 12.7407 8.16327V17.6187Z" />
    </symbol>
    <symbol id="wiki" viewBox="0 0 24 24">
      <path d="M5.236 5.25C3.956 5.25 3 6.347 3 7.596v8.158c0 1.248.955 2.346 2.236 2.346h8.377c1.281 0 2.237-1.098 2.237-2.346v-2.772l5.05 3.247a.714.714 0 001.1-.6V7.72a.714.714 0 00-1.1-.6l-5.05 3.246V7.596c0-1.249-.956-2.346-2.237-2.346H5.236zm0 1.428h8.377c.402 0 .809.364.809.918V15.754c0 .554-.408.918-.809.918H5.236c-.4 0-.808-.364-.808-.918V7.596c0-.554.407-.918.808-.918zm15.336 2.351v5.291l-4.117-2.644 4.117-2.647z" />
    </symbol>
    <symbol id="meetup" viewBox="0 0 24 24">
      <path d="M5.236 5.25C3.956 5.25 3 6.347 3 7.596v8.158c0 1.248.955 2.346 2.236 2.346h8.377c1.281 0 2.237-1.098 2.237-2.346v-2.772l5.05 3.247a.714.714 0 001.1-.6V7.72a.714.714 0 00-1.1-.6l-5.05 3.246V7.596c0-1.249-.956-2.346-2.237-2.346H5.236zm0 1.428h8.377c.402 0 .809.364.809.918V15.754c0 .554-.408.918-.809.918H5.236c-.4 0-.808-.364-.808-.918V7.596c0-.554.407-.918.808-.918zm15.336 2.351v5.291l-4.117-2.644 4.117-2.647z" />
    </symbol>
    <symbol id="team" viewBox="0 0 24 24">
      <path fill-rule="evenodd" clip-rule="evenodd" d="M3.83 15.61a4.023 4.023 0 012.845-1.179h6.545a4.023 4.023 0 014.023 4.023v1.409a.75.75 0 11-1.5 0v-1.409a2.523 2.523 0 00-2.523-2.523H6.675a2.523 2.523 0 00-2.523 2.523v1.409a.75.75 0 11-1.5 0v-1.409c0-1.067.424-2.09 1.178-2.844zM9.947 6.113a2.523 2.523 0 100 5.045 2.523 2.523 0 000-5.045zM5.925 8.636a4.023 4.023 0 118.045 0 4.023 4.023 0 01-8.045 0zM18.221 15.1a.75.75 0 01.914-.538 4.023 4.023 0 013.017 3.891v1.41a.75.75 0 01-1.5 0v-1.409a2.523 2.523 0 00-1.892-2.44.75.75 0 01-.539-.914zM14.948 5.283a.75.75 0 01.913-.54 4.023 4.023 0 010 7.794.75.75 0 01-.372-1.453 2.523 2.523 0 000-4.888.75.75 0 01-.541-.913z" />
    </symbol>
    <symbol id="settings" viewBox="0 0 24 24">
      <path fill-rule="evenodd" clip-rule="evenodd" d="M12.402 10.909a1.705 1.705 0 100 3.41 1.705 1.705 0 000-3.41zm-3.205 1.704a3.205 3.205 0 116.41 0 3.205 3.205 0 01-6.41 0z" />
      <path fill-rule="evenodd" clip-rule="evenodd" d="M12.402 4.363a.886.886 0 00-.886.887V5.392a2.1 2.1 0 01-1.273 1.922.75.75 0 01-.205.055 2.1 2.1 0 01-2.17-.479l-.006-.005-.049-.05a.889.889 0 00-1.447.967c.044.108.11.206.192.288l.055.055a2.1 2.1 0 01.43 2.295 2.1 2.1 0 01-1.914 1.352h-.091a.886.886 0 000 1.773h.142a2.1 2.1 0 011.92 1.27 2.1 2.1 0 01-.421 2.312l-.006.006-.049.049a.888.888 0 101.255 1.255l.055-.055a2.099 2.099 0 012.294-.43 2.1 2.1 0 011.353 1.914v.091a.886.886 0 001.773 0V19.835a2.1 2.1 0 011.269-1.92 2.1 2.1 0 012.312.421l.006.006.05.05a.888.888 0 101.255-1.255l-.056-.056a2.1 2.1 0 01-.421-2.312 2.1 2.1 0 011.92-1.27h.076a.886.886 0 100-1.772H19.623a2.1 2.1 0 01-1.921-1.273.752.752 0 01-.056-.205 2.1 2.1 0 01.479-2.17l.006-.005.049-.05a.889.889 0 00-.967-1.447.886.886 0 00-.288.193l-.055.055a2.1 2.1 0 01-2.313.421 2.1 2.1 0 01-1.269-1.92V5.25a.886.886 0 00-.886-.887zm6.054 10.705l.686.303a.6.6 0 00.118.66l.045.044a2.386 2.386 0 01-1.687 4.076 2.387 2.387 0 01-1.689-.7l-.045-.045a.6.6 0 00-.66-.117l-.007.003a.6.6 0 00-.363.547v.138a2.386 2.386 0 11-4.773 0v-.063a.6.6 0 00-.393-.542.7.7 0 01-.044-.018.6.6 0 00-.659.118l-.045.045a2.388 2.388 0 11-3.376-3.376l.045-.045a.6.6 0 00.118-.66l-.004-.007a.6.6 0 00-.548-.364h-.137a2.386 2.386 0 110-4.773h.063a.601.601 0 00.542-.392.748.748 0 01.018-.044.6.6 0 00-.118-.66l-.045-.045A2.389 2.389 0 018.1 5.257c.29.12.552.296.774.518l.046.045a.6.6 0 00.659.118.75.75 0 01.162-.05.6.6 0 00.274-.501V5.25a2.386 2.386 0 114.773 0v.072a.6.6 0 00.364.547l.007.004a.6.6 0 00.66-.118l.045-.045a2.386 2.386 0 014.076 1.687 2.388 2.388 0 01-.7 1.688l-.045.046a.6.6 0 00-.118.66.75.75 0 01.05.161.601.601 0 00.501.275h.137a2.386 2.386 0 110 4.773h-.071a.6.6 0 00-.548.363l-.69-.295z" />
    </symbol>

    <symbol id="collapse-right" viewBox="0 0 16 16">
      <path d="M2.5 2.666c-.368 0-.666.3-.666.668v9.332a.667.667 0 101.332 0V3.334a.667.667 0 00-.666-.668zM11.166 4a.667.667 0 00-.47 1.139l2.195 2.195H6.5a.666.666 0 100 1.332h6.39l-2.195 2.195a.667.667 0 00.944.944L14.97 8.47a.697.697 0 00.043-.047.643.643 0 00.039-.05l.004-.007a.632.632 0 00.029-.049l.004-.007a.663.663 0 00.023-.051l.004-.01.002-.004a.644.644 0 00.033-.111l.002-.008a.665.665 0 00-.015-.316l-.002-.008a.73.73 0 00-.02-.053l-.004-.01a.655.655 0 00-.023-.05l-.002-.003-.002-.005a.648.648 0 00-.03-.05l-.001-.001-.002-.004a.653.653 0 00-.035-.047l-.004-.004a.662.662 0 00-.043-.047l-3.332-3.334A.668.668 0 0011.166 4z" />
    </symbol>

    <symbol id="collapse-left" viewBox="0 0 16 16">
      <path d="M14.001 2.666c.368 0 .666.3.666.668v9.332a.667.667 0 11-1.332 0V3.334c0-.368.298-.668.666-.668zM5.335 4a.667.667 0 01.47 1.139L3.61 7.334h6.391a.666.666 0 110 1.332h-6.39l2.195 2.195a.667.667 0 01-.944.944L1.53 8.47a.691.691 0 01-.043-.047.638.638 0 01-.072-.105l-.004-.008a.682.682 0 01-.023-.051l-.004-.01-.002-.004a.657.657 0 01-.033-.111l-.002-.008a.666.666 0 01.015-.316l.002-.008a.694.694 0 01.02-.053l.004-.01a.666.666 0 01.023-.05l.002-.003.002-.005a.658.658 0 01.03-.05l.001-.001.002-.004a.673.673 0 01.035-.047l.004-.004a.666.666 0 01.043-.047l3.332-3.334A.667.667 0 015.335 4z" />
    </symbol>

    <symbol id="chevron-right" viewBox="0 0 16 16">
      <path d="M4.937 13.247a.86.86 0 010-1.22L8.987 8l-4.05-4.026a.86.86 0 010-1.22.872.872 0 011.229 0l4.663 4.635a.86.86 0 010 1.221l-4.663 4.637a.872.872 0 01-1.229 0z" />
    </symbol>

    <symbol id="chevron-left" viewBox="0 0 16 16">
      <path d="M10.733 13.282a.865.865 0 000-1.224L6.675 8l4.058-4.057a.865.865 0 10-1.224-1.224L4.84 7.39a.865.865 0 000 1.223l4.67 4.67a.865.865 0 001.224 0z" />
    </symbol>

    <symbol id="chevron-down" viewBox="0 0 16 16">
      <path d="M2.764 5.064a.9.9 0 011.273 0l3.962 3.963 3.963-3.963a.9.9 0 111.273 1.273l-4.6 4.599a.9.9 0 01-1.272 0L2.764 6.337a.9.9 0 010-1.273z" />
    </symbol>

    <symbol id="chevron-up" viewBox="0 0 16 16">
      <path fill-rule="evenodd" d="M5.8 15.2c.4.4 1 .4 1.4 0l5.3-5.3 5.3 5.3a1 1 0 0 0 1.4-1.4l-6-6a1 1 0 0 0-1.4 0l-6 6a1 1 0 0 0 0 1.4Z" clip-rule="evenodd"/>
    </symbol>

    <symbol id="arrow-left" viewBox="0 0 16 16">
      <path fill-rule="evenodd" d="M9 2.71a.72.72 0 00-1 0L3.2 7.5a.72.72 0 000 1.01L8 13.3a.72.72 0 001-1.02L5.46 8.72h7.83a.72.72 0 100-1.43H5.45L9 3.73a.72.72 0 000-1.02z" clip-rule="evenodd"/>
    </symbol>

    <symbol id="arrow-right" viewBox="0 0 16 16">
      <path fill-rule="evenodd" d="m7.544 2.71a0.72 0.72 0 0 1 1 0l4.8 4.79a0.72 0.72 0 0 1 0 1.01l-4.8 4.79a0.72 0.72 0 0 1-1-1.02l3.54-3.56h-7.83a0.72 0.72 0 1 1 0-1.43h7.84l-3.55-3.56a0.72 0.72 0 0 1 0-1.02z" clip-rule="evenodd"/>
    </symbol>

    <symbol id="user" viewBox="0 0 16 16">
      <path d="M6.00901 3.01477C5.74703 3.00886 5.48652 3.05536 5.24276 3.15153C4.999 3.2477 4.77692 3.39161 4.58955 3.5748C4.40218 3.75799 4.2533 3.97677 4.15166 4.2183C4.05002 4.45982 3.99766 4.71923 3.99766 4.98127C3.99766 5.24331 4.05002 5.50271 4.15166 5.74424C4.2533 5.98576 4.40218 6.20455 4.58955 6.38774C4.77692 6.57093 4.999 6.71484 5.24276 6.81101C5.48652 6.90718 5.74703 6.95368 6.00901 6.94777C6.52288 6.93618 7.0118 6.72391 7.37113 6.35638C7.73046 5.98885 7.93166 5.49527 7.93166 4.98127C7.93166 4.46727 7.73046 3.97369 7.37113 3.60616C7.0118 3.23863 6.52288 3.02636 6.00901 3.01477ZM2.64201 4.98077C2.64201 4.53861 2.7291 4.10078 2.8983 3.69227C3.06751 3.28377 3.31552 2.91259 3.62818 2.59994C3.94083 2.28728 4.31201 2.03927 4.72051 1.87007C5.12902 1.70086 5.56685 1.61377 6.00901 1.61377C6.45117 1.61377 6.889 1.70086 7.2975 1.87007C7.70601 2.03927 8.07718 2.28728 8.38984 2.59994C8.70249 2.91259 8.9505 3.28377 9.11971 3.69227C9.28892 4.10078 9.37602 4.53861 9.37602 4.98077C9.37602 5.87375 9.02127 6.73016 8.38984 7.3616C7.7584 7.99303 6.90199 8.34777 6.00901 8.34777C5.11602 8.34777 4.25961 7.99303 3.62818 7.3616C2.99674 6.73016 2.64201 5.87375 2.64201 4.98077ZM9.99902 2.22777C10.0449 2.04799 10.1604 1.89381 10.32 1.79912C10.4795 1.70442 10.6702 1.67696 10.85 1.72277C11.574 1.9084 12.2157 2.32966 12.6739 2.92016C13.1321 3.51067 13.3808 4.23684 13.3808 4.98427C13.3808 5.73169 13.1321 6.45787 12.6739 7.04837C12.2157 7.63888 11.574 8.06013 10.85 8.24577C10.6717 8.28745 10.4841 8.2576 10.3276 8.16262C10.171 8.06763 10.0579 7.91508 10.0125 7.73768C9.96714 7.56028 9.99306 7.37215 10.0847 7.21364C10.1764 7.05513 10.3266 6.93886 10.503 6.88977C10.9256 6.78107 11.3001 6.53491 11.5675 6.19003C11.8349 5.84516 11.98 5.42116 11.98 4.98477C11.98 4.54838 11.8349 4.12437 11.5675 3.7795C11.3001 3.43463 10.9256 3.18847 10.503 3.07977C10.3232 3.03361 10.1691 2.91792 10.0746 2.75814C9.98006 2.59837 9.95288 2.40758 9.99902 2.22777ZM1.50016 10.5814C2.13142 9.95028 2.98748 9.59563 3.88016 9.59546H8.19767C9.0903 9.59572 9.94628 9.95043 10.5775 10.5816C11.2087 11.2128 11.5634 12.0688 11.5637 12.9614V14.2954C11.5637 14.4811 11.4899 14.6591 11.3587 14.7904C11.2274 14.9217 11.0493 14.9954 10.8637 14.9954C10.678 14.9954 10.5 14.9217 10.3687 14.7904C10.2374 14.6591 10.1637 14.4811 10.1637 14.2954V12.9614C10.1634 12.4401 9.95618 11.9402 9.58758 11.5715C9.21892 11.2029 8.719 10.9957 8.19767 10.9954H3.88016C3.35882 10.9957 2.85892 11.2029 2.49028 11.5715C2.12164 11.9402 1.91442 12.4401 1.91416 12.9614V14.2954C1.91416 14.4811 1.84041 14.6591 1.70913 14.7904C1.57786 14.9217 1.39981 14.9954 1.21416 14.9954C1.02851 14.9954 0.850461 14.9217 0.719185 14.7904C0.58791 14.6591 0.51416 14.4811 0.51416 14.2954V12.9614C0.51416 12.0694 0.86816 11.2124 1.50016 10.5814ZM12.109 10.2075C12.1554 10.0278 12.2712 9.87395 12.4309 9.77963C12.5907 9.68532 12.7813 9.65828 12.961 9.70445C13.6833 9.89082 14.3232 10.3118 14.7802 10.9013C15.2372 11.4909 15.4855 12.2155 15.486 12.9614V14.2954C15.486 14.4811 15.4122 14.6591 15.281 14.7904C15.1497 14.9217 14.9716 14.9954 14.786 14.9954C14.6003 14.9954 14.4223 14.9217 14.291 14.7904C14.1597 14.6591 14.086 14.4811 14.086 14.2954V12.9624C14.0858 12.5266 13.9409 12.1032 13.6739 11.7587C13.4069 11.4143 13.033 11.1683 12.611 11.0594C12.4316 11.0128 12.2779 10.897 12.1838 10.7372C12.0897 10.5775 12.0628 10.387 12.109 10.2075Z"/>
    </symbol>

    <symbol id="arrow-up-right" viewBox="0 0 16 16">
      <path fill-rule="evenodd" d="M3.25024 4.5C2.83603 4.5 2.50024 4.16421 2.50024 3.75C2.50024 3.33579 2.83603 3 3.25024 3H12.7502C13.1645 3 13.5002 3.33579 13.5002 3.75V13.25C13.5002 13.6642 13.1645 14 12.7502 14C12.336 14 12.0002 13.6642 12.0002 13.25V5.56066L3.78057 13.7803C3.48768 14.0732 3.01281 14.0732 2.71991 13.7803C2.42702 13.4874 2.42702 13.0126 2.71991 12.7197L10.9396 4.5H3.25024Z" clip-rule="evenodd"/>
    </symbol>

    <symbol id="warning" viewBox="0 0 16 16">
      <path fill-rule="evenodd" clip-rule="evenodd" d="M5.32788 2.18799C5.44824 2.06762 5.61149 2 5.78172 2H10.2183C10.3885 2 10.5518 2.06762 10.6721 2.18799L13.812 5.32788C13.9324 5.44824 14 5.61149 14 5.78172V10.2183C14 10.3885 13.9324 10.5518 13.812 10.6721L10.6721 13.812C10.5518 13.9324 10.3885 14 10.2183 14H5.78172C5.61149 14 5.44824 13.9324 5.32788 13.812L2.18799 10.6721C2.06762 10.5518 2 10.3885 2 10.2183V5.78172C2 5.61149 2.06762 5.44824 2.18799 5.32788L5.32788 2.18799ZM8 4.5C8.35447 4.5019 8.64028 4.79079 8.63839 5.14525L8.64455 6.72214L8.64895 8.49295C8.64895 8.84743 8.3616 9.13478 8.00712 9.13478C7.65265 9.13478 7.36529 8.84743 7.36529 8.49295L7.36089 6.71702L7.35475 5.13839C7.35664 4.78392 7.64553 4.4981 8 4.5ZM8 10.5224C8.35447 10.5224 8.64183 10.8098 8.64183 11.1643V11.1764C8.64183 11.5308 8.35447 11.8182 8 11.8182C7.64553 11.8182 7.35817 11.5308 7.35817 11.1764V11.1643C7.35817 10.8098 7.64553 10.5224 8 10.5224Z" />
    </symbol>

    <symbol id="empty" viewBox="0 0 24 24">
      <path fill-rule="evenodd" d="M12 .88c.62 0 1.13.5 1.13 1.12v4a1.13 1.13 0 01-2.26 0V2c0-.62.5-1.13 1.13-1.13zM4.13 4.13a1.12 1.12 0 011.6 0l2.83 2.83a1.12 1.12 0 11-1.6 1.6L4.13 5.73a1.12 1.12 0 010-1.6zm15.74 0c.43.44.43 1.16 0 1.6l-2.83 2.83a1.13 1.13 0 01-1.6-1.6l2.83-2.83a1.13 1.13 0 011.6 0zM.87 12c0-.62.5-1.13 1.13-1.13h4a1.13 1.13 0 010 2.26H2c-.62 0-1.13-.5-1.13-1.13zm16 0c0-.62.5-1.13 1.13-1.13h4a1.13 1.13 0 010 2.26h-4c-.62 0-1.13-.5-1.13-1.13zm-8.31 3.44c.43.44.43 1.16 0 1.6l-2.83 2.83a1.13 1.13 0 01-1.6-1.6l2.83-2.83a1.13 1.13 0 011.6 0zm6.88 0a1.13 1.13 0 011.6 0l2.83 2.83a1.13 1.13 0 01-1.6 1.6l-2.83-2.83a1.12 1.12 0 010-1.6zM12 16.88c.62 0 1.13.5 1.13 1.12v4a1.13 1.13 0 01-2.26 0v-4c0-.62.5-1.13 1.13-1.13z" clip-rule="evenodd"/>
    </symbol>

    <symbol id="template" viewBox="0 0 24 24">
      <path fill-rule="evenodd" d="M5 4a1 1 0 00-1 1v3h16V5a1 1 0 00-1-1H5zm17 1a3 3 0 00-3-3H5a3 3 0 00-3 3v14a3 3 0 003 3h14a3 3 0 003-3V5zm-2 5H10v10h9a1 1 0 001-1v-9zM8 20V10H4v9a1 1 0 001 1h3z" clip-rule="evenodd"/>
    </symbol>

    <symbol id="import" viewBox="0 0 16 16">
      <path fill-rule="evenodd" d="M1.86 1.86c.4-.4.92-.61 1.47-.61h9.34a2.08 2.08 0 012.08 2.08V6a.75.75 0 01-1.5 0V3.33a.58.58 0 00-.58-.58H3.33a.58.58 0 00-.58.58V6a.75.75 0 01-1.5 0V3.33c0-.55.22-1.08.61-1.47zm5.61 3.61c.3-.3.77-.3 1.06 0l3.33 3.33a.75.75 0 11-1.06 1.06L8.75 7.81V14a.75.75 0 01-1.5 0V7.81L5.2 9.86A.75.75 0 114.14 8.8l3.33-3.33z" clip-rule="evenodd"/>
    </symbol>

    <symbol id="copy" viewBox="0 0 16 16">
      <path fill-rule="evenodd" d="M2.67 2.08a.58.58 0 00-.59.59v6a.58.58 0 00.59.58h.66a.75.75 0 010 1.5h-.66A2.08 2.08 0 01.58 8.67v-6A2.08 2.08 0 012.67.58h6a2.08 2.08 0 012.08 2.09v.66a.75.75 0 01-1.5 0v-.66a.58.58 0 00-.58-.59h-6zm4.66 4.67a.58.58 0 00-.58.58v6c0 .33.26.59.58.59h6c.33 0 .59-.26.59-.59v-6a.58.58 0 00-.59-.58h-6zm-2.08.58c0-1.15.93-2.08 2.08-2.08h6c1.15 0 2.09.93 2.09 2.08v6c0 1.15-.94 2.09-2.09 2.09h-6a2.08 2.08 0 01-2.08-2.09v-6z" clip-rule="evenodd"/>
    </symbol>
    <symbol id="close" viewBox="0 0 16 16">
      <path fill-rule="evenodd" clip-rule="evenodd" d="M2.548 2.549a.849.849 0 0 1 1.2 0L8 6.799l4.251-4.25a.849.849 0 0 1 1.2 1.2L9.2 8l4.25 4.25a.849.849 0 0 1-1.2 1.201L8 9.201l-4.251 4.25a.849.849 0 0 1-1.201-1.2L6.798 8l-4.25-4.252a.849.849 0 0 1 0-1.2Z" />
    </symbol>
    <symbol id="more-vertical" viewBox="0 0 16 16">
      <path fill-rule="evenodd" d="M8 8.368a.368.368 0 100-.736.368.368 0 000 .736zM6.158 8a1.842 1.842 0 113.684 0 1.842 1.842 0 01-3.684 0zM8 3.21a.368.368 0 100-.736.368.368 0 000 .736zm-1.842-.368a1.842 1.842 0 113.684 0 1.842 1.842 0 01-3.684 0zM8 13.526a.368.368 0 100-.737.368.368 0 000 .737zm-1.842-.368a1.842 1.842 0 113.684 0 1.842 1.842 0 01-3.684 0z" clip-rule="evenodd"/>
    </symbol>
  </defs>
</svg>



