<svg xmlns="http://www.w3.org/2000/svg">
  <title>Taiga.io icons set</title>
  <desc>Taiga is the project management tool for multi-functional agile teams.</desc>
  <defs>
    <symbol id="taiga-logo" viewBox="0 0 48 48">
      <title>Taiga Logo</title>
      <path d="M37.24 7.42a31.98 31.98 0 00-4.19.2 9.53 9.53 0 01.6 2.78 17.59 17.59 0 013.53-.22c.42 0 .8.02 1.13.04.04.67.08 1.58.06 2.56 0 .7-.08 1.4-.18 2.08l.75.07c.75.1 1.42.28 2.05.5.1-.87.13-1.76.15-2.6.04-2.2-.18-4.06-.18-4.06l-.12-1.1-1.1-.12s-1.05-.1-2.5-.13zm-26.55 0c-1.46.03-2.5.14-2.5.14l-1.11.12-.13 1.1s-.2 1.85-.16 4.06c.02.86.06 1.77.17 2.68a9.53 9.53 0 012.8-.58c-.11-.7-.19-1.44-.2-2.16-.03-.98.01-1.88.05-2.55a33.07 33.07 0 012.57-.04c.65.02 1.32.09 1.97.18a9.5 9.5 0 01.58-2.78 26.56 26.56 0 00-4.04-.17zm30.24 26.3a9.57 9.57 0 01-2.78.6c.12.76.2 1.57.23 2.36.02.97-.02 1.87-.06 2.54-.68.03-1.58.05-2.57 0-.68-.02-1.37-.1-2.04-.2l-.06.61c-.1.8-.3 1.51-.54 2.17a34.17 34.17 0 006.63.1l1.11-.11.13-1.11s.2-1.86.16-4.06c-.02-.93-.06-1.92-.2-2.9zM7 33.9a34.17 34.17 0 00-.05 6.76l.11 1.11 1.12.12a33.79 33.79 0 006.75-.08 9.55 9.55 0 01-.63-2.78c-.7.1-1.44.2-2.15.22-.98.03-1.87 0-2.54-.03a31.7 31.7 0 01-.04-2.57c.02-.73.11-1.48.22-2.2a9.53 9.53 0 01-2.8-.56zM23.88.71l-.86.7S21.58 2.6 20.07 4.2c-1.51 1.6-3.2 3.54-3.5 5.84-.3 2.28.42 4.74 1.44 7.05.75-.61 1.56-1.15 2.42-1.56-.78-1.98-1.28-3.9-1.12-5.13.12-.92 1.4-2.85 2.77-4.3a31.3 31.3 0 011.83-1.78c.5.44 1.17 1.06 1.85 1.77 1.4 1.44 2.7 3.36 2.84 4.28.25 1.79-.06 3.53-.74 5.3.84.42 1.63.97 2.34 1.6.97-2.29 1.5-4.7 1.13-7.28-.32-2.3-2.04-4.23-3.57-5.82-1.54-1.6-3-2.76-3-2.76l-.88-.69zm13.48 16.5c-1.89.06-3.86.69-5.73 1.52.62.74 1.15 1.55 1.56 2.41 1.98-.78 3.9-1.28 5.13-1.12.92.12 2.85 1.41 4.3 2.78.7.66 1.32 1.32 1.77 1.81a31.6 31.6 0 01-1.79 1.85c-1.46 1.38-3.4 2.68-4.34 2.81-1.75.24-3.46-.06-5.19-.7-.42.83-.97 1.62-1.6 2.33 2.25.94 4.63 1.45 7.16 1.11 2.3-.31 4.26-2.02 5.87-3.54a34.17 34.17 0 002.8-2.99l.7-.87-.7-.87s-1.18-1.45-2.79-2.96c-1.6-1.5-3.53-3.2-5.83-3.5a8.35 8.35 0 00-1.32-.06zm-26.65.06c-.48 0-.96.04-1.45.11-2.3.32-4.22 2.05-5.82 3.58-1.59 1.53-2.75 3-2.75 3l-.69.87.7.86s1.17 1.45 2.78 2.96c1.6 1.5 3.54 3.2 5.84 3.5 2.27.3 4.73-.42 7.05-1.45a11.32 11.32 0 01-1.56-2.42c-1.99.79-3.9 1.29-5.13 1.13-.93-.12-2.86-1.41-4.3-2.78a31.29 31.29 0 01-1.79-1.82c.45-.5 1.06-1.18 1.77-1.86 1.44-1.39 3.36-2.7 4.29-2.83 1.78-.25 3.53.05 5.29.73.43-.84.97-1.62 1.6-2.33a14.23 14.23 0 00-5.83-1.25zm7.1 14.92a13.54 13.54 0 00-1.1 7.15c.3 2.31 2.02 4.26 3.54 5.87 1.52 1.62 2.98 2.8 2.98 2.8l.88.7.87-.7s1.44-1.18 2.95-2.78c1.51-1.6 3.2-3.54 3.5-5.84.3-2.27-.42-4.73-1.44-7.04-.74.61-1.55 1.15-2.42 1.56.79 1.98 1.28 3.9 1.12 5.12-.12.92-1.4 2.85-2.77 4.3-.67.71-1.32 1.33-1.82 1.78-.5-.46-1.16-1.08-1.84-1.8-1.38-1.46-2.69-3.4-2.82-4.34-.23-1.75.06-3.46.71-5.18-.84-.43-1.62-.98-2.34-1.6zM24.06 17.46a7.24 7.24 0 00-5.03 2.28 7.24 7.24 0 00-2.38 4.99 7.23 7.23 0 002.28 5.02 7.24 7.24 0 004.98 2.38 7.24 7.24 0 005.03-2.28 7.23 7.23 0 002.38-4.98 7.24 7.24 0 00-2.28-5.03 7.24 7.24 0 00-4.98-2.38zm-.03 2.77c.89 0 2.11.6 3.04 1.55.92.94 1.5 2.18 1.48 3.07 0 .88-.6 2.1-1.55 3.03a4.85 4.85 0 01-3.06 1.48c-.89 0-2.1-.6-3.03-1.55a4.85 4.85 0 01-1.5-3.06c.02-.88.61-2.1 1.56-3.03a4.85 4.85 0 013.06-1.5z"/>
    </symbol>
    <symbol id="discover" viewBox="0 0 24 24">
      <title>Discover</title>
      <path fill-rule="evenodd" d="M12.5 3.53a9 9 0 100 18 9 9 0 000-18zm-11 9a11 11 0 1122 0 11 11 0 01-22 0zm15.95-4.95a1 1 0 01.24 1.03l-2.12 6.36a1 1 0 01-.63.63l-6.36 2.12a1 1 0 01-1.27-1.27l2.12-6.36a1 1 0 01.63-.63l6.36-2.12a1 1 0 011.03.24zm-6.28 3.62L9.84 15.2l3.99-1.33 1.33-3.99-3.99 1.33z" clip-rule="evenodd"/>
    </symbol>
    <symbol id="folder" viewBox="0 0 16 16">
      <title>Folder</title>
      <path fill-rule="evenodd" d="M3 2.55a.5.5 0 00-.35.15c-.1.1-.15.22-.15.36v8.92c0 .14.05.27.15.36.09.1.22.15.35.15h10a.5.5 0 00.35-.15c.1-.1.15-.22.15-.36V5.04a.52.52 0 00-.15-.36.5.5 0 00-.35-.15H7.37a.75.75 0 01-.62-.34L5.72 2.55H3zm-1.41-.93c.37-.39.88-.6 1.41-.6h3.12c.26 0 .49.13.63.34L7.78 3H13c.53 0 1.04.22 1.41.6.38.38.59.9.59 1.44v6.94c0 .54-.21 1.06-.59 1.44-.37.38-.88.6-1.41.6H3c-.53 0-1.04-.22-1.41-.6-.38-.38-.59-.9-.59-1.44V3.06c0-.54.21-1.06.59-1.44z" clip-rule="evenodd"/>
    </symbol>
    <symbol id="bell" viewBox="0 0 16 16">
      <title>Bell</title>
      <path stroke="none" stroke-linecap="round" stroke-linejoin="round" d="M 4.2578125,9.5371094 A 0.48497349,0.48497349 0 0 0 3.8613281,10.271484 c 0.1278908,0.220498 0.3123509,0.404083 0.5332031,0.53125 0.2208364,0.127234 0.469746,0.19336 0.7246094,0.19336 0.2549075,0 0.5057942,-0.06622 0.7265625,-0.19336 0.2209261,-0.127195 0.4053584,-0.310832 0.5332031,-0.53125 A 0.48524534,0.48524534 0 1 0 5.5390625,9.7851562 c -0.042655,0.073542 -0.1042204,0.1334566 -0.1777344,0.1757813 -0.073772,0.042483 -0.1572549,0.064455 -0.2421875,0.064455 -0.084877,0 -0.1666307,-0.02205 -0.2402344,-0.064455 a 0.48497349,0.48497349 0 0 0 -0.00195,0 C 4.8033654,9.9185653 4.7437811,9.858619 4.7011719,9.7851562 A 0.48497349,0.48497349 0 0 0 4.2578125,9.5371094 Z M 5.1191406,0.33007812 c -0.9000835,0 -1.7619418,0.35770326 -2.3984375,0.99414068 -0.6364437,0.6364553 -0.9960937,1.5002695 -0.9960937,2.4003906 0,1.6279743 -0.3456841,2.6318195 -0.6679688,3.2226562 C 0.73435599,7.5381023 0.48632813,7.6855469 0.48632812,7.6855469 A 0.48497349,0.48497349 0 0 0 0.75585938,8.5742188 H 9.484375 A 0.48497349,0.48497349 0 0 0 9.7539062,7.6855469 c 0,0 -0.2480263,-0.1474363 -0.5703124,-0.7382813 C 8.8613076,6.3564206 8.5136719,5.3525577 8.5136719,3.7246094 8.5136719,2.8245343 8.1559608,1.9607183 7.5195312,1.3242188 6.8830498,0.68778399 6.0192575,0.33007812 5.1191406,0.33007812 Z m 0,0.96874998 c 0.6432832,0 1.2599452,0.2560723 1.7148438,0.7109375 0.4548504,0.4549005 0.7109375,1.0715989 0.7109375,1.7148438 0,1.7665017 0.3819955,2.9448075 0.7871093,3.6875 0.071756,0.1315497 0.08293,0.084889 0.15625,0.1914062 H 1.7519531 c 0.073321,-0.1065164 0.084494,-0.059857 0.15625,-0.1914062 0.4051154,-0.7426883 0.7871094,-1.9209743 0.7871094,-3.6875 0,-0.643279 0.2561012,-1.2599992 0.7109375,-1.7148438 C 3.8611543,1.554903 4.4759041,1.2988281 5.1191406,1.2988281 Z" transform="translate(1 1) scale(1.3125)"/>
    </symbol>
    <symbol id="search" viewBox="0 0 16 16">
      <title>Search</title>
      <path fill-rule="evenodd" d="M12.13 11.07a6.08 6.08 0 10-1.06 1.06l2.4 2.4a.75.75 0 101.06-1.06l-2.4-2.4zM2.75 7.33a4.58 4.58 0 119.17 0 5 5 0 01-1.41 3.3 4.57 4.57 0 01-7.76-3.3z" clip-rule="evenodd"/>
    </symbol>
    <symbol id="help" viewBox="0 0 16 16">
      <title>Help</title>
        <path d="M7.32298 5.66564C7.51078 5.5552 7.72444 5.4964 7.9423 5.49519C8.16016 5.49398 8.37447 5.55041 8.56348 5.65876C8.75249 5.76711 8.90948 5.92353 9.01852 6.11213C9.12757 6.30074 9.18479 6.51484 9.18439 6.7327C9.18439 7.01395 8.96585 7.31516 8.52971 7.60497C8.29871 7.75713 8.05178 7.88362 7.79332 7.98219L7.73726 8.00309C7.65375 8.03034 7.57646 8.07386 7.50986 8.13113C7.44326 8.18841 7.38866 8.25831 7.34922 8.3368C7.30978 8.4153 7.28628 8.50082 7.28008 8.58845C7.27387 8.67607 7.28509 8.76406 7.31307 8.84732C7.34106 8.93059 7.38526 9.00749 7.44313 9.07358C7.501 9.13967 7.57138 9.19364 7.65022 9.23238C7.72906 9.27112 7.81479 9.29386 7.90247 9.29928C7.99015 9.30471 8.07803 9.29271 8.16104 9.26399H8.16484L8.17149 9.26114L8.1943 9.25259C8.30346 9.21296 8.41122 9.16954 8.51736 9.12241C8.71785 9.03309 8.9915 8.89722 9.26896 8.71193C9.78396 8.36892 10.5146 7.71994 10.5156 6.73365C10.5165 6.12778 10.3029 5.54115 9.91277 5.07765C9.52259 4.61414 8.98097 4.30369 8.38382 4.20126C7.78668 4.09883 7.17255 4.21105 6.65021 4.51803C6.12788 4.82501 5.73104 5.30695 5.52999 5.87849C5.49826 5.96146 5.48348 6.04994 5.48651 6.13872C5.48954 6.22749 5.51033 6.31476 5.54764 6.39538C5.58494 6.47599 5.63802 6.54832 5.70374 6.60808C5.76945 6.66785 5.84648 6.71385 5.93026 6.74336C6.01404 6.77287 6.10288 6.78531 6.19155 6.77992C6.28022 6.77454 6.36691 6.75146 6.4465 6.71202C6.5261 6.67259 6.59699 6.61762 6.655 6.55034C6.713 6.48307 6.75694 6.40485 6.78423 6.32032C6.88099 6.04486 7.0722 5.81259 7.32393 5.66469L7.32298 5.66564ZM7.33438 11.1672C7.33438 10.9908 7.40446 10.8216 7.52919 10.6969C7.65393 10.5722 7.82311 10.5021 7.99951 10.5021H8.00616C8.18257 10.5021 8.35174 10.5722 8.47648 10.6969C8.60122 10.8216 8.67129 10.9908 8.67129 11.1672C8.67129 11.3436 8.60122 11.5128 8.47648 11.6375C8.35174 11.7623 8.18257 11.8323 8.00616 11.8323H7.99951C7.82311 11.8323 7.65393 11.7623 7.52919 11.6375C7.40446 11.5128 7.33438 11.3436 7.33438 11.1672ZM7.99951 2.3305C7.25495 2.3305 6.51768 2.47715 5.82979 2.76208C5.14191 3.04702 4.51688 3.46465 3.9904 3.99113C3.46391 4.51761 3.04628 5.14264 2.76135 5.83053C2.47642 6.51841 2.32977 7.25568 2.32977 8.00024C2.32977 8.74481 2.47642 9.48208 2.76135 10.17C3.04628 10.8578 3.46391 11.4829 3.9904 12.0094C4.51688 12.5358 5.14191 12.9535 5.82979 13.2384C6.51768 13.5233 7.25495 13.67 7.99951 13.67C9.50322 13.67 10.9453 13.0726 12.0086 12.0094C13.0719 10.9461 13.6693 9.50395 13.6693 8.00024C13.6693 6.49653 13.0719 5.05441 12.0086 3.99113C10.9453 2.92785 9.50322 2.3305 7.99951 2.3305ZM0.999512 8.00024C0.999512 7.08099 1.18057 6.17074 1.53235 5.32146C1.88414 4.47218 2.39975 3.70051 3.04976 3.0505C3.69977 2.40049 4.47145 1.88487 5.32073 1.53309C6.17001 1.1813 7.08026 1.00024 7.99951 1.00024C8.91876 1.00024 9.82902 1.1813 10.6783 1.53309C11.5276 1.88487 12.2992 2.40049 12.9493 3.0505C13.5993 3.70051 14.1149 4.47218 14.4667 5.32146C14.8185 6.17074 14.9995 7.08099 14.9995 8.00024C14.9995 9.85676 14.262 11.6372 12.9493 12.95C11.6365 14.2627 9.85603 15.0002 7.99951 15.0002C6.143 15.0002 4.36252 14.2627 3.04976 12.95C1.73701 11.6372 0.999512 9.85676 0.999512 8.00024Z"/>
    </symbol>
    <symbol id="search3" viewBox="0 0 16 16">
      <title>Help circle</title>
      <path fill-rule="evenodd" d="m8.1842 5.1102c-0.33855-0.05808-0.68676 0.00555-0.98291 0.1796-0.29615 0.17405-0.52109 0.44729-0.63513 0.77133-0.13327 0.3789-0.54848 0.57801-0.92738 0.44472-0.3789-0.13329-0.57801-0.54849-0.44472-0.9274 0.22799-0.64808 0.67797-1.1946 1.2703-1.5426 0.59232-0.34809 1.2887-0.47534 1.9658-0.35919 0.67716 0.11615 1.2914 0.46818 1.7337 0.99377 0.44232 0.52547 0.68451 1.1905 0.68357 1.8774-3.64e-4 1.113-0.82553 1.848-1.4148 2.2409-0.3168 0.2112-0.62844 0.36648-0.85804 0.46851-0.11585 0.051495-0.21338 0.09054-0.28364 0.11732-0.035201 0.0135-0.06371 0.023775-0.084509 0.0312l-0.025236 0.00885-0.00807 0.0027-0.00283 0.00102-0.00109 3.63e-4s-9.454e-4 2.91e-4 -0.23091-0.68967l0.22996 0.68997c-0.38102 0.12698-0.79288-0.078916-0.91993-0.46001-0.12698-0.38088 0.078764-0.79266 0.45957-0.91979l0.01128-0.0039c0.011205-0.00405 0.029528-0.01065 0.053964-0.019995 0.049019-0.01869 0.12196-0.04779 0.21069-0.087196 0.17949-0.079785 0.41331-0.19724 0.64197-0.34968 0.50153-0.33432 0.76706-0.69003 0.76706-1.0312v-0.00108c4.963e-4 -0.34354-0.12059-0.67615-0.34176-0.93894-0.22124-0.2628-0.52836-0.43881-0.86692-0.49688zm-0.91499 6.5277c0-0.40167 0.32561-0.72728 0.72728-0.72728h0.00727c0.40167 0 0.72728 0.32561 0.72728 0.72728 0 0.40167-0.32561 0.72728-0.72728 0.72728h-0.00727c-0.40167 0-0.72728-0.32561-0.72728-0.72728z" clip-rule="evenodd"/>
      <path fill-rule="evenodd" d="m8 1.4546c-3.615 0-6.5454 2.9306-6.5454 6.5454 0 3.615 2.9306 6.5454 6.5454 6.5454 3.615 0 6.5454-2.9304 6.5454-6.5454 0-3.615-2.9304-6.5454-6.5454-6.5454zm-8 6.5454c0-4.4183 3.5817-8 8-8 4.4183 0 8 3.5817 8 8 0 4.4183-3.5817 8-8 8-4.4183 0-8-3.5817-8-8z" clip-rule="evenodd"/>
    </symbol>
    <symbol id="plus" viewBox="0 0 16 16">
      <title>Plus</title>
      <path d="M7.99967 2.5835C8.41389 2.5835 8.74967 2.91928 8.74967 3.3335V7.25016H12.6663C13.0806 7.25016 13.4163 7.58595 13.4163 8.00016C13.4163 8.41438 13.0806 8.75016 12.6663 8.75016H8.74967V12.6668C8.74967 13.081 8.41389 13.4168 7.99967 13.4168C7.58546 13.4168 7.24967 13.081 7.24967 12.6668V8.75016H3.33301C2.91879 8.75016 2.58301 8.41438 2.58301 8.00016C2.58301 7.58595 2.91879 7.25016 3.33301 7.25016H7.24967V3.3335C7.24967 2.91928 7.58546 2.5835 7.99967 2.5835Z"/>
    </symbol>
    <symbol id="overview" viewBox="0 0 24 24">
      <path fill-rule="evenodd" clip-rule="evenodd" d="M7.904 6.137a1 1 0 011-1h13a1 1 0 110 2h-13a1 1 0 01-1-1zM7.904 12.137a1 1 0 011-1h13a1 1 0 110 2h-13a1 1 0 01-1-1zM7.904 18.137a1 1 0 011-1h13a1 1 0 110 2h-13a1 1 0 01-1-1zM2.904 6.137a1 1 0 011-1h.01a1 1 0 110 2h-.01a1 1 0 01-1-1zM2.904 12.137a1 1 0 011-1h.01a1 1 0 110 2h-.01a1 1 0 01-1-1zM2.904 18.137a1 1 0 011-1h.01a1 1 0 110 2h-.01a1 1 0 01-1-1z" />
    </symbol>
    <symbol id="epics" viewBox="0 0 24 24">
      <path fill-rule="evenodd" clip-rule="evenodd" d="M12.01 3c.274 0 .524.155.647.4l5.683 11.358.007.014 2.576 5.15a.724.724 0 01-.646 1.048L3.725 21a.724.724 0 01-.648-1.048L6.6 12.91a.473.473 0 01.006-.011L11.362 3.4a.724.724 0 01.647-.4zM7.552 14.245L4.897 19.55l14.208-.027-1.948-3.891-3.944-1.94-3.006 1.696a.724.724 0 01-.723-.006l-1.931-1.137zm8.533-.754L12.01 5.342l-3.807 7.605 1.657.975 2.974-1.68a.725.725 0 01.676-.02l2.577 1.269z" />
    </symbol>
    <symbol id="scrum" viewBox="0 0 24 24">
      <path d="M12.344 5.32a7.458 7.458 0 00-5.4 2.264 7.506 7.506 0 00-2.061 4.266c-.102.784-.098 1.691-.074 2.38.004.117.01.185.015.29l-.57-.57a.762.762 0 00-1.078 1.077l1.855 1.856a.762.762 0 001.078 0l1.797-1.797a.762.762 0 00-1.078-1.078l-.48.48c-.006-.11-.012-.185-.016-.31-.023-.664-.02-1.473.064-2.133a5.975 5.975 0 011.64-3.399 5.937 5.937 0 013.341-1.73 5.896 5.896 0 013.7.629 5.923 5.923 0 012.575 2.738 5.974 5.974 0 01-1.498 7.002c-.553.483-.964.827-1.455 1.067-.472.23-1.06.38-1.959.38a.768.768 0 00-.12.012.773.773 0 00-.052-.002H3.207a.763.763 0 100 1.525h9.361a.76.76 0 00.137-.013c.012 0 .023.004.035.004 1.087 0 1.91-.189 2.625-.537.697-.34 1.251-.814 1.793-1.288a7.499 7.499 0 002.4-4.082 7.497 7.497 0 00-.52-4.707 7.445 7.445 0 00-6.694-4.324zm7.092 13.422a.763.763 0 100 1.525h2.2a.763.763 0 000-1.525h-2.2z" />
    </symbol>
    <symbol id="kanban" viewBox="0 0 24 24">
      <path d="M6.553 3.031c-1.508 0-2.664 1.268-2.664 2.748v12.504c0 1.481 1.156 2.748 2.664 2.748h12.672c1.507 0 2.664-1.267 2.664-2.748V5.78c0-1.48-1.157-2.748-2.664-2.748H6.553zm0 1.705H9.32v14.588H6.553c-.493 0-.96-.428-.96-1.04V5.778c0-.613.467-1.043.96-1.043zm4.472 0h3.727v14.588h-3.727V4.736zm5.432 0h2.768c.492 0 .959.43.959 1.043v12.504c0 .613-.467 1.041-.96 1.041h-2.767V4.736z" />
    </symbol>
    <symbol id="issues" viewBox="0 0 24 24">
      <path fill-rule="evenodd" clip-rule="evenodd" d="M7.464 4.5c-.23 0-.469.1-.657.307-.19.21-.307.508-.307.832v13.116l5.072-3.767a.75.75 0 01.928 0l5 3.767V5.639c0-.324-.118-.622-.308-.832a.889.889 0 00-.656-.307H7.464zm-1.767-.7c.455-.502 1.089-.8 1.767-.8h9.072c.678 0 1.312.298 1.767.8.453.498.697 1.161.697 1.839v14.66a.75.75 0 01-1.214.59l-5.75-4.357-5.822 4.357A.75.75 0 015 20.299V5.64c0-.678.244-1.34.697-1.84z" />
    </symbol>
    <symbol id="wiki" viewBox="0 0 24 24">
      <path fill-rule="evenodd" clip-rule="evenodd" d="M2 4.69388C2 4.31066 2.33164 4 2.74074 4H8.2963C9.47504 4 10.6055 4.43863 11.439 5.21939C11.65 5.417 11.8375 5.63243 12 5.86191C12.1625 5.63243 12.35 5.417 12.561 5.21939C13.3945 4.43863 14.525 4 15.7037 4H21.2593C21.6684 4 22 4.31066 22 4.69388V17.7041C22 18.0873 21.6684 18.398 21.2593 18.398H14.7778C14.2375 18.398 13.7194 18.599 13.3374 18.9568C12.9554 19.3147 12.7407 19.8 12.7407 20.3061C12.7407 20.6893 12.4091 21 12 21C11.5909 21 11.2593 20.6893 11.2593 20.3061C11.2593 19.8 11.0446 19.3147 10.6626 18.9568C10.2806 18.599 9.76248 18.398 9.22222 18.398H2.74074C2.33164 18.398 2 18.0873 2 17.7041V4.69388ZM11.2593 17.6187C10.668 17.2255 9.95696 17.0102 9.22222 17.0102H3.48148V5.38776H8.2963C9.08212 5.38776 9.83576 5.68017 10.3914 6.20068C10.9471 6.72119 11.2593 7.42715 11.2593 8.16327V17.6187ZM12.7407 17.6187C13.332 17.2255 14.043 17.0102 14.7778 17.0102H20.5185V5.38776H15.7037C14.9179 5.38776 14.1642 5.68017 13.6086 6.20068C13.0529 6.72119 12.7407 7.42715 12.7407 8.16327V17.6187Z" />
    </symbol>
    <symbol id="meetup" viewBox="0 0 24 24">
      <path d="M5.236 5.25C3.956 5.25 3 6.347 3 7.596v8.158c0 1.248.955 2.346 2.236 2.346h8.377c1.281 0 2.237-1.098 2.237-2.346v-2.772l5.05 3.247a.714.714 0 001.1-.6V7.72a.714.714 0 00-1.1-.6l-5.05 3.246V7.596c0-1.249-.956-2.346-2.237-2.346H5.236zm0 1.428h8.377c.402 0 .809.364.809.918V15.754c0 .554-.408.918-.809.918H5.236c-.4 0-.808-.364-.808-.918V7.596c0-.554.407-.918.808-.918zm15.336 2.351v5.291l-4.117-2.644 4.117-2.647z" />
    </symbol>
    <symbol id="team" viewBox="0 0 24 24">
      <path fill-rule="evenodd" clip-rule="evenodd" d="M3.83 15.61a4.023 4.023 0 012.845-1.179h6.545a4.023 4.023 0 014.023 4.023v1.409a.75.75 0 11-1.5 0v-1.409a2.523 2.523 0 00-2.523-2.523H6.675a2.523 2.523 0 00-2.523 2.523v1.409a.75.75 0 11-1.5 0v-1.409c0-1.067.424-2.09 1.178-2.844zM9.947 6.113a2.523 2.523 0 100 5.045 2.523 2.523 0 000-5.045zM5.925 8.636a4.023 4.023 0 118.045 0 4.023 4.023 0 01-8.045 0zM18.221 15.1a.75.75 0 01.914-.538 4.023 4.023 0 013.017 3.891v1.41a.75.75 0 01-1.5 0v-1.409a2.523 2.523 0 00-1.892-2.44.75.75 0 01-.539-.914zM14.948 5.283a.75.75 0 01.913-.54 4.023 4.023 0 010 7.794.75.75 0 01-.372-1.453 2.523 2.523 0 000-4.888.75.75 0 01-.541-.913z" />
    </symbol>
    <symbol id="settings" viewBox="0 0 24 24">
      <path fill-rule="evenodd" clip-rule="evenodd" d="M12.402 10.909a1.705 1.705 0 100 3.41 1.705 1.705 0 000-3.41zm-3.205 1.704a3.205 3.205 0 116.41 0 3.205 3.205 0 01-6.41 0z" />
      <path fill-rule="evenodd" clip-rule="evenodd" d="M12.402 4.363a.886.886 0 00-.886.887V5.392a2.1 2.1 0 01-1.273 1.922.75.75 0 01-.205.055 2.1 2.1 0 01-2.17-.479l-.006-.005-.049-.05a.889.889 0 00-1.447.967c.044.108.11.206.192.288l.055.055a2.1 2.1 0 01.43 2.295 2.1 2.1 0 01-1.914 1.352h-.091a.886.886 0 000 1.773h.142a2.1 2.1 0 011.92 1.27 2.1 2.1 0 01-.421 2.312l-.006.006-.049.049a.888.888 0 101.255 1.255l.055-.055a2.099 2.099 0 012.294-.43 2.1 2.1 0 011.353 1.914v.091a.886.886 0 001.773 0V19.835a2.1 2.1 0 011.269-1.92 2.1 2.1 0 012.312.421l.006.006.05.05a.888.888 0 101.255-1.255l-.056-.056a2.1 2.1 0 01-.421-2.312 2.1 2.1 0 011.92-1.27h.076a.886.886 0 100-1.772H19.623a2.1 2.1 0 01-1.921-1.273.752.752 0 01-.056-.205 2.1 2.1 0 01.479-2.17l.006-.005.049-.05a.889.889 0 00-.967-1.447.886.886 0 00-.288.193l-.055.055a2.1 2.1 0 01-2.313.421 2.1 2.1 0 01-1.269-1.92V5.25a.886.886 0 00-.886-.887zm6.054 10.705l.686.303a.6.6 0 00.118.66l.045.044a2.386 2.386 0 01-1.687 4.076 2.387 2.387 0 01-1.689-.7l-.045-.045a.6.6 0 00-.66-.117l-.007.003a.6.6 0 00-.363.547v.138a2.386 2.386 0 11-4.773 0v-.063a.6.6 0 00-.393-.542.7.7 0 01-.044-.018.6.6 0 00-.659.118l-.045.045a2.388 2.388 0 11-3.376-3.376l.045-.045a.6.6 0 00.118-.66l-.004-.007a.6.6 0 00-.548-.364h-.137a2.386 2.386 0 110-4.773h.063a.601.601 0 00.542-.392.748.748 0 01.018-.044.6.6 0 00-.118-.66l-.045-.045A2.389 2.389 0 018.1 5.257c.29.12.552.296.774.518l.046.045a.6.6 0 00.659.118.75.75 0 01.162-.05.6.6 0 00.274-.501V5.25a2.386 2.386 0 114.773 0v.072a.6.6 0 00.364.547l.007.004a.6.6 0 00.66-.118l.045-.045a2.386 2.386 0 014.076 1.687 2.388 2.388 0 01-.7 1.688l-.045.046a.6.6 0 00-.118.66.75.75 0 01.05.161.601.601 0 00.501.275h.137a2.386 2.386 0 110 4.773h-.071a.6.6 0 00-.548.363l-.69-.295z" />
    </symbol>

    <symbol id="collapse-right" viewBox="0 0 16 16">
      <path d="M2.5 2.666c-.368 0-.666.3-.666.668v9.332a.667.667 0 101.332 0V3.334a.667.667 0 00-.666-.668zM11.166 4a.667.667 0 00-.47 1.139l2.195 2.195H6.5a.666.666 0 100 1.332h6.39l-2.195 2.195a.667.667 0 00.944.944L14.97 8.47a.697.697 0 00.043-.047.643.643 0 00.039-.05l.004-.007a.632.632 0 00.029-.049l.004-.007a.663.663 0 00.023-.051l.004-.01.002-.004a.644.644 0 00.033-.111l.002-.008a.665.665 0 00-.015-.316l-.002-.008a.73.73 0 00-.02-.053l-.004-.01a.655.655 0 00-.023-.05l-.002-.003-.002-.005a.648.648 0 00-.03-.05l-.001-.001-.002-.004a.653.653 0 00-.035-.047l-.004-.004a.662.662 0 00-.043-.047l-3.332-3.334A.668.668 0 0011.166 4z" />
    </symbol>

    <symbol id="collapse-left" viewBox="0 0 16 16">
      <path d="M14.001 2.666c.368 0 .666.3.666.668v9.332a.667.667 0 11-1.332 0V3.334c0-.368.298-.668.666-.668zM5.335 4a.667.667 0 01.47 1.139L3.61 7.334h6.391a.666.666 0 110 1.332h-6.39l2.195 2.195a.667.667 0 01-.944.944L1.53 8.47a.691.691 0 01-.043-.047.638.638 0 01-.072-.105l-.004-.008a.682.682 0 01-.023-.051l-.004-.01-.002-.004a.657.657 0 01-.033-.111l-.002-.008a.666.666 0 01.015-.316l.002-.008a.694.694 0 01.02-.053l.004-.01a.666.666 0 01.023-.05l.002-.003.002-.005a.658.658 0 01.03-.05l.001-.001.002-.004a.673.673 0 01.035-.047l.004-.004a.666.666 0 01.043-.047l3.332-3.334A.667.667 0 015.335 4z" />
    </symbol>

    <symbol id="chevron-right" viewBox="0 0 16 16">
      <path d="M4.937 13.247a.86.86 0 010-1.22L8.987 8l-4.05-4.026a.86.86 0 010-1.22.872.872 0 011.229 0l4.663 4.635a.86.86 0 010 1.221l-4.663 4.637a.872.872 0 01-1.229 0z" />
    </symbol>

    <symbol id="chevron-left" viewBox="0 0 16 16">
      <path d="M10.733 13.282a.865.865 0 000-1.224L6.675 8l4.058-4.057a.865.865 0 10-1.224-1.224L4.84 7.39a.865.865 0 000 1.223l4.67 4.67a.865.865 0 001.224 0z" />
    </symbol>

    <symbol id="chevron-down" data-override="tuiIconChevronDownLarge" viewBox="0 0 16 16">
      <path d="M2.764 5.064a.9.9 0 011.273 0l3.962 3.963 3.963-3.963a.9.9 0 111.273 1.273l-4.6 4.599a.9.9 0 01-1.272 0L2.764 6.337a.9.9 0 010-1.273z" />
    </symbol>

    <symbol id="chevron-up" viewBox="0 0 16 16">
      <path fill-rule="evenodd" d="M13.225 10.936a.902.902 0 01-1.275 0l-3.96-3.96-3.962 3.96A.902.902 0 012.754 9.66l4.599-4.597a.902.902 0 011.275 0l4.598 4.597a.901.901 0 010 1.275z" clip-rule="evenodd"/>
    </symbol>

    <symbol id="chevrons-left" viewBox="0 0 16 16">
      <path d="M13.7489 3.10823C13.4142 2.77349 12.8715 2.77349 12.5368 3.10823L8.25105 7.39394C7.91632 7.72868 7.91632 8.27139 8.25105 8.60613L12.5368 12.8918C12.8715 13.2266 13.4142 13.2266 13.7489 12.8918C14.0837 12.5571 14.0837 12.0144 13.7489 11.6797L10.0693 8.00003L13.7489 4.32041C14.0837 3.98568 14.0837 3.44296 13.7489 3.10823ZM7.74895 3.10823C7.41421 2.77349 6.8715 2.77349 6.53677 3.10823L2.25105 7.39394C1.91632 7.72868 1.91632 8.27139 2.25105 8.60613L6.53677 12.8918C6.8715 13.2266 7.41421 13.2266 7.74895 12.8918C8.08368 12.5571 8.08368 12.0144 7.74895 11.6797L4.06933 8.00003L7.74895 4.32041C8.08368 3.98568 8.08368 3.44296 7.74895 3.10823Z"/>
    </symbol>

    <symbol id="chevrons-right" viewBox="0 0 16 16">
      <path d="M2.57562 3.24408C2.90106 2.91864 3.4287 2.91864 3.75413 3.24408L7.9208 7.41074C8.24624 7.73618 8.24624 8.26382 7.9208 8.58926L3.75413 12.7559C3.4287 13.0814 2.90106 13.0814 2.57562 12.7559C2.25018 12.4305 2.25018 11.9028 2.57562 11.5774L6.15303 8L2.57562 4.42259C2.25018 4.09715 2.25018 3.56951 2.57562 3.24408ZM8.40896 3.24408C8.73439 2.91864 9.26203 2.91864 9.58747 3.24408L13.7541 7.41074C14.0796 7.73618 14.0796 8.26382 13.7541 8.58926L9.58747 12.7559C9.26203 13.0814 8.73439 13.0814 8.40896 12.7559C8.08352 12.4305 8.08352 11.9028 8.40896 11.5774L11.9864 8L8.40896 4.42259C8.08352 4.09715 8.08352 3.56951 8.40896 3.24408Z" />
    </symbol>

    <symbol id="arrow-left" viewBox="0 0 16 16">
      <path fill-rule="evenodd" d="M9 2.71a.72.72 0 00-1 0L3.2 7.5a.72.72 0 000 1.01L8 13.3a.72.72 0 001-1.02L5.46 8.72h7.83a.72.72 0 100-1.43H5.45L9 3.73a.72.72 0 000-1.02z" clip-rule="evenodd"/>
    </symbol>

    <symbol id="arrow-right" viewBox="0 0 16 16">
      <path fill-rule="evenodd" d="m7.544 2.71a0.72 0.72 0 0 1 1 0l4.8 4.79a0.72 0.72 0 0 1 0 1.01l-4.8 4.79a0.72 0.72 0 0 1-1-1.02l3.54-3.56h-7.83a0.72 0.72 0 1 1 0-1.43h7.84l-3.55-3.56a0.72 0.72 0 0 1 0-1.02z" clip-rule="evenodd"/>
    </symbol>

    <symbol id="user" viewBox="0 0 16 16">
      <path d="M6.00901 3.01477C5.74703 3.00886 5.48652 3.05536 5.24276 3.15153C4.999 3.2477 4.77692 3.39161 4.58955 3.5748C4.40218 3.75799 4.2533 3.97677 4.15166 4.2183C4.05002 4.45982 3.99766 4.71923 3.99766 4.98127C3.99766 5.24331 4.05002 5.50271 4.15166 5.74424C4.2533 5.98576 4.40218 6.20455 4.58955 6.38774C4.77692 6.57093 4.999 6.71484 5.24276 6.81101C5.48652 6.90718 5.74703 6.95368 6.00901 6.94777C6.52288 6.93618 7.0118 6.72391 7.37113 6.35638C7.73046 5.98885 7.93166 5.49527 7.93166 4.98127C7.93166 4.46727 7.73046 3.97369 7.37113 3.60616C7.0118 3.23863 6.52288 3.02636 6.00901 3.01477ZM2.64201 4.98077C2.64201 4.53861 2.7291 4.10078 2.8983 3.69227C3.06751 3.28377 3.31552 2.91259 3.62818 2.59994C3.94083 2.28728 4.31201 2.03927 4.72051 1.87007C5.12902 1.70086 5.56685 1.61377 6.00901 1.61377C6.45117 1.61377 6.889 1.70086 7.2975 1.87007C7.70601 2.03927 8.07718 2.28728 8.38984 2.59994C8.70249 2.91259 8.9505 3.28377 9.11971 3.69227C9.28892 4.10078 9.37602 4.53861 9.37602 4.98077C9.37602 5.87375 9.02127 6.73016 8.38984 7.3616C7.7584 7.99303 6.90199 8.34777 6.00901 8.34777C5.11602 8.34777 4.25961 7.99303 3.62818 7.3616C2.99674 6.73016 2.64201 5.87375 2.64201 4.98077ZM9.99902 2.22777C10.0449 2.04799 10.1604 1.89381 10.32 1.79912C10.4795 1.70442 10.6702 1.67696 10.85 1.72277C11.574 1.9084 12.2157 2.32966 12.6739 2.92016C13.1321 3.51067 13.3808 4.23684 13.3808 4.98427C13.3808 5.73169 13.1321 6.45787 12.6739 7.04837C12.2157 7.63888 11.574 8.06013 10.85 8.24577C10.6717 8.28745 10.4841 8.2576 10.3276 8.16262C10.171 8.06763 10.0579 7.91508 10.0125 7.73768C9.96714 7.56028 9.99306 7.37215 10.0847 7.21364C10.1764 7.05513 10.3266 6.93886 10.503 6.88977C10.9256 6.78107 11.3001 6.53491 11.5675 6.19003C11.8349 5.84516 11.98 5.42116 11.98 4.98477C11.98 4.54838 11.8349 4.12437 11.5675 3.7795C11.3001 3.43463 10.9256 3.18847 10.503 3.07977C10.3232 3.03361 10.1691 2.91792 10.0746 2.75814C9.98006 2.59837 9.95288 2.40758 9.99902 2.22777ZM1.50016 10.5814C2.13142 9.95028 2.98748 9.59563 3.88016 9.59546H8.19767C9.0903 9.59572 9.94628 9.95043 10.5775 10.5816C11.2087 11.2128 11.5634 12.0688 11.5637 12.9614V14.2954C11.5637 14.4811 11.4899 14.6591 11.3587 14.7904C11.2274 14.9217 11.0493 14.9954 10.8637 14.9954C10.678 14.9954 10.5 14.9217 10.3687 14.7904C10.2374 14.6591 10.1637 14.4811 10.1637 14.2954V12.9614C10.1634 12.4401 9.95618 11.9402 9.58758 11.5715C9.21892 11.2029 8.719 10.9957 8.19767 10.9954H3.88016C3.35882 10.9957 2.85892 11.2029 2.49028 11.5715C2.12164 11.9402 1.91442 12.4401 1.91416 12.9614V14.2954C1.91416 14.4811 1.84041 14.6591 1.70913 14.7904C1.57786 14.9217 1.39981 14.9954 1.21416 14.9954C1.02851 14.9954 0.850461 14.9217 0.719185 14.7904C0.58791 14.6591 0.51416 14.4811 0.51416 14.2954V12.9614C0.51416 12.0694 0.86816 11.2124 1.50016 10.5814ZM12.109 10.2075C12.1554 10.0278 12.2712 9.87395 12.4309 9.77963C12.5907 9.68532 12.7813 9.65828 12.961 9.70445C13.6833 9.89082 14.3232 10.3118 14.7802 10.9013C15.2372 11.4909 15.4855 12.2155 15.486 12.9614V14.2954C15.486 14.4811 15.4122 14.6591 15.281 14.7904C15.1497 14.9217 14.9716 14.9954 14.786 14.9954C14.6003 14.9954 14.4223 14.9217 14.291 14.7904C14.1597 14.6591 14.086 14.4811 14.086 14.2954V12.9624C14.0858 12.5266 13.9409 12.1032 13.6739 11.7587C13.4069 11.4143 13.033 11.1683 12.611 11.0594C12.4316 11.0128 12.2779 10.897 12.1838 10.7372C12.0897 10.5775 12.0628 10.387 12.109 10.2075Z"/>
    </symbol>

    <symbol id="arrow-up-right" viewBox="0 0 16 16">
      <path fill-rule="evenodd" d="M3.25024 4.5C2.83603 4.5 2.50024 4.16421 2.50024 3.75C2.50024 3.33579 2.83603 3 3.25024 3H12.7502C13.1645 3 13.5002 3.33579 13.5002 3.75V13.25C13.5002 13.6642 13.1645 14 12.7502 14C12.336 14 12.0002 13.6642 12.0002 13.25V5.56066L3.78057 13.7803C3.48768 14.0732 3.01281 14.0732 2.71991 13.7803C2.42702 13.4874 2.42702 13.0126 2.71991 12.7197L10.9396 4.5H3.25024Z" clip-rule="evenodd"/>
    </symbol>

    <symbol id="warning" viewBox="0 0 16 16">
      <path fill-rule="evenodd" clip-rule="evenodd" d="M5.32788 2.18799C5.44824 2.06762 5.61149 2 5.78172 2H10.2183C10.3885 2 10.5518 2.06762 10.6721 2.18799L13.812 5.32788C13.9324 5.44824 14 5.61149 14 5.78172V10.2183C14 10.3885 13.9324 10.5518 13.812 10.6721L10.6721 13.812C10.5518 13.9324 10.3885 14 10.2183 14H5.78172C5.61149 14 5.44824 13.9324 5.32788 13.812L2.18799 10.6721C2.06762 10.5518 2 10.3885 2 10.2183V5.78172C2 5.61149 2.06762 5.44824 2.18799 5.32788L5.32788 2.18799ZM8 4.5C8.35447 4.5019 8.64028 4.79079 8.63839 5.14525L8.64455 6.72214L8.64895 8.49295C8.64895 8.84743 8.3616 9.13478 8.00712 9.13478C7.65265 9.13478 7.36529 8.84743 7.36529 8.49295L7.36089 6.71702L7.35475 5.13839C7.35664 4.78392 7.64553 4.4981 8 4.5ZM8 10.5224C8.35447 10.5224 8.64183 10.8098 8.64183 11.1643V11.1764C8.64183 11.5308 8.35447 11.8182 8 11.8182C7.64553 11.8182 7.35817 11.5308 7.35817 11.1764V11.1643C7.35817 10.8098 7.64553 10.5224 8 10.5224Z" />
    </symbol>

    <symbol id="empty" viewBox="0 0 24 24">
      <path fill-rule="evenodd" d="M12 .88c.62 0 1.13.5 1.13 1.12v4a1.13 1.13 0 01-2.26 0V2c0-.62.5-1.13 1.13-1.13zM4.13 4.13a1.12 1.12 0 011.6 0l2.83 2.83a1.12 1.12 0 11-1.6 1.6L4.13 5.73a1.12 1.12 0 010-1.6zm15.74 0c.43.44.43 1.16 0 1.6l-2.83 2.83a1.13 1.13 0 01-1.6-1.6l2.83-2.83a1.13 1.13 0 011.6 0zM.87 12c0-.62.5-1.13 1.13-1.13h4a1.13 1.13 0 010 2.26H2c-.62 0-1.13-.5-1.13-1.13zm16 0c0-.62.5-1.13 1.13-1.13h4a1.13 1.13 0 010 2.26h-4c-.62 0-1.13-.5-1.13-1.13zm-8.31 3.44c.43.44.43 1.16 0 1.6l-2.83 2.83a1.13 1.13 0 01-1.6-1.6l2.83-2.83a1.13 1.13 0 011.6 0zm6.88 0a1.13 1.13 0 011.6 0l2.83 2.83a1.13 1.13 0 01-1.6 1.6l-2.83-2.83a1.12 1.12 0 010-1.6zM12 16.88c.62 0 1.13.5 1.13 1.12v4a1.13 1.13 0 01-2.26 0v-4c0-.62.5-1.13 1.13-1.13z" clip-rule="evenodd"/>
    </symbol>

    <symbol id="template" viewBox="0 0 24 24">
      <path fill-rule="evenodd" d="M5 4a1 1 0 00-1 1v3h16V5a1 1 0 00-1-1H5zm17 1a3 3 0 00-3-3H5a3 3 0 00-3 3v14a3 3 0 003 3h14a3 3 0 003-3V5zm-2 5H10v10h9a1 1 0 001-1v-9zM8 20V10H4v9a1 1 0 001 1h3z" clip-rule="evenodd"/>
    </symbol>

    <symbol id="import" viewBox="0 0 16 16">
      <path fill-rule="evenodd" d="M1.86 1.86c.4-.4.92-.61 1.47-.61h9.34a2.08 2.08 0 012.08 2.08V6a.75.75 0 01-1.5 0V3.33a.58.58 0 00-.58-.58H3.33a.58.58 0 00-.58.58V6a.75.75 0 01-1.5 0V3.33c0-.55.22-1.08.61-1.47zm5.61 3.61c.3-.3.77-.3 1.06 0l3.33 3.33a.75.75 0 11-1.06 1.06L8.75 7.81V14a.75.75 0 01-1.5 0V7.81L5.2 9.86A.75.75 0 114.14 8.8l3.33-3.33z" clip-rule="evenodd"/>
    </symbol>

    <symbol id="duplicate" viewBox="0 0 16 16">
      <path fill-rule="evenodd" d="M2.67 2.08a.58.58 0 00-.59.59v6a.58.58 0 00.59.58h.66a.75.75 0 010 1.5h-.66A2.08 2.08 0 01.58 8.67v-6A2.08 2.08 0 012.67.58h6a2.08 2.08 0 012.08 2.09v.66a.75.75 0 01-1.5 0v-.66a.58.58 0 00-.58-.59h-6zm4.66 4.67a.58.58 0 00-.58.58v6c0 .33.26.59.58.59h6c.33 0 .59-.26.59-.59v-6a.58.58 0 00-.59-.58h-6zm-2.08.58c0-1.15.93-2.08 2.08-2.08h6c1.15 0 2.09.93 2.09 2.08v6c0 1.15-.94 2.09-2.09 2.09h-6a2.08 2.08 0 01-2.08-2.09v-6z" clip-rule="evenodd"/>
    </symbol>
    <symbol id="close" data-override="tuiIconCloseLarge" viewBox="0 0 16 16">
      <path fill-rule="evenodd" clip-rule="evenodd" d="M2.548 2.549a.849.849 0 0 1 1.2 0L8 6.799l4.251-4.25a.849.849 0 0 1 1.2 1.2L9.2 8l4.25 4.25a.849.849 0 0 1-1.2 1.201L8 9.201l-4.251 4.25a.849.849 0 0 1-1.201-1.2L6.798 8l-4.25-4.252a.849.849 0 0 1 0-1.2Z" />
    </symbol>
    <symbol id="more-vertical" viewBox="0 0 16 16">
      <path fill-rule="evenodd" d="M8 8.368a.368.368 0 100-.736.368.368 0 000 .736zM6.158 8a1.842 1.842 0 113.684 0 1.842 1.842 0 01-3.684 0zM8 3.21a.368.368 0 100-.736.368.368 0 000 .736zm-1.842-.368a1.842 1.842 0 113.684 0 1.842 1.842 0 01-3.684 0zM8 13.526a.368.368 0 100-.737.368.368 0 000 .737zm-1.842-.368a1.842 1.842 0 113.684 0 1.842 1.842 0 01-3.684 0z" clip-rule="evenodd"/>
    </symbol>
    <symbol id="sliders-vertical" viewBox="0 0 16 16">
      <path fill-rule="evenodd" d="M14.5 3.05155C14.5 3.43587 14.1766 3.74742 13.7778 3.74742L9.28395 3.74742C8.88508 3.74742 8.56173 3.43587 8.56173 3.05155C8.56173 2.66722 8.88508 2.35567 9.28395 2.35567L13.7778 2.35567C14.1767 2.35567 14.5 2.66722 14.5 3.05155ZM14.5 8C14.5 8.38432 14.1766 8.69588 13.7778 8.69588L11.2901 8.69588L11.2901 9.85567C11.2901 10.24 10.9668 10.5515 10.5679 10.5515C10.169 10.5515 9.84568 10.24 9.84568 9.85567L9.84568 6.14433C9.84568 5.76001 10.169 5.44845 10.5679 5.44845C10.9668 5.44845 11.2901 5.76001 11.2901 6.14433L11.2901 7.30412L13.7778 7.30412C14.1766 7.30412 14.5 7.61568 14.5 8ZM14.5 12.9485C14.5 13.3328 14.1766 13.6443 13.7778 13.6443L8 13.6443C7.60113 13.6443 7.27778 13.3328 7.27778 12.9485C7.27778 12.5641 7.60113 12.2526 8 12.2526L13.7778 12.2526C14.1766 12.2526 14.5 12.5641 14.5 12.9485ZM8.72222 8C8.72222 8.38432 8.39887 8.69588 8 8.69588L2.22222 8.69588C1.82335 8.69588 1.5 8.38432 1.5 8C1.5 7.61568 1.82335 7.30412 2.22222 7.30412L8 7.30412C8.39887 7.30412 8.72222 7.61568 8.72222 8ZM6.71605 0.5C7.11492 0.5 7.43827 0.811554 7.43827 1.19588L7.43827 4.90722C7.43827 5.29154 7.11492 5.60309 6.71605 5.60309C6.31718 5.60309 5.99383 5.29154 5.99383 4.90722L5.99383 3.74742L2.22222 3.74742C1.82335 3.74742 1.5 3.43587 1.5 3.05155C1.5 2.66722 1.82335 2.35567 2.22222 2.35567L5.99383 2.35567L5.99383 1.19588C5.99383 0.811554 6.31718 0.5 6.71605 0.5ZM5.4321 10.3969C5.83097 10.3969 6.15432 10.7085 6.15432 11.0928L6.15432 14.8041C6.15432 15.1884 5.83097 15.5 5.4321 15.5C5.03323 15.5 4.70988 15.1884 4.70988 14.8041L4.70988 13.6443L2.22222 13.6443C1.82335 13.6443 1.5 13.3328 1.5 12.9485C1.5 12.5641 1.82335 12.2526 2.22222 12.2526L4.70988 12.2526L4.70988 11.0928C4.70988 10.7085 5.03323 10.3969 5.4321 10.3969Z" clip-rule="evenodd"/>
    </symbol>
    <symbol id="arrow-down-right" viewBox="0 0 16 16">
      <path fill-rule="evenodd" d="M3.75 2C4.16421 2 4.5 2.33579 4.5 2.75V7.70455C4.5 8.20856 4.67781 8.67611 4.97095 9.00774C5.26144 9.33637 5.63413 9.5 6 9.5H10.9393L9.21967 7.78033C8.92678 7.48744 8.92678 7.01256 9.21967 6.71967C9.51256 6.42678 9.98744 6.42678 10.2803 6.71967L13.2803 9.71967C13.5732 10.0126 13.5732 10.4874 13.2803 10.7803L10.2803 13.7803C9.98744 14.0732 9.51256 14.0732 9.21967 13.7803C8.92678 13.4874 8.92678 13.0126 9.21967 12.7197L10.9393 11H6C5.17239 11 4.4005 10.6273 3.84707 10.0012C3.29629 9.37806 3 8.55073 3 7.70455V2.75C3 2.33579 3.33579 2 3.75 2Z" clip-rule="evenodd"/>
    </symbol>

    <symbol id="notification-success" viewBox="0 0 16 16">
      <path d="M14.7518 3.00833C15.0827 3.33943 15.0827 3.87624 14.7518 4.20734L6.4862 12.4852C6.32729 12.6442 6.11177 12.7335 5.88705 12.7335C5.66233 12.7335 5.44681 12.6442 5.2879 12.4852L1.24817 8.44301C0.917275 8.11191 0.917275 7.57509 1.24817 7.244C1.57907 6.9129 2.11557 6.9129 2.44647 7.244L5.88705 10.6867L13.5535 3.00833C13.8844 2.67724 14.4209 2.67724 14.7518 3.00833Z" clip-rule="evenodd"/>
    </symbol>
    <symbol id="notification-error" viewBox="0 0 16 16">
      <path d="M7.00645 1.75672C7.30975 1.58842 7.65194 1.5 8 1.5C8.34806 1.5 8.69025 1.58842 8.99355 1.75672C9.29685 1.92502 9.55102 2.16752 9.73153 2.46084L9.73363 2.46425L15.2287 11.5058C15.4055 11.8076 15.499 12.1499 15.5 12.4984C15.501 12.8469 15.4094 13.1896 15.2342 13.4924C15.0591 13.7952 14.8066 14.0476 14.5019 14.2243C14.1971 14.4011 13.8507 14.4961 13.4971 14.4999L13.4891 14.5L2.50293 14.5C2.14933 14.4961 1.80291 14.4011 1.49814 14.2243C1.19337 14.0476 0.940863 13.7952 0.76575 13.4924C0.590637 13.1896 0.499018 12.8469 0.500008 12.4984C0.500998 12.1499 0.594563 11.8077 0.771394 11.5059L0.777236 11.4959L6.26846 2.46083C6.44897 2.16752 6.70315 1.92502 7.00645 1.75672ZM8 2.93715C7.90254 2.93715 7.80673 2.9619 7.72181 3.00903C7.63735 3.05589 7.5665 3.12331 7.51601 3.20483C7.51573 3.20528 7.51545 3.20573 7.51517 3.20618L2.03181 12.2285C1.98379 12.312 1.95841 12.4064 1.95814 12.5024C1.95786 12.6 1.98351 12.696 2.03254 12.7808C2.08158 12.8655 2.15228 12.9362 2.23761 12.9857C2.32204 13.0346 2.41788 13.0612 2.51579 13.0628H13.4842C13.5821 13.0612 13.678 13.0346 13.7624 12.9857C13.8477 12.9362 13.9184 12.8655 13.9675 12.7808C14.0165 12.696 14.0421 12.6 14.0419 12.5024C14.0416 12.4064 14.0162 12.312 13.9682 12.2285L8.48483 3.20618C8.48455 3.20573 8.48427 3.20528 8.48399 3.20483C8.4335 3.12331 8.36265 3.05589 8.27819 3.00903C8.19327 2.9619 8.09746 2.93715 8 2.93715ZM7.99993 5.39801C8.40258 5.39801 8.72899 5.71972 8.72899 6.11658V8.67151C8.72899 9.06837 8.40258 9.39008 7.99993 9.39008C7.59727 9.39008 7.27086 9.06837 7.27086 8.67151V6.11658C7.27086 5.71972 7.59727 5.39801 7.99993 5.39801ZM7.27086 11.2264C7.27086 10.8296 7.59727 10.5079 7.99993 10.5079H8.00722C8.40987 10.5079 8.73629 10.8296 8.73629 11.2264C8.73629 11.6233 8.40987 11.945 8.00722 11.945H7.99993C7.59727 11.945 7.27086 11.6233 7.27086 11.2264Z" clip-rule="evenodd"/>
    </symbol>
    <symbol id="notification-warning" viewBox="0 0 16 16">
      <path d="M7.00645 1.75672C7.30975 1.58842 7.65194 1.5 8 1.5C8.34806 1.5 8.69025 1.58842 8.99355 1.75672C9.29685 1.92502 9.55102 2.16752 9.73153 2.46084L9.73363 2.46425L15.2287 11.5058C15.4055 11.8076 15.499 12.1499 15.5 12.4984C15.501 12.8469 15.4094 13.1896 15.2342 13.4924C15.0591 13.7952 14.8066 14.0476 14.5019 14.2243C14.1971 14.4011 13.8507 14.4961 13.4971 14.4999L13.4891 14.5L2.50293 14.5C2.14933 14.4961 1.80291 14.4011 1.49814 14.2243C1.19337 14.0476 0.940863 13.7952 0.76575 13.4924C0.590637 13.1896 0.499018 12.8469 0.500008 12.4984C0.500998 12.1499 0.594563 11.8077 0.771394 11.5059L0.777236 11.4959L6.26846 2.46083C6.44897 2.16752 6.70315 1.92502 7.00645 1.75672ZM8 2.93715C7.90254 2.93715 7.80673 2.9619 7.72181 3.00903C7.63735 3.05589 7.5665 3.12331 7.51601 3.20483C7.51573 3.20528 7.51545 3.20573 7.51517 3.20618L2.03181 12.2285C1.98379 12.312 1.95841 12.4064 1.95814 12.5024C1.95786 12.6 1.98351 12.696 2.03254 12.7808C2.08158 12.8655 2.15228 12.9362 2.23761 12.9857C2.32204 13.0346 2.41788 13.0612 2.51579 13.0628H13.4842C13.5821 13.0612 13.678 13.0346 13.7624 12.9857C13.8477 12.9362 13.9184 12.8655 13.9675 12.7808C14.0165 12.696 14.0421 12.6 14.0419 12.5024C14.0416 12.4064 14.0162 12.312 13.9682 12.2285L8.48483 3.20618C8.48455 3.20573 8.48427 3.20528 8.48399 3.20483C8.4335 3.12331 8.36265 3.05589 8.27819 3.00903C8.19327 2.9619 8.09746 2.93715 8 2.93715ZM7.99993 5.39801C8.40258 5.39801 8.72899 5.71972 8.72899 6.11658V8.67151C8.72899 9.06837 8.40258 9.39008 7.99993 9.39008C7.59727 9.39008 7.27086 9.06837 7.27086 8.67151V6.11658C7.27086 5.71972 7.59727 5.39801 7.99993 5.39801ZM7.27086 11.2264C7.27086 10.8296 7.59727 10.5079 7.99993 10.5079H8.00722C8.40987 10.5079 8.73629 10.8296 8.73629 11.2264C8.73629 11.6233 8.40987 11.945 8.00722 11.945H7.99993C7.59727 11.945 7.27086 11.6233 7.27086 11.2264Z" clip-rule="evenodd"/>
    </symbol>
    <symbol id="notification-notice" viewBox="0 0 16 16">
      <path d="M3.55438 3.0684C3.42549 3.0684 3.30188 3.1196 3.21074 3.21074C3.1196 3.30187 3.0684 3.42548 3.0684 3.55437V11.8226L4.27004 10.6209C4.41711 10.4739 4.61657 10.3912 4.82455 10.3912H12.4456C12.5745 10.3912 12.6981 10.34 12.7893 10.2489C12.8804 10.1578 12.9316 10.0341 12.9316 9.90525V3.55437C12.9316 3.42548 12.8804 3.30187 12.7893 3.21074C12.6981 3.1196 12.5745 3.0684 12.4456 3.0684H3.55438ZM2.10171 2.10171C2.48698 1.71644 3.00952 1.5 3.55438 1.5H12.4456C12.9905 1.5 13.513 1.71644 13.8983 2.10171C14.2836 2.48698 14.5 3.00952 14.5 3.55437V9.90525C14.5 10.4501 14.2836 10.9726 13.8983 11.3579C13.513 11.7432 12.9905 11.9596 12.4456 11.9596H5.14938L2.83871 14.2703C2.61443 14.4946 2.27713 14.5617 1.9841 14.4403C1.69106 14.3189 1.5 14.033 1.5 13.7158V3.55437C1.5 3.00952 1.71644 2.48698 2.10171 2.10171Z" clip-rule="evenodd"/>
    </symbol>
    <symbol id="refresh" viewBox="0 0 16 16">
      <path d="M6.31057 1.99812C7.29884 1.70241 8.34404 1.67042 9.34785 1.90537C10.3515 2.1403 11.2788 2.63385 12.0439 3.33735C12.8089 4.04071 13.3869 4.93087 13.7264 5.92344C13.8605 6.31535 13.6515 6.74175 13.2596 6.87581C12.8677 7.00988 12.4413 6.80085 12.3072 6.40893C12.0473 5.64933 11.6066 4.97295 11.0287 4.44156C10.4509 3.91031 9.75473 3.54115 9.006 3.3659C8.25738 3.19068 7.47827 3.21443 6.74057 3.43516C6.00272 3.65594 5.32823 4.06727 4.78118 4.63345C4.77574 4.63909 4.7702 4.64464 4.76458 4.65011L3.3476 6.02746H5.04545C5.45967 6.02746 5.79545 6.36324 5.79545 6.77746C5.79545 7.19167 5.45967 7.52746 5.04545 7.52746H1.5C1.08579 7.52746 0.75 7.19167 0.75 6.77746V3.10983C0.75 2.69561 1.08579 2.35983 1.5 2.35983C1.91421 2.35983 2.25 2.69561 2.25 3.10983V5.00249L3.7109 3.58245C4.43254 2.8385 5.32629 2.29263 6.31057 1.99812ZM10.2045 9.22254C10.2045 8.80833 10.5403 8.47254 10.9545 8.47254H14.5C14.9142 8.47254 15.25 8.80833 15.25 9.22254V12.8902C15.25 13.3044 14.9142 13.6402 14.5 13.6402C14.0858 13.6402 13.75 13.3044 13.75 12.8902V10.9975L12.2891 12.4176C11.5675 13.1615 10.6737 13.7074 9.68943 14.0019C8.70116 14.2976 7.65596 14.3296 6.65215 14.0946C5.64846 13.8597 4.7212 13.3662 3.95606 12.6626C3.19107 11.9593 2.61309 11.0691 2.27355 10.0766C2.13949 9.68465 2.34852 9.25825 2.74043 9.12419C3.13235 8.99012 3.55874 9.19915 3.69281 9.59107C3.95265 10.3507 4.39336 11.0271 4.97131 11.5584C5.54911 12.0897 6.24527 12.4589 6.994 12.6341C7.74262 12.8093 8.52173 12.7856 9.25943 12.5648C9.99728 12.3441 10.6718 11.9327 11.2188 11.3666C11.2243 11.3609 11.2298 11.3554 11.2354 11.3499L12.6524 9.97254H10.9545C10.5403 9.97254 10.2045 9.63676 10.2045 9.22254Z"/>
    </symbol>
    <symbol id="alert" data-override="tuiIconCancel, tuiIconAttention" viewBox="0 0 16 16">
      <path fill-rule="evenodd" d="M7 1.8a2 2 0 0 1 2.7.7l5.5 9a2 2 0 0 1-.7 2.7 2 2 0 0 1-1 .3h-11a2 2 0 0 1-1.7-1 2 2 0 0 1 0-2l5.5-9c.1-.3.4-.6.7-.7Zm1 1.1a.6.6 0 0 0-.5.3l-5.5 9a.6.6 0 0 0 .2.8h11.3a.6.6 0 0 0 .5-.2.6.6 0 0 0 0-.6l-5.5-9a.6.6 0 0 0-.5-.3Zm0 2.5c.4 0 .7.3.7.7v2.6c0 .4-.3.7-.7.7a.7.7 0 0 1-.7-.7V6c0-.4.3-.7.7-.7Zm-.7 5.8c0-.4.3-.7.7-.7.4 0 .7.3.7.7 0 .4-.3.7-.7.7a.7.7 0 0 1-.7-.7Z" clip-rule="evenodd"/>
    </symbol>
    <symbol id="check" data-override="tuiIconCheckCircle" viewBox="0 0 16 16">
      <path fill-rule="evenodd" d="M14.8 3c.3.3.3.9 0 1.2l-8.3 8.3a.8.8 0 0 1-1.2 0l-4-4a.8.8 0 0 1 1.1-1.3L6 10.7 13.6 3c.3-.3.8-.3 1.2 0Z" clip-rule="evenodd"/>
    </symbol>
    <symbol id="info" data-override="tuiIconInfo, notificationInfo" viewBox="0 0 16 16">
      <path d="M8 2.5C4.96243 2.5 2.5 4.96243 2.5 8C2.5 11.0376 4.96243 13.5 8 13.5C11.0376 13.5 13.5 11.0376 13.5 8C13.5 4.96243 11.0376 2.5 8 2.5ZM1 8C1 4.13401 4.13401 1 8 1C11.866 1 15 4.13401 15 8C15 11.866 11.866 15 8 15C4.13401 15 1 11.866 1 8Z" clip-rule="evenodd"/>
      <path d="M7.25 5.33339C7.25 4.91918 7.58579 4.58339 8 4.58339H8.00667C8.42088 4.58339 8.75667 4.91918 8.75667 5.33339C8.75667 5.74761 8.42088 6.08339 8.00667 6.08339H8C7.58579 6.08339 7.25 5.74761 7.25 5.33339ZM8.00333 7.25006C8.41755 7.25006 8.75333 7.58585 8.75333 8.00006V10.6667C8.75333 11.0809 8.41755 11.4167 8.00333 11.4167C7.58912 11.4167 7.25333 11.0809 7.25333 10.6667V8.00006C7.25333 7.58585 7.58912 7.25006 8.00333 7.25006Z" clip-rule="evenodd"/>
    </symbol>
    <symbol id="eye" viewBox="0 0 16 16">
      <path fill-rule="evenodd" clip-rule="evenodd" d="M2.62459 8C2.67489 8.08699 2.73464 8.18713 2.80364 8.2976C3.06049 8.70879 3.44057 9.25502 3.93309 9.79819C4.93231 10.9002 6.30237 11.8921 7.97889 11.8921C9.65541 11.8921 11.0254 10.9002 12.0247 9.79819C12.5173 9.25502 12.8973 8.70879 13.1541 8.2976C13.2232 8.18713 13.2829 8.08699 13.3332 8C13.2829 7.91301 13.2232 7.81287 13.1541 7.7024C12.8973 7.29121 12.5173 6.74498 12.0247 6.20181C11.0254 5.09984 9.65541 4.10787 7.97889 4.10787C6.30237 4.10787 4.93231 5.09984 3.93309 6.20181C3.44057 6.74498 3.06049 7.29121 2.80364 7.7024C2.73464 7.81287 2.67489 7.91301 2.62459 8ZM14.4605 6.83008C14.1674 6.36076 13.7313 5.73298 13.1593 5.10212C12.0293 3.85606 10.2767 2.5 7.97889 2.5C5.68106 2.5 3.89407 3.82593 2.79855 5.10212C2.28156 5.70436 2.09889 5.88238 1.49725 6.83008C0.895606 7.77778 0.781854 7.91247 1.49725 9.16992C1.79043 9.63924 2.22651 10.267 2.79855 10.8979C3.92843 12.1439 5.68106 13.5 7.97889 13.5C10.2767 13.5 12.0293 12.1439 13.1593 10.8979C13.7313 10.267 14.1674 9.63924 14.4605 9.16992C15.175 7.87537 15.1911 8.03636 14.4605 6.83008ZM7.97891 7.04268C7.46766 7.04268 7.0532 7.47118 7.0532 7.99977C7.0532 8.52835 7.46766 8.95685 7.97891 8.95685C8.49016 8.95685 8.90462 8.52835 8.90462 7.99977C8.90462 7.47118 8.49016 7.04268 7.97891 7.04268ZM5.49805 7.99977C5.49805 6.58318 6.60877 5.43481 7.97891 5.43481C9.34906 5.43481 10.4597 6.58318 10.4597 7.99977C10.4597 9.41635 9.34906 10.5647 7.97891 10.5647C6.60877 10.5647 5.49805 9.41635 5.49805 7.99977Z" />
    </symbol>
    <symbol id="eye-off" viewBox="0 0 16 16">
      <path d="M1.722 6.853c-.569.012-.897.728-.574 1.178.519.941.973 1.487 1.723 2.257-.458.4-.943.772-1.383 1.19-.42.481.044 1.311.674 1.208.44-.082.715-.483 1.064-.733l.786-.665c.945.706 2.057 1.213 3.234 1.356.018.617-.039 1.242.034 1.854.157.619 1.101.71 1.375.134.167-.417.06-.883.09-1.324v-.664c1.17-.142 2.275-.642 3.216-1.34.476.424.93.878 1.422 1.282.532.357 1.298-.207 1.115-.82-.137-.427-.57-.649-.862-.963l-.537-.491c.796-.822 1.323-1.42 1.84-2.439.259-.586-.435-1.24-1.005-.95-.482.264-.58.884-.933 1.276-1.102 1.587-2.501 2.726-4.496 2.963-1.842.23-3.573-.806-4.763-2.133-.645-.679-.948-1.154-1.431-1.948a.754.754 0 00-.59-.228z" />
    </symbol>
    <symbol id="mail" viewBox="0 0 16 16">
      <path d="M2.5 3.7 8 7.3l5.5-3.6a.6.6 0 0 0-.6-.3H3c-.2 0-.4.1-.5.3Zm11 1.7L8.5 8.7c-.2.2-.6.2-.8 0L2.4 5.4V12c0 .3.3.6.6.6h10c.3 0 .6-.3.6-.6V5.4ZM1 4c0-1 .9-2 2-2h10c1 0 2 1 2 2v8c0 1-1 2-2 2H3a2 2 0 0 1-2-2V4Z" />
    </symbol>
    <symbol id="members" viewBox="0 0 16 16">
      <path d="M6.009 2.71a1.967 1.967 0 1 0-.09 3.933 1.967 1.967 0 0 0 .09-3.933ZM2.642 4.676a3.367 3.367 0 1 1 6.734 0 3.367 3.367 0 0 1-6.734 0Zm7.357-2.753a.7.7 0 0 1 .85-.505 3.367 3.367 0 0 1 0 6.523.7.7 0 0 1-.347-1.356 1.967 1.967 0 0 0 0-3.81.7.7 0 0 1-.503-.852Zm-8.5 8.354a3.367 3.367 0 0 1 2.38-.986h4.318a3.367 3.367 0 0 1 3.366 3.366v1.334a.7.7 0 0 1-1.4 0v-1.334a1.968 1.968 0 0 0-1.966-1.966H3.88a1.967 1.967 0 0 0-1.966 1.966v1.334a.7.7 0 1 1-1.4 0v-1.334c0-.892.354-1.749.986-2.38Zm10.61-.374a.7.7 0 0 1 .851-.503 3.366 3.366 0 0 1 2.525 3.257v1.334a.7.7 0 0 1-1.4 0v-1.333a1.966 1.966 0 0 0-1.475-1.903.7.7 0 0 1-.502-.852Z" />
    </symbol>
    <symbol id="remove-user" viewBox="0 0 16 16">
      <path fill-rule="evenodd" clip-rule="evenodd" d="M5.5 0C3.567 0 2 1.567 2 3.5C2 5.433 3.567 7 5.5 7C7.43299 7 9 5.433 9 3.5C9 1.567 7.43299 0 5.5 0ZM5.5 1.61538C4.45915 1.61538 3.61539 2.45916 3.61539 3.5C3.61539 4.54084 4.45915 5.38461 5.5 5.38461C6.54084 5.38461 7.38461 4.54084 7.38461 3.5C7.38461 2.45916 6.54084 1.61538 5.5 1.61538Z" />
      <path d="M10.6221 5.84003C10.3292 5.54714 9.85436 5.54714 9.56147 5.84003C9.26857 6.13292 9.26857 6.6078 9.56147 6.90069L11.2811 8.62036L9.56147 10.34C9.26857 10.6329 9.26857 11.1078 9.56147 11.4007C9.85436 11.6936 10.3292 11.6936 10.6221 11.4007L12.3418 9.68102L14.0615 11.4007C14.3544 11.6936 14.8292 11.6936 15.1221 11.4007C15.415 11.1078 15.415 10.6329 15.1221 10.34L13.4025 8.62036L15.1221 6.90069C15.415 6.6078 15.415 6.13292 15.1221 5.84003C14.8292 5.54714 14.3544 5.54714 14.0615 5.84003L12.3418 7.5597L10.6221 5.84003Z" />
      <path d="M0.893866 9.02979C1.47612 8.38176 2.28411 8 3.14595 8H7.33887C7.75308 8 8.08887 8.33579 8.08887 8.75C8.08887 9.16421 7.75308 9.5 7.33887 9.5H3.14595C2.7369 9.5 2.32606 9.68015 2.00965 10.0323C1.69087 10.3871 1.5 10.884 1.5 11.4167V12.75C1.5 13.1642 1.16421 13.5 0.75 13.5C0.335786 13.5 0 13.1642 0 12.75V11.4167C0 10.5349 0.313993 9.67519 0.893866 9.02979Z" />
    </symbol>
    <symbol id="clock" viewBox="0 0 16 16">
      <path fill-rule="evenodd" d="M8 2.5a5.5 5.5 0 1 0 0 11 5.5 5.5 0 0 0 0-11ZM1 8a7 7 0 1 1 14 0A7 7 0 0 1 1 8Zm7-4.5a.75.75 0 0 1 .75.75v3.286l2.085 1.043a.75.75 0 1 1-.67 1.342l-2.5-1.25A.75.75 0 0 1 7.25 8V4.25A.75.75 0 0 1 8 3.5Z" clip-rule="evenodd"/>
    </symbol>
    <symbol id="external-link" viewBox="0 0 16 16">
      <path d="M7.04 3.709c0-.392.317-.709.708-.709h3.542c.392 0 .709.317.709.709V7.25a.708.708 0 1 1-1.417 0V5.475l-5.327 5.327a.763.763 0 1 1-1.08-1.079l5.307-5.306H7.748a.709.709 0 0 1-.709-.708Z"/>
      <path d="M1.648 6.266a.418.418 0 0 1 .296-.122h2.752a.763.763 0 1 0 0-1.526H1.944A1.944 1.944 0 0 0 0 6.562v6.494A1.944 1.944 0 0 0 1.944 15h6.494a1.944 1.944 0 0 0 1.944-1.944v-2.75a.763.763 0 1 0-1.526 0v2.75a.418.418 0 0 1-.418.418H1.944a.418.418 0 0 1-.418-.418V6.562a.42.42 0 0 1 .122-.296Z"/>
    </symbol>
    <symbol id="draggable" viewBox="0 0 8 14" >
      <path fill-rule="evenodd" clip-rule="evenodd" d="M0.776855 1.07249C0.776855 0.480171 1.25703 0 1.84935 0H1.86007C2.45239 0 2.93256 0.480171 2.93256 1.07249C2.93256 1.66481 2.45239 2.14498 1.86007 2.14498H1.84935C1.25703 2.14498 0.776855 1.66481 0.776855 1.07249ZM5.06682 1.07249C5.06682 0.480171 5.54699 0 6.13932 0H6.15004C6.74236 0 7.22253 0.480171 7.22253 1.07249C7.22253 1.66481 6.74236 2.14498 6.15004 2.14498H6.13932C5.54699 2.14498 5.06682 1.66481 5.06682 1.07249ZM0.776855 7.00276C0.776855 6.41044 1.25703 5.93027 1.84935 5.93027H1.86007C2.45239 5.93027 2.93256 6.41044 2.93256 7.00276C2.93256 7.59508 2.45239 8.07525 1.86007 8.07525H1.84935C1.25703 8.07525 0.776855 7.59508 0.776855 7.00276ZM5.06682 7.00276C5.06682 6.41044 5.54699 5.93027 6.13932 5.93027H6.15004C6.74236 5.93027 7.22253 6.41044 7.22253 7.00276C7.22253 7.59508 6.74236 8.07525 6.15004 8.07525H6.13932C5.54699 8.07525 5.06682 7.59508 5.06682 7.00276ZM0.776855 12.9275C0.776855 12.3352 1.25703 11.855 1.84935 11.855H1.86007C2.45239 11.855 2.93256 12.3352 2.93256 12.9275C2.93256 13.5198 2.45239 14 1.86007 14H1.84935C1.25703 14 0.776855 13.5198 0.776855 12.9275ZM5.06682 12.9275C5.06682 12.3352 5.54699 11.855 6.13932 11.855H6.15004C6.74236 11.855 7.22253 12.3352 7.22253 12.9275C7.22253 13.5198 6.74236 14 6.15004 14H6.13932C5.54699 14 5.06682 13.5198 5.06682 12.9275Z" />
    </symbol>
    <symbol id="link" viewBox="0 0 16 16">
      <path d="M8.4349 2.08859C9.16547 1.38235 10.1439 0.991557 11.1596 1.00039C12.1752 1.00922 13.1468 1.41697 13.865 2.13582C14.5832 2.85466 14.9905 3.82709 14.9994 4.84365C15.0082 5.86021 14.6178 6.83957 13.9122 7.5708L13.9036 7.5797L12.0063 9.47852C11.6136 9.87166 11.141 10.1758 10.6206 10.3701C10.1002 10.5644 9.5441 10.6444 8.99007 10.6047C8.43603 10.565 7.89701 10.4065 7.40956 10.1399C6.92212 9.87335 6.49765 9.50498 6.16494 9.05979C5.92958 8.74486 5.99386 8.29858 6.30851 8.06301C6.62316 7.82743 7.06903 7.89177 7.30439 8.2067C7.51488 8.48835 7.78342 8.7214 8.0918 8.89004C8.40019 9.05868 8.7412 9.15896 9.09171 9.18408C9.44222 9.20921 9.79403 9.15859 10.1233 9.03566C10.4525 8.91273 10.7515 8.72036 10.9999 8.47161L12.8927 6.57719C13.3365 6.11503 13.582 5.49722 13.5765 4.85602C13.5709 4.21289 13.3132 3.59769 12.8588 3.14291C12.4044 2.68813 11.7898 2.43016 11.1472 2.42457C10.5063 2.419 9.88873 2.66499 9.42691 3.10968L8.34302 4.18824C8.06437 4.46553 7.61389 4.46421 7.33685 4.1853C7.05982 3.90639 7.06113 3.45551 7.33979 3.17822L8.4349 2.08859ZM5.37842 5.63041C5.89884 5.4361 6.45492 5.35609 7.00896 5.39581C7.56299 5.43552 8.10201 5.59403 8.58946 5.86059C9.0769 6.12714 9.50138 6.49551 9.83408 6.9407C10.0694 7.25563 10.0052 7.70191 9.69051 7.93748C9.37586 8.17306 8.92999 8.10872 8.69463 7.79379C8.48415 7.51214 8.2156 7.27909 7.90722 7.11045C7.59883 6.94181 7.25782 6.84153 6.90731 6.81641C6.5568 6.79128 6.20499 6.8419 5.87574 6.96483C5.54649 7.08776 5.24751 7.28013 4.99907 7.52888L3.10636 9.42331C2.6625 9.88547 2.41699 10.5033 2.42255 11.1445C2.42814 11.7876 2.68587 12.4028 3.14024 12.8576C3.5946 13.3124 4.20925 13.5703 4.8518 13.5759C5.49242 13.5815 6.10967 13.3358 6.57141 12.8915L7.6482 11.8137C7.92605 11.5356 8.37653 11.5356 8.65438 11.8137C8.93223 12.0918 8.93223 12.5427 8.65438 12.8208L7.5642 13.912C6.83363 14.6182 5.85508 15.0089 4.83944 15.0001C3.8238 14.9913 2.85225 14.5835 2.13406 13.8647C1.41586 13.1458 1.00848 12.1734 0.999658 11.1568C0.990833 10.1403 1.38127 9.16092 2.08687 8.42969L2.09546 8.42079L3.99271 6.52197C4.38539 6.12883 4.85803 5.82471 5.37842 5.63041Z"/>
    </symbol>
    <symbol id="full-view" viewBox="0 0 16 16">
      <path d="M2.09931 2.4C1.71453 2.4 1.4 2.71302 1.4 3.10237V11.919C1.4 12.3083 1.71453 12.6213 2.09931 12.6213H12.8944C13.2792 12.6213 13.5938 12.3083 13.5938 11.919V3.10237C13.5938 2.71302 13.2792 2.4 12.8944 2.4H2.09931ZM0 3.10237C0 1.94271 0.938449 1 2.09931 1H12.8944C14.0553 1 14.9937 1.94271 14.9937 3.10237V11.919C14.9937 13.0786 14.0553 14.0213 12.8944 14.0213H2.09931C0.938449 14.0213 0 13.0786 0 11.919V3.10237Z"/>
      <path d="M11.9975 3.49053H2.99752C2.72138 3.49053 2.49752 3.71439 2.49752 3.99053V10.9905C2.49752 11.2667 2.72138 11.4905 2.99752 11.4905H11.9975C12.2737 11.4905 12.4975 11.2667 12.4975 10.9905V3.99053C12.4975 3.71438 12.2737 3.49053 11.9975 3.49053Z"/>
    </symbol>
    <symbol id="modal-view" viewBox="0 0 16 16">
      <path d="M2.60272 2.88926C2.21795 2.88926 1.90342 3.20227 1.90342 3.59163V12.4082C1.90342 12.7976 2.21795 13.1106 2.60272 13.1106H13.3979C13.7826 13.1106 14.0972 12.7976 14.0972 12.4082V3.59163C14.0972 3.20227 13.7826 2.88926 13.3979 2.88926H2.60272ZM0.503418 3.59163C0.503418 2.43196 1.44187 1.48926 2.60272 1.48926H13.3979C14.5587 1.48926 15.4972 2.43196 15.4972 3.59163V12.4082C15.4972 13.5679 14.5587 14.5106 13.3979 14.5106H2.60272C1.44187 14.5106 0.503418 13.5679 0.503418 12.4082V3.59163Z"/>
      <path d="M10.9199 5.5H4.91992C4.64378 5.5 4.41992 5.72386 4.41992 6V10C4.41992 10.2761 4.64378 10.5 4.91992 10.5H10.9199C11.1961 10.5 11.4199 10.2761 11.4199 10V6C11.4199 5.72386 11.1961 5.5 10.9199 5.5Z"/>
    </symbol>
    <symbol id="side-view" viewBox="0 0 16 16">
      <path d="M2.60272 2.88926C2.21795 2.88926 1.90342 3.20227 1.90342 3.59163V12.4082C1.90342 12.7976 2.21795 13.1106 2.60272 13.1106H13.3979C13.7826 13.1106 14.0972 12.7976 14.0972 12.4082V3.59163C14.0972 3.20227 13.7826 2.88926 13.3979 2.88926H2.60272ZM0.503418 3.59163C0.503418 2.43196 1.44187 1.48926 2.60272 1.48926H13.3979C14.5587 1.48926 15.4972 2.43196 15.4972 3.59163V12.4082C15.4972 13.5679 14.5587 14.5106 13.3979 14.5106H2.60272C1.44187 14.5106 0.503418 13.5679 0.503418 12.4082V3.59163Z"/>
      <path d="M12.5009 3.97979H9.50094C9.2248 3.97979 9.00094 4.20364 9.00094 4.47979V11.4798C9.00094 11.7559 9.2248 11.9798 9.50094 11.9798H12.5009C12.7771 11.9798 13.0009 11.7559 13.0009 11.4798V4.47979C13.0009 4.20364 12.7771 3.97979 12.5009 3.97979Z"/>
    </symbol>

    <symbol id="pen" viewBox="0 0 16 16">
      <path d="M11.0623 2.13117C10.9564 2.13117 10.8516 2.15202 10.7538 2.19254C10.6559 2.23306 10.567 2.29245 10.4922 2.36732L2.9048 9.95471L2.4772 11.5226L4.04504 11.095L11.6324 3.50757C11.7073 3.4327 11.7667 3.34382 11.8072 3.246C11.8477 3.14818 11.8686 3.04333 11.8686 2.93745C11.8686 2.83156 11.8477 2.72672 11.8072 2.6289C11.7667 2.53107 11.7073 2.44219 11.6324 2.36732C11.5576 2.29245 11.4687 2.23306 11.3709 2.19254C11.273 2.15202 11.1682 2.13117 11.0623 2.13117ZM10.1296 0.685765C10.4253 0.563284 10.7422 0.500244 11.0623 0.500244C11.3824 0.500244 11.6993 0.563284 11.995 0.685765C12.2907 0.808246 12.5594 0.987769 12.7857 1.21408C13.012 1.4404 13.1915 1.70907 13.314 2.00477C13.4365 2.30047 13.4995 2.61739 13.4995 2.93745C13.4995 3.2575 13.4365 3.57442 13.314 3.87012C13.1915 4.16582 13.012 4.43449 12.7857 4.66081L5.04515 12.4013C4.94481 12.5017 4.82001 12.5741 4.6831 12.6114L1.52955 13.4715C1.24723 13.5485 0.945297 13.4683 0.738374 13.2614C0.53145 13.0545 0.451267 12.7525 0.528264 12.4702L1.38832 9.31666C1.42566 9.17975 1.49808 9.05495 1.59843 8.9546L9.33894 1.21408C9.56526 0.987769 9.83393 0.808246 10.1296 0.685765Z" />
    </symbol>
  </defs>
</svg>
