<svg id="taiga-logo" viewBox="0 0 48 48"
  xmlns="http://www.w3.org/2000/svg">
  <title>Taiga Logo</title>
  <path d="M37.24 7.42a31.98 31.98 0 00-4.19.2 9.53 9.53 0 01.6 2.78 17.59 17.59 0 013.53-.22c.42 0 .8.02 1.13.04.04.67.08 1.58.06 2.56 0 .7-.08 1.4-.18 2.08l.75.07c.75.1 1.42.28 2.05.5.1-.87.13-1.76.15-2.6.04-2.2-.18-4.06-.18-4.06l-.12-1.1-1.1-.12s-1.05-.1-2.5-.13zm-26.55 0c-1.46.03-2.5.14-2.5.14l-1.11.12-.13 1.1s-.2 1.85-.16 4.06c.02.86.06 1.77.17 2.68a9.53 9.53 0 012.8-.58c-.11-.7-.19-1.44-.2-2.16-.03-.98.01-1.88.05-2.55a33.07 33.07 0 012.57-.04c.65.02 1.32.09 1.97.18a9.5 9.5 0 01.58-2.78 26.56 26.56 0 00-4.04-.17zm30.24 26.3a9.57 9.57 0 01-2.78.6c.12.76.2 1.57.23 2.36.02.97-.02 1.87-.06 2.54-.68.03-1.58.05-2.57 0-.68-.02-1.37-.1-2.04-.2l-.06.61c-.1.8-.3 1.51-.54 2.17a34.17 34.17 0 006.63.1l1.11-.11.13-1.11s.2-1.86.16-4.06c-.02-.93-.06-1.92-.2-2.9zM7 33.9a34.17 34.17 0 00-.05 6.76l.11 1.11 1.12.12a33.79 33.79 0 006.75-.08 9.55 9.55 0 01-.63-2.78c-.7.1-1.44.2-2.15.22-.98.03-1.87 0-2.54-.03a31.7 31.7 0 01-.04-2.57c.02-.73.11-1.48.22-2.2a9.53 9.53 0 01-2.8-.56zM23.88.71l-.86.7S21.58 2.6 20.07 4.2c-1.51 1.6-3.2 3.54-3.5 5.84-.3 2.28.42 4.74 1.44 7.05.75-.61 1.56-1.15 2.42-1.56-.78-1.98-1.28-3.9-1.12-5.13.12-.92 1.4-2.85 2.77-4.3a31.3 31.3 0 011.83-1.78c.5.44 1.17 1.06 1.85 1.77 1.4 1.44 2.7 3.36 2.84 4.28.25 1.79-.06 3.53-.74 5.3.84.42 1.63.97 2.34 1.6.97-2.29 1.5-4.7 1.13-7.28-.32-2.3-2.04-4.23-3.57-5.82-1.54-1.6-3-2.76-3-2.76l-.88-.69zm13.48 16.5c-1.89.06-3.86.69-5.73 1.52.62.74 1.15 1.55 1.56 2.41 1.98-.78 3.9-1.28 5.13-1.12.92.12 2.85 1.41 4.3 2.78.7.66 1.32 1.32 1.77 1.81a31.6 31.6 0 01-1.79 1.85c-1.46 1.38-3.4 2.68-4.34 2.81-1.75.24-3.46-.06-5.19-.7-.42.83-.97 1.62-1.6 2.33 2.25.94 4.63 1.45 7.16 1.11 2.3-.31 4.26-2.02 5.87-3.54a34.17 34.17 0 002.8-2.99l.7-.87-.7-.87s-1.18-1.45-2.79-2.96c-1.6-1.5-3.53-3.2-5.83-3.5a8.35 8.35 0 00-1.32-.06zm-26.65.06c-.48 0-.96.04-1.45.11-2.3.32-4.22 2.05-5.82 3.58-1.59 1.53-2.75 3-2.75 3l-.69.87.7.86s1.17 1.45 2.78 2.96c1.6 1.5 3.54 3.2 5.84 3.5 2.27.3 4.73-.42 7.05-1.45a11.32 11.32 0 01-1.56-2.42c-1.99.79-3.9 1.29-5.13 1.13-.93-.12-2.86-1.41-4.3-2.78a31.29 31.29 0 01-1.79-1.82c.45-.5 1.06-1.18 1.77-1.86 1.44-1.39 3.36-2.7 4.29-2.83 1.78-.25 3.53.05 5.29.73.43-.84.97-1.62 1.6-2.33a14.23 14.23 0 00-5.83-1.25zm7.1 14.92a13.54 13.54 0 00-1.1 7.15c.3 2.31 2.02 4.26 3.54 5.87 1.52 1.62 2.98 2.8 2.98 2.8l.88.7.87-.7s1.44-1.18 2.95-2.78c1.51-1.6 3.2-3.54 3.5-5.84.3-2.27-.42-4.73-1.44-7.04-.74.61-1.55 1.15-2.42 1.56.79 1.98 1.28 3.9 1.12 5.12-.12.92-1.4 2.85-2.77 4.3-.67.71-1.32 1.33-1.82 1.78-.5-.46-1.16-1.08-1.84-1.8-1.38-1.46-2.69-3.4-2.82-4.34-.23-1.75.06-3.46.71-5.18-.84-.43-1.62-.98-2.34-1.6zM24.06 17.46a7.24 7.24 0 00-5.03 2.28 7.24 7.24 0 00-2.38 4.99 7.23 7.23 0 002.28 5.02 7.24 7.24 0 004.98 2.38 7.24 7.24 0 005.03-2.28 7.23 7.23 0 002.38-4.98 7.24 7.24 0 00-2.28-5.03 7.24 7.24 0 00-4.98-2.38zm-.03 2.77c.89 0 2.11.6 3.04 1.55.92.94 1.5 2.18 1.48 3.07 0 .88-.6 2.1-1.55 3.03a4.85 4.85 0 01-3.06 1.48c-.89 0-2.1-.6-3.03-1.55a4.85 4.85 0 01-1.5-3.06c.02-.88.61-2.1 1.56-3.03a4.85 4.85 0 013.06-1.5z"></path>
</svg>
