<svg id="team" viewBox="0 0 24 24"
  xmlns="http://www.w3.org/2000/svg">
  <path fill-rule="evenodd" clip-rule="evenodd" d="M3.83 15.61a4.023 4.023 0 012.845-1.179h6.545a4.023 4.023 0 014.023 4.023v1.409a.75.75 0 11-1.5 0v-1.409a2.523 2.523 0 00-2.523-2.523H6.675a2.523 2.523 0 00-2.523 2.523v1.409a.75.75 0 11-1.5 0v-1.409c0-1.067.424-2.09 1.178-2.844zM9.947 6.113a2.523 2.523 0 100 5.045 2.523 2.523 0 000-5.045zM5.925 8.636a4.023 4.023 0 118.045 0 4.023 4.023 0 01-8.045 0zM18.221 15.1a.75.75 0 01.914-.538 4.023 4.023 0 013.017 3.891v1.41a.75.75 0 01-1.5 0v-1.409a2.523 2.523 0 00-1.892-2.44.75.75 0 01-.539-.914zM14.948 5.283a.75.75 0 01.913-.54 4.023 4.023 0 010 7.794.75.75 0 01-.372-1.453 2.523 2.523 0 000-4.888.75.75 0 01-.541-.913z"></path>
</svg>
