<svg id="user" viewBox="0 0 16 16" fill="currentColor"
  xmlns="http://www.w3.org/2000/svg">
  <path d="M6.00901 3.01477C5.74703 3.00886 5.48652 3.05536 5.24276 3.15153C4.999 3.2477 4.77692 3.39161 4.58955 3.5748C4.40218 3.75799 4.2533 3.97677 4.15166 4.2183C4.05002 4.45982 3.99766 4.71923 3.99766 4.98127C3.99766 5.24331 4.05002 5.50271 4.15166 5.74424C4.2533 5.98576 4.40218 6.20455 4.58955 6.38774C4.77692 6.57093 4.999 6.71484 5.24276 6.81101C5.48652 6.90718 5.74703 6.95368 6.00901 6.94777C6.52288 6.93618 7.0118 6.72391 7.37113 6.35638C7.73046 5.98885 7.93166 5.49527 7.93166 4.98127C7.93166 4.46727 7.73046 3.97369 7.37113 3.60616C7.0118 3.23863 6.52288 3.02636 6.00901 3.01477ZM2.64201 4.98077C2.64201 4.53861 2.7291 4.10078 2.8983 3.69227C3.06751 3.28377 3.31552 2.91259 3.62818 2.59994C3.94083 2.28728 4.31201 2.03927 4.72051 1.87007C5.12902 1.70086 5.56685 1.61377 6.00901 1.61377C6.45117 1.61377 6.889 1.70086 7.2975 1.87007C7.70601 2.03927 8.07718 2.28728 8.38984 2.59994C8.70249 2.91259 8.9505 3.28377 9.11971 3.69227C9.28892 4.10078 9.37602 4.53861 9.37602 4.98077C9.37602 5.87375 9.02127 6.73016 8.38984 7.3616C7.7584 7.99303 6.90199 8.34777 6.00901 8.34777C5.11602 8.34777 4.25961 7.99303 3.62818 7.3616C2.99674 6.73016 2.64201 5.87375 2.64201 4.98077ZM9.99902 2.22777C10.0449 2.04799 10.1604 1.89381 10.32 1.79912C10.4795 1.70442 10.6702 1.67696 10.85 1.72277C11.574 1.9084 12.2157 2.32966 12.6739 2.92016C13.1321 3.51067 13.3808 4.23684 13.3808 4.98427C13.3808 5.73169 13.1321 6.45787 12.6739 7.04837C12.2157 7.63888 11.574 8.06013 10.85 8.24577C10.6717 8.28745 10.4841 8.2576 10.3276 8.16262C10.171 8.06763 10.0579 7.91508 10.0125 7.73768C9.96714 7.56028 9.99306 7.37215 10.0847 7.21364C10.1764 7.05513 10.3266 6.93886 10.503 6.88977C10.9256 6.78107 11.3001 6.53491 11.5675 6.19003C11.8349 5.84516 11.98 5.42116 11.98 4.98477C11.98 4.54838 11.8349 4.12437 11.5675 3.7795C11.3001 3.43463 10.9256 3.18847 10.503 3.07977C10.3232 3.03361 10.1691 2.91792 10.0746 2.75814C9.98006 2.59837 9.95288 2.40758 9.99902 2.22777ZM1.50016 10.5814C2.13142 9.95028 2.98748 9.59563 3.88016 9.59546H8.19767C9.0903 9.59572 9.94628 9.95043 10.5775 10.5816C11.2087 11.2128 11.5634 12.0688 11.5637 12.9614V14.2954C11.5637 14.4811 11.4899 14.6591 11.3587 14.7904C11.2274 14.9217 11.0493 14.9954 10.8637 14.9954C10.678 14.9954 10.5 14.9217 10.3687 14.7904C10.2374 14.6591 10.1637 14.4811 10.1637 14.2954V12.9614C10.1634 12.4401 9.95618 11.9402 9.58758 11.5715C9.21892 11.2029 8.719 10.9957 8.19767 10.9954H3.88016C3.35882 10.9957 2.85892 11.2029 2.49028 11.5715C2.12164 11.9402 1.91442 12.4401 1.91416 12.9614V14.2954C1.91416 14.4811 1.84041 14.6591 1.70913 14.7904C1.57786 14.9217 1.39981 14.9954 1.21416 14.9954C1.02851 14.9954 0.850461 14.9217 0.719185 14.7904C0.58791 14.6591 0.51416 14.4811 0.51416 14.2954V12.9614C0.51416 12.0694 0.86816 11.2124 1.50016 10.5814ZM12.109 10.2075C12.1554 10.0278 12.2712 9.87395 12.4309 9.77963C12.5907 9.68532 12.7813 9.65828 12.961 9.70445C13.6833 9.89082 14.3232 10.3118 14.7802 10.9013C15.2372 11.4909 15.4855 12.2155 15.486 12.9614V14.2954C15.486 14.4811 15.4122 14.6591 15.281 14.7904C15.1497 14.9217 14.9716 14.9954 14.786 14.9954C14.6003 14.9954 14.4223 14.9217 14.291 14.7904C14.1597 14.6591 14.086 14.4811 14.086 14.2954V12.9624C14.0858 12.5266 13.9409 12.1032 13.6739 11.7587C13.4069 11.4143 13.033 11.1683 12.611 11.0594C12.4316 11.0128 12.2779 10.897 12.1838 10.7372C12.0897 10.5775 12.0628 10.387 12.109 10.2075Z"></path>
</svg>
