<svg id="user-plus" viewBox="0 0 16 16"
  xmlns="http://www.w3.org/2000/svg">
  <path fill-rule="evenodd" clip-rule="evenodd" d="M6.10008 2.8002C5.06915 2.8002 4.23342 3.63593 4.23342 4.66686C4.23342 5.69779 5.06915 6.53353 6.10008 6.53353C7.13101 6.53353 7.96675 5.69779 7.96675 4.66686C7.96675 3.63593 7.13101 2.8002 6.10008 2.8002ZM2.63342 4.66686C2.63342 2.75227 4.18549 1.2002 6.10008 1.2002C8.01467 1.2002 9.56675 2.75227 9.56675 4.66686C9.56675 6.58145 8.01467 8.13353 6.10008 8.13353C4.18549 8.13353 2.63342 6.58145 2.63342 4.66686ZM12.8756 4.50228C13.3174 4.50228 13.6149 4.86045 13.6149 5.30228V6.53353H14.6933C15.1352 6.53353 15.4933 6.86046 15.4933 7.30229C15.4933 7.74412 15.1352 8.02572 14.6933 8.02572H13.6149V9.10276C13.6149 9.54459 13.3174 9.90276 12.8756 9.90276C12.4338 9.90276 12.1215 9.54459 12.1215 9.10276V8.02572H11.0511C10.6093 8.02572 10.2511 7.70856 10.2511 7.26673C10.2511 6.8249 10.6093 6.53353 11.0511 6.53353H12.1215V5.30228C12.1215 4.86045 12.4338 4.50228 12.8756 4.50228ZM1.50413 10.2156C2.15426 9.56543 3.03602 9.2002 3.95544 9.2002H8.1849C9.10432 9.2002 10.0073 9.58662 10.6362 10.2156C11.2651 10.8445 11.6516 11.7474 11.6516 12.6669V14.0002C11.6516 14.442 11.2934 14.8002 10.8516 14.8002C10.4097 14.8002 10.0516 14.442 10.0516 14.0002V12.6669C10.0516 12.1718 9.85491 11.697 9.50484 11.3469C9.15477 10.9969 8.67997 10.8002 8.1849 10.8002H3.95544C3.46037 10.8002 2.98557 10.9969 2.6355 11.3469C2.28544 11.697 2.08877 12.1718 2.08877 12.6669V14.0002C2.08877 14.442 1.7306 14.8002 1.28877 14.8002C0.846942 14.8002 0.48877 14.442 0.48877 14.0002V12.6669C0.48877 11.7474 0.854007 10.8657 1.50413 10.2156Z"></path>
</svg>
