<svg id="video" viewBox="0 0 16 16"
  xmlns="http://www.w3.org/2000/svg">
  <path fill-rule="evenodd" clip-rule="evenodd" d="M3.33008 2.00332C2.96189 2.00332 2.66341 2.30179 2.66341 2.66998V13.3366C2.66341 13.7048 2.96189 14.0033 3.33008 14.0033H12.6634C13.0316 14.0033 13.3301 13.7048 13.3301 13.3366V5.33665H11.3301C10.5937 5.33665 9.99674 4.7397 9.99674 4.00332V2.00332H3.33008ZM11.3301 4.00332V2.27946L13.0539 4.00332H11.3301ZM1.33008 2.66998C1.33008 1.56541 2.22551 0.669983 3.33008 0.669983H10.7778C11.3082 0.669983 11.8169 0.880697 12.192 1.25577L14.0776 3.14139C14.4527 3.51646 14.6634 4.02517 14.6634 4.5556V13.3366C14.6634 14.4412 13.768 15.3366 12.6634 15.3366H3.33008C2.22551 15.3366 1.33008 14.4412 1.33008 13.3366V2.66998ZM10.3301 9.24749C10.5363 9.1284 10.6634 8.90832 10.6634 8.67014C10.6634 8.43196 10.5363 8.21188 10.3301 8.09279L6.33008 5.78339C6.12381 5.6643 5.86968 5.6643 5.66341 5.78339C5.45714 5.90248 5.33008 6.12256 5.33008 6.36074L5.33008 10.9795C5.33008 11.2177 5.45714 11.4378 5.66341 11.5569C5.86968 11.676 6.12381 11.676 6.33008 11.5569L10.3301 9.24749ZM6.66341 7.51544L8.66341 8.67014L6.66341 9.82484V7.51544Z" />
</svg>
