<svg id="warning" viewBox="0 0 16 16"
  xmlns="http://www.w3.org/2000/svg">
  <path fill-rule="evenodd" clip-rule="evenodd" d="M5.32788 2.18799C5.44824 2.06762 5.61149 2 5.78172 2H10.2183C10.3885 2 10.5518 2.06762 10.6721 2.18799L13.812 5.32788C13.9324 5.44824 14 5.61149 14 5.78172V10.2183C14 10.3885 13.9324 10.5518 13.812 10.6721L10.6721 13.812C10.5518 13.9324 10.3885 14 10.2183 14H5.78172C5.61149 14 5.44824 13.9324 5.32788 13.812L2.18799 10.6721C2.06762 10.5518 2 10.3885 2 10.2183V5.78172C2 5.61149 2.06762 5.44824 2.18799 5.32788L5.32788 2.18799ZM8 4.5C8.35447 4.5019 8.64028 4.79079 8.63839 5.14525L8.64455 6.72214L8.64895 8.49295C8.64895 8.84743 8.3616 9.13478 8.00712 9.13478C7.65265 9.13478 7.36529 8.84743 7.36529 8.49295L7.36089 6.71702L7.35475 5.13839C7.35664 4.78392 7.64553 4.4981 8 4.5ZM8 10.5224C8.35447 10.5224 8.64183 10.8098 8.64183 11.1643V11.1764C8.64183 11.5308 8.35447 11.8182 8 11.8182C7.64553 11.8182 7.35817 11.5308 7.35817 11.1764V11.1643C7.35817 10.8098 7.64553 10.5224 8 10.5224Z"></path>
</svg>
