<svg id="wiki" viewBox="0 0 24 24"
  xmlns="http://www.w3.org/2000/svg">
  <path fill-rule="evenodd" clip-rule="evenodd" d="M2 4.69388C2 4.31066 2.33164 4 2.74074 4H8.2963C9.47504 4 10.6055 4.43863 11.439 5.21939C11.65 5.417 11.8375 5.63243 12 5.86191C12.1625 5.63243 12.35 5.417 12.561 5.21939C13.3945 4.43863 14.525 4 15.7037 4H21.2593C21.6684 4 22 4.31066 22 4.69388V17.7041C22 18.0873 21.6684 18.398 21.2593 18.398H14.7778C14.2375 18.398 13.7194 18.599 13.3374 18.9568C12.9554 19.3147 12.7407 19.8 12.7407 20.3061C12.7407 20.6893 12.4091 21 12 21C11.5909 21 11.2593 20.6893 11.2593 20.3061C11.2593 19.8 11.0446 19.3147 10.6626 18.9568C10.2806 18.599 9.76248 18.398 9.22222 18.398H2.74074C2.33164 18.398 2 18.0873 2 17.7041V4.69388ZM11.2593 17.6187C10.668 17.2255 9.95696 17.0102 9.22222 17.0102H3.48148V5.38776H8.2963C9.08212 5.38776 9.83576 5.68017 10.3914 6.20068C10.9471 6.72119 11.2593 7.42715 11.2593 8.16327V17.6187ZM12.7407 17.6187C13.332 17.2255 14.043 17.0102 14.7778 17.0102H20.5185V5.38776H15.7037C14.9179 5.38776 14.1642 5.68017 13.6086 6.20068C13.0529 6.72119 12.7407 7.42715 12.7407 8.16327V17.6187Z"></path>
</svg>
