<svg id="zip" viewBox="0 0 16 16"
  xmlns="http://www.w3.org/2000/svg">
  <path fill-rule="evenodd" clip-rule="evenodd" d="M3.33337 2.00002C2.96518 2.00002 2.66671 2.2985 2.66671 2.66669V13.3334C2.66671 13.7015 2.96518 14 3.33337 14H6.00004V10H4.00004V8.66669H6.00004V7.33335H4.00004V6.00002H6.00004V4.66669L4.00004 4.66669V3.33335L6.00004 3.33335V2.00002H3.33337ZM7.33337 8.66669V10H9.33337V11.3334H7.33337V14H12.6667C13.0349 14 13.3334 13.7015 13.3334 13.3334V5.33335H11.3334C10.597 5.33335 10 4.7364 10 4.00002V2.00002H7.33337V4.66669L9.33337 4.66669V6.00002H7.33337V7.33335H9.33337V8.66669H7.33337ZM13.0572 4.00002H11.3334V2.27616L13.0572 4.00002ZM1.33337 2.66669C1.33337 1.56212 2.2288 0.666687 3.33337 0.666687H10.7811C11.3115 0.666687 11.8202 0.877401 12.1953 1.25247L14.0809 3.13809C14.456 3.51317 14.6667 4.02187 14.6667 4.55231V13.3334C14.6667 14.4379 13.7713 15.3334 12.6667 15.3334H3.33337C2.2288 15.3334 1.33337 14.4379 1.33337 13.3334V2.66669Z" />
</svg>
