<svg width="385" height="1081" viewBox="0 0 385 1081" fill="none" xmlns="http://www.w3.org/2000/svg">
<g clip-path="url(#clip0_1251_11971)">
<path d="M73.6693 768.674C72.8389 768.54 71.9889 768.741 71.3064 769.232C70.6239 769.724 70.1647 770.467 70.0298 771.298C67.969 783.977 66.9914 790.228 62.6785 799.319C60.0238 804.915 56.5108 807.058 53.0798 808.028L57.7108 787.789C57.8037 787.383 57.8157 786.962 57.7462 786.552C57.6766 786.141 57.5267 785.748 57.3052 785.395C57.0836 785.042 56.7947 784.736 56.455 784.495C56.1152 784.253 55.7313 784.081 55.325 783.989C54.505 783.801 53.6442 783.948 52.9319 784.395C52.2195 784.842 51.714 785.554 51.5265 786.374L46.4018 808.769C42.5341 808.498 39.7858 806.98 39.7858 806.98L37.4641 805.565L35.7104 807.646C35.7104 807.646 35.1675 808.383 34.8264 809.166C34.4852 809.948 34.1078 811.057 33.7502 812.669C33.1788 815.245 32.7436 819.676 32.5542 825.571C27.8444 823.878 24.1932 821.444 21.0346 818.597L30.3544 788.006C30.5997 787.201 30.5153 786.332 30.1199 785.59C29.7244 784.847 29.0501 784.292 28.2455 784.046C27.8469 783.925 27.4282 783.883 27.0135 783.924C26.5988 783.964 26.1961 784.086 25.8284 784.282C25.4607 784.478 25.1352 784.744 24.8705 785.066C24.6058 785.388 24.4071 785.759 24.2858 786.157L16.0855 813.076C10.2722 805.545 8.26523 797.989 8.26523 797.989C8.17302 797.583 8.00168 797.198 7.76098 796.858C7.52028 796.518 7.21495 796.229 6.8624 796.007C6.50985 795.785 6.11701 795.634 5.7063 795.564C5.29559 795.494 4.87505 795.505 4.46871 795.597C3.64843 795.784 2.93586 796.289 2.4877 797C2.03954 797.712 1.89248 798.573 2.07885 799.394C2.07885 799.394 4.86027 811.848 15.1952 821.894C19.5281 826.105 25.0887 829.945 32.5336 832.201L34.9709 869.976C35.0251 870.816 35.4104 871.599 36.0422 872.155C36.6739 872.71 37.5004 872.992 38.3399 872.938C38.7557 872.911 39.1622 872.803 39.5362 872.619C39.9101 872.435 40.2441 872.179 40.5192 871.866C40.7942 871.553 41.0049 871.189 41.1392 870.794C41.2735 870.4 41.3288 869.983 41.3019 869.567L38.7365 829.805C38.7394 821.446 39.3758 816.617 39.9469 814.043C39.959 813.988 39.9638 813.996 39.9758 813.943C42.2549 814.741 45.413 815.472 49.1697 815.17C54.366 814.753 62.3769 812.502 67.3735 803.851H83.4622C84.3037 803.851 85.1106 803.517 85.7056 802.922C86.3006 802.327 86.6349 801.52 86.6349 800.678C86.6349 799.837 86.3006 799.03 85.7056 798.435C85.1106 797.84 84.3037 797.506 83.4622 797.506H70.2901C73.3373 789.812 74.5666 782.936 76.2926 772.316C76.3596 771.905 76.3449 771.484 76.2493 771.078C76.1537 770.673 75.9791 770.29 75.7355 769.952C75.4919 769.614 75.184 769.327 74.8295 769.108C74.475 768.888 74.0808 768.741 73.6693 768.674V768.674Z" fill="#DADFE9"/>
<path d="M-23.972 792.367L-1.25892 776.655C-1.25892 776.655 -4.94059 743.362 8.43685 742.944C19.3113 742.604 23.1904 746.433 30.3512 757.205C34.3438 763.211 60.1599 731.628 77.6299 740.782C95.0999 749.936 101.625 754.147 96.6357 767.548C91.6462 780.95 96.53 767.501 114 776.655C124 781.894 127.782 781.033 114 797.559C100.218 814.086 80.4623 831.072 76.0123 817.142C71.5624 803.213 92.4806 779.381 76.7973 779.447C61.1139 779.514 69.8418 807.834 48.1275 802.532C26.4131 797.229 28.7394 779.119 15.4496 797.559C2.15974 816 -5.81988 846.059 -19.4966 825.639C-33.1733 805.218 -23.972 792.367 -23.972 792.367Z" fill="#EFF0F5"/>
<path d="M73.1553 880.559C55.4675 874.423 23.8549 845.601 66.4326 808.849C109.01 772.098 111.699 797.196 111.699 803.023C111.699 808.849 106.769 785.544 133.66 789.577C160.552 793.611 153.381 841.567 153.381 841.567C153.381 841.567 188.339 846.497 170.86 868.01C153.381 889.523 143.521 880.559 143.521 880.559C143.521 880.559 143.397 898.871 104.08 880.559C96.5515 877.053 95.1165 888.178 73.1553 880.559Z" fill="#9BA8C1"/>
<path fill-rule="evenodd" clip-rule="evenodd" d="M117.576 860.214C118.911 860.564 119.71 861.931 119.359 863.266C118.743 865.615 118.329 870.486 118.114 877.042C117.917 883.041 117.889 890.218 117.962 897.676C119.045 896.645 120.275 895.294 121.512 893.571C125.207 888.426 129.06 879.827 129.06 866.217C129.06 864.836 130.179 863.717 131.56 863.717C132.941 863.717 134.06 864.836 134.06 866.217C134.06 880.843 129.896 890.468 125.573 896.488C123.422 899.483 121.256 901.552 119.599 902.888C119.01 903.362 118.484 903.744 118.047 904.042C118.223 914.698 118.559 925.369 118.858 933.493C119.014 937.735 119.159 941.28 119.265 943.765C119.318 945.007 119.362 945.984 119.392 946.65C119.407 946.983 119.418 947.238 119.426 947.41L119.438 947.668C119.438 947.668 119.439 947.669 117.071 947.781L119.438 947.668C119.504 949.047 118.439 950.219 117.059 950.284C115.68 950.35 114.509 949.284 114.444 947.905L116.863 947.791C114.444 947.905 114.444 947.905 114.444 947.905L114.444 947.904L114.432 947.641C114.424 947.467 114.412 947.21 114.397 946.875C114.367 946.206 114.323 945.225 114.27 943.978C114.163 941.485 114.017 937.93 113.861 933.677C113.549 925.173 113.194 913.873 113.025 902.703C112.901 894.515 112.877 886.375 113.044 879.449C112.894 879.441 112.739 879.432 112.579 879.422C110.642 879.295 107.949 878.951 104.871 878.085C98.6997 876.348 90.9595 872.502 84.7345 864.123C83.9112 863.014 84.1422 861.448 85.2506 860.625C86.3589 859.802 87.9249 860.033 88.7482 861.141C94.1761 868.448 100.873 871.766 106.225 873.272C108.909 874.027 111.249 874.324 112.906 874.432C113.009 874.439 113.11 874.445 113.208 874.451C113.44 869.064 113.841 864.598 114.523 861.997C114.874 860.662 116.24 859.863 117.576 860.214ZM115.425 874.467C115.426 874.467 115.426 874.467 115.425 874.467Z" fill="#7A89A7"/>
<path d="M73.1553 880.559C54.7797 876.974 23.8549 845.601 66.4325 808.849C109.01 772.098 111.699 797.196 111.699 803.023C111.699 808.849 106.769 785.544 133.66 789.577C160.552 793.611 153.381 841.567 153.381 841.567C153.381 841.567 188.339 846.497 170.86 868.01C153.381 889.523 139.487 873.836 139.487 873.836C139.487 873.836 138.591 855.461 111.699 859.494C84.8082 863.528 91.531 884.145 73.1553 880.559Z" fill="#BEC7D8"/>
<path d="M219 962.605C145.5 935.105 46.5128 901.845 0 801.105V1080.91H384.5C341 1030.11 292.5 990.105 219 962.605Z" fill="#DADFE9"/>
<path d="M192 979.105C95.5 937.105 61 920.105 0 859.105V1080.91H377C313.5 1020.61 288.5 1021.11 192 979.105Z" fill="#EFF0F5"/>
<path d="M155.723 1011.5C192.331 1005.34 238.024 1025.42 238.024 1025.42L255.819 1028.27C255.819 1028.27 250.837 1034.68 227.347 1035.39C203.858 1036.11 200.453 1034.83 185.404 1032.34C159.374 1028.02 109.667 1026.53 124.135 1011.5C132.242 1003.08 141.066 1013.97 155.723 1011.5Z" fill="#BEC7D8"/>
<path d="M158.987 1026.94C154.78 1000.05 154.743 999.864 154.743 999.864C154.743 999.864 167.003 964.798 169.84 958.036C179.377 935.304 212.922 937.37 233.595 939.65C256.972 942.229 255.968 918.752 248.522 914.619C241.03 915.336 219.914 930.134 210.011 905.322C228.061 893.411 230.284 885.416 246.643 882.325C249.522 881.781 253.014 881.949 255.855 883.401C256.53 883.745 254.999 885.059 253.885 886.283C261.269 878.229 271.426 878.971 273.217 876.516C272.471 881.378 270.098 888.375 260.371 894.596C262.509 893.903 264.366 893.013 266.247 891.294C287.388 912.993 299.642 967.476 248.977 991.663C246.187 1004.2 246.524 1018.55 246.355 1030.94C245.774 1033.96 236.967 1034.58 235.403 1032.97C233.874 1031.4 228.892 980.084 228.423 974.591C227.92 968.707 227.158 991.415 228.323 991.755C218.733 992.706 208.287 991.808 194.829 984.407C200.448 978.83 201.295 976.361 202.838 973.061C202.838 973.061 177.245 1000.5 170.882 1003.65C164.518 1006.79 170.199 1027.52 170.199 1027.52L158.987 1026.94Z" fill="#F9F9FB"/>
<path d="M177.454 1000.84L193.655 986.172L196.404 987.95C197.352 987.09 190.704 995.713 203.075 1023.32C197.842 1026.48 194.565 1024.76 192.187 1023.75C192.187 1023.75 178.854 1010.87 177.454 1000.84Z" fill="#F9F9FB"/>
<path d="M247.979 1030.79C247.979 1030.79 257.661 1032.62 256.849 1030.71C255.239 1026.91 261.427 983.395 264.974 983.469C261.209 986.428 255.137 991.762 249.999 992.636C247.506 1006.67 247.89 1019.57 247.979 1030.79Z" fill="#F9F9FB"/>
<path d="M243.666 900.078C243.666 900.448 243.546 900.815 243.313 901.158C243.08 901.5 242.738 901.812 242.307 902.074C241.877 902.336 241.365 902.544 240.803 902.686C240.24 902.828 239.637 902.901 239.028 902.901C238.419 902.901 237.816 902.828 237.253 902.686C236.69 902.544 236.179 902.336 235.748 902.074C235.318 901.812 234.976 901.5 234.743 901.158C234.51 900.815 234.39 900.448 234.39 900.078C234.39 899.707 234.51 899.34 234.743 898.997C234.976 898.655 235.318 898.344 235.748 898.082C236.179 897.819 236.69 897.611 237.253 897.47C237.816 897.328 238.419 897.255 239.028 897.255C239.637 897.255 240.24 897.328 240.803 897.47C241.365 897.611 241.877 897.819 242.307 898.082C242.738 898.344 243.08 898.655 243.313 898.997C243.546 899.34 243.666 899.707 243.666 900.078Z" fill="#F9F9FB"/>
<path d="M167.353 959.371C168.453 955.625 170.397 951.792 174.931 947.695C169.531 945.305 164.366 942.298 159.396 938.785C157.415 938.293 152.265 956.722 167.353 959.371Z" fill="#F9F9FB"/>
<path d="M226.809 890.366C229.139 887.549 232.772 885.48 235.361 884.696C235.361 884.696 229.093 880.054 224.013 881.794C220.717 882.924 222.449 888.751 226.809 890.366Z" fill="#F9F9FB"/>
<path d="M248.832 886.3C248.832 886.3 270.066 854.647 263.421 834.139C267.388 833.372 268.045 855.782 266.925 861.731C266.438 864.316 291.239 844.667 288.07 834.37C291.067 836.543 290.32 843.558 290.32 843.558C290.32 843.558 296.992 832.017 295.127 824.977C297.445 824.881 298.566 838.768 294.17 846.301C292.769 848.701 311.33 834.927 304.754 815.321C307.673 816.737 311.421 834.342 311.421 834.342C311.421 834.342 325.085 822.806 317.013 802.529C330.087 823.876 323.279 840.781 269.709 864.24C260.423 868.306 260.544 880.034 260.544 880.034L248.832 886.3Z" fill="#F9F9FB"/>
<path d="M239.918 881.783C221.858 871.158 222.145 857.767 224.65 844.041C220.802 846.078 219.1 854.048 218.848 866.03C208.093 859.456 194.643 856.04 198.964 831.8C196.868 837.092 196.554 843.811 197.342 851.415C189.527 841.853 186.789 838.744 190.062 811.623C188.719 821.854 183.394 837.141 188.747 846.578C204.411 874.193 220.228 871.425 235.936 883.816L239.918 881.783Z" fill="#F9F9FB"/>
<path d="M178.031 1004.34L194.644 989.311L197.463 991.133C198.435 990.251 190.592 997.038 203.278 1025.33C197.913 1028.57 194.552 1026.81 192.114 1025.77C192.114 1025.77 179.467 1014.63 178.031 1004.34Z" fill="#7A89A7"/>
<path d="M250.349 1032.99C250.349 1032.99 260.277 1034.86 259.445 1032.9C257.794 1029.01 264.139 986.464 267.776 986.54C263.916 989.572 257.689 995.04 252.421 995.936C249.865 1010.31 250.258 1021.49 250.349 1032.99Z" fill="#7A89A7"/>
<path d="M167.674 961.843C168.801 958.004 170.795 954.076 175.444 949.877C169.907 947.428 164.611 944.347 159.514 940.746C157.483 940.242 152.202 959.129 167.674 961.843Z" fill="#7A89A7"/>
<path d="M228.642 891.125C231.031 888.237 234.756 886.117 237.411 885.313C237.411 885.313 230.983 880.556 225.774 882.34C222.394 883.497 224.171 889.469 228.642 891.125Z" fill="#7A89A7"/>
<path d="M251.224 886.957C251.224 886.957 252.286 885.375 253.867 882.683C259.447 873.186 271.493 849.876 266.184 833.501C270.252 832.715 270.926 855.681 269.777 861.777C269.277 864.427 294.709 844.29 291.46 833.737C294.533 835.964 293.767 843.154 293.767 843.154C293.767 843.154 300.609 831.326 298.696 824.111C301.073 824.012 302.222 838.244 297.714 845.964C296.278 848.424 315.311 834.307 308.568 814.215C311.561 815.666 315.405 833.709 315.405 833.709C315.405 833.709 329.416 821.886 321.138 801.105C334.544 822.982 327.564 840.308 272.632 864.349C263.11 868.516 263.234 880.535 263.234 880.535L257.539 883.581L251.224 886.957Z" fill="#7A89A7"/>
<path d="M242.083 882.328C223.564 871.439 223.859 857.715 226.427 843.648C222.482 845.736 220.736 853.903 220.478 866.184C209.449 859.446 195.657 855.945 200.088 831.103C197.939 836.526 197.617 843.413 198.425 851.205C190.411 841.406 187.603 838.22 190.959 810.425C189.583 820.91 184.123 836.577 189.612 846.248C205.674 874.55 221.893 871.713 238.001 884.412L242.083 882.328Z" fill="#7A89A7"/>
<path fill-rule="evenodd" clip-rule="evenodd" d="M253.867 882.683C255.122 882.818 256.37 883.106 257.539 883.581L251.224 886.957C251.224 886.957 252.286 885.375 253.867 882.683Z" fill="#7A89A7"/>
<path fill-rule="evenodd" clip-rule="evenodd" d="M154.743 1003.34C154.743 1003.34 158.189 1024.57 159.095 1027.09C160 1029.61 170.592 1027.69 170.592 1027.69C170.592 1027.69 164.767 1010.45 171.292 1007.22C177.817 1003.99 204.061 975.874 204.061 975.874C203.926 976.163 203.796 976.446 203.667 976.725C202.295 979.712 201.117 982.275 195.848 987.501C209.648 995.086 220.36 996.007 230.194 995.032C228.999 994.684 229.781 971.412 230.296 977.441C230.777 983.071 235.886 1033.62 237.454 1035.22C239.057 1036.87 248.089 1036.24 248.684 1033.14C248.708 1031.37 248.722 1029.6 248.736 1027.83C248.824 1016.91 248.911 1005.99 251.373 994.938C303.325 970.15 290.76 914.313 269.082 892.076C267.153 893.837 265.249 894.749 263.057 895.459C273.031 889.083 275.464 881.913 276.229 876.93C275.562 877.844 273.764 878.326 271.381 878.964C267.203 880.083 261.228 881.683 256.406 886.94C256.642 886.681 256.896 886.418 257.144 886.16C258.1 885.172 258.975 884.266 258.426 883.986C258.153 883.846 257.874 883.718 257.59 883.602L257.539 883.581L251.224 886.957C251.224 886.957 252.286 885.375 253.867 882.683C252.189 882.503 250.501 882.596 248.979 882.884C238.254 884.909 233.454 888.989 226.549 894.86C222.655 898.17 218.091 902.05 211.416 906.452C219.473 926.627 234.767 921.248 244.579 917.798C247.135 916.899 249.319 916.131 250.906 915.979C258.542 920.216 259.571 944.276 235.6 941.633C214.401 939.296 180.003 937.179 170.224 960.475C167.315 967.405 154.743 1003.34 154.743 1003.34ZM245.565 902.184C245.804 901.833 245.927 901.457 245.927 901.077C245.927 900.697 245.804 900.321 245.565 899.97C245.326 899.619 244.975 899.3 244.534 899.031C244.092 898.763 243.568 898.55 242.991 898.404C242.414 898.259 241.795 898.184 241.171 898.184C240.546 898.184 239.928 898.259 239.351 898.404C238.774 898.55 238.25 898.763 237.808 899.031C237.366 899.3 237.016 899.619 236.777 899.97C236.538 900.321 236.415 900.697 236.415 901.077C236.415 901.457 236.538 901.833 236.777 902.184C237.016 902.535 237.366 902.854 237.808 903.123C238.25 903.391 238.774 903.605 239.351 903.75C239.928 903.895 240.546 903.97 241.171 903.97C241.795 903.97 242.414 903.895 242.991 903.75C243.568 903.605 244.092 903.391 244.534 903.123C244.975 902.854 245.326 902.535 245.565 902.184Z" fill="#7A89A7"/>
<path d="M245.927 901.077C245.927 901.457 245.804 901.833 245.565 902.184C245.326 902.535 244.975 902.854 244.534 903.123C244.092 903.391 243.568 903.605 242.991 903.75C242.414 903.895 241.795 903.97 241.171 903.97C240.546 903.97 239.928 903.895 239.351 903.75C238.774 903.605 238.25 903.391 237.808 903.123C237.366 902.854 237.016 902.535 236.777 902.184C236.538 901.833 236.415 901.457 236.415 901.077C236.415 900.697 236.538 900.321 236.777 899.97C237.016 899.619 237.366 899.3 237.808 899.031C238.25 898.763 238.774 898.55 239.351 898.404C239.928 898.259 240.546 898.184 241.171 898.184C241.795 898.184 242.414 898.259 242.991 898.404C243.568 898.55 244.092 898.763 244.534 899.031C244.975 899.3 245.326 899.619 245.565 899.97C245.804 900.321 245.927 900.697 245.927 901.077Z" fill="#7A89A7"/>
</g>
<defs>
<clipPath id="clip0_1251_11971">
<rect width="385" height="1081" fill="white"/>
</clipPath>
</defs>
</svg>
