<svg width="485" height="1081" fill="currentColor" viewBox="0 0 485 1081" xmlns="http://www.w3.org/2000/svg">
  <defs/>
  <defs>
    <clipPath id="a" class="clip0_1251_11957">
      <path fill="#fff" d="M0 0h485v1080H0z" transform="translate(0 .105)"/>
    </clipPath>
  </defs>
  <g class="der" clip-path="url(#a)">
    <path fill="#EFF0F5" d="M278.266 849.666c-28.006 43.685-42.008 159.204-35.576 165.274 6.432 6.06 21.394 7.87 35.576 7.42 12.298-.4 23.045-4.29 30.63-7.42 7.584-3.14-23.163-176.923-30.63-165.274z" class="Line 3"/>
    <g fill="#fff" class="Intersect" style="mix-blend-mode:luminosity">
      <path d="M294.211 900.7a512.522 512.522 0 01-4.576-3.525c-8.09-6.316-15.945-12.958-21.537-19.523a59.023 59.023 0 01-2.057-2.551 228.906 228.906 0 00-1.22 3.302c.324.399.655.797.993 1.194 5.802 6.811 13.862 13.61 21.975 19.943a613.418 613.418 0 007.324 5.611 1051 1051 0 00-.902-4.451zM299.48 928.172c-6.131-.982-12.969-2.327-19.784-3.738-3.191-.66-6.377-1.335-9.478-1.991l-.003-.001c-6.259-1.325-12.17-2.577-17.069-3.489-.226.975-.449 1.951-.669 2.927 4.871.904 10.762 2.151 17.05 3.483 3.115.659 6.327 1.34 9.561 2.009 7.181 1.486 14.464 2.917 20.951 3.925-.185-1.042-.371-2.084-.559-3.125zM306.411 971.103c-26.78-9.502-45.425-27.33-55.98-39.716a544.495 544.495 0 00-.751 3.719c11.206 12.751 30.247 30.171 57.192 39.333a1120.1 1120.1 0 00-.461-3.336zM308.231 985.06c-6.748 2.417-16.54 4.468-26.873 5.581-13.037 1.405-26.59 1.28-35.592-1.309a28.129 28.129 0 01-3.804-1.372 276.977 276.977 0 00-.252 3.154c1.021.412 2.101.777 3.226 1.101 9.567 2.752 23.585 2.827 36.743 1.409 10.068-1.085 19.835-3.066 26.906-5.51-.113-.998-.231-2.016-.354-3.054z"/>
    </g>
    <path fill="#DADFE9" d="M350.148 803.75c-34.19 53.332-51.284 194.359-43.431 201.77 7.852 7.4 26.117 9.61 43.431 9.05 15.014-.48 28.135-5.23 37.394-9.05 9.26-3.83-28.277-215.992-37.394-201.77z" class="Line 4"/>
    <g fill="#F9F9FB" class="Intersect_2" style="mix-blend-mode:luminosity">
      <path d="M369.716 866.547a622.12 622.12 0 01-5.891-4.537c-9.88-7.711-19.492-15.838-26.342-23.88a72.85 72.85 0 01-2.397-2.963c-.41 1.09-.817 2.191-1.22 3.302a83.35 83.35 0 001.334 1.606c7.059 8.288 16.877 16.571 26.779 24.3a718.828 718.828 0 008.639 6.623c-.3-1.495-.601-2.979-.902-4.451zM376.11 899.937c-7.525-1.202-15.922-2.854-24.283-4.584-3.901-.808-7.795-1.632-11.583-2.435-7.644-1.618-14.859-3.146-20.838-4.258a589.45 589.45 0 00-.668 2.927c5.95 1.104 13.144 2.628 20.818 4.252 3.801.805 7.72 1.635 11.663 2.451 8.727 1.806 17.569 3.544 25.449 4.772a1566.23 1566.23 0 00-.558-3.125zM384.56 952.372c-32.711-11.56-55.517-33.278-68.477-48.443a597.251 597.251 0 00-.751 3.718c13.611 15.53 36.814 36.841 69.689 48.061-.15-1.101-.304-2.213-.461-3.336zM386.771 969.379c-8.276 2.954-20.228 5.45-32.812 6.806-15.93 1.716-32.527 1.569-43.579-1.61-1.687-.486-3.218-1.034-4.582-1.643-.09 1.071-.174 2.123-.252 3.153 1.262.514 2.602.969 4.005 1.373 11.617 3.341 28.678 3.439 44.729 1.71 12.319-1.328 24.246-3.754 32.845-6.735-.114-1.002-.232-2.02-.354-3.054z"/>
    </g>
    <path fill="#9BA8C1" d="M421 642.105c11.342-291.351-15.707-419.486-15.707-419.486v-74.514l11.342-15.515-63.8-141.779h19.849l43.951 99.245s7.089 43.951 28.356 0c21.267-43.951 83.65-176.514 83.65-176.514h14.177L430.813 168.034l14.178 245.277 56.003-230.39 116.258-399.816h45.369L542.818 168.034s-9.215 24.103 12.76 14.887c21.976-9.216 190.693-155.248 190.693-155.248v10.634L542.818 232.544s-14.177 4.962-14.177 31.9-27.647 206.288-27.647 206.288-3.811 102.503 0 136.107c7.798 68.763 16.304 227.555 16.304 227.555v68.054s-112.005 26.229-112.005 0 4.365 31.008 15.707-260.343zm-15.707-450.677l-32.609-14.887L185.536-24.785h-7.798l79.396 94.283s8.507 5.671-5.671 5.671S65.5-9.189 65.5-9.189l-66-21.206L241.539 90.056 405.293 222.62" class="Vector"/>
    <g fill="#BEC7D8" class="Intersect_3">
      <path d="M419.703 674.672c.339-8.314.685-16.954 1.038-25.934 9.09 15.347 16.842 30.677 24.064 44.96 10.724 21.211 20.281 40.112 31.323 53.331 13.887 16.623 26.32 28.927 37.817 37.368.379 6.237.733 12.152 1.058 17.65-15.957-9.421-32.21-24.923-49.757-45.93-9.519-11.396-17.671-27.714-26.624-45.635-5.778-11.567-11.891-23.801-18.919-35.81z"/>
      <path d="M412.282 827.096c.304-4.838.619-10.055.945-15.682 30.349 31.281 50.105 41.234 65.617 49.05 1.556.784 3.068 1.546 4.545 2.306 1.605.822 3.376 1.715 5.023 2.545 1.564.794 3.015 1.524 4.102 2.084 2.486 1.29 4.885 2.594 6.729 3.934 1.472 1.064 4.587 3.516 5.094 7.642.573 4.672-2.489 7.762-4.118 9.138-1.865 1.581-4.389 3.048-7.113 4.48-2.825 1.489-6.373 3.197-10.577 5.196a1872.08 1872.08 0 00-3.603 1.701c-7.449 3.521-16.899 7.991-28.616 13.895-17.966 1.466-34.362.984-41.394-4.186 11.148.415 21.887-1.811 32.142-7.022 12.974-6.591 23.372-11.512 31.356-15.29l.465-.22c.64-.301 1.264-.597 1.872-.884l1.701-.804c4.121-1.956 7.354-3.516 9.854-4.827l-.033-.017a448.465 448.465 0 00-4.205-2.138l-.803-.405c-1.263-.638-2.664-1.344-4.362-2.218-1.801-.927-3.632-1.842-5.507-2.779-14.68-7.339-32.06-16.027-59.129-42.119l.015-3.38zm78.902 50.086a.422.422 0 00.087-.085.46.46 0 00-.087.085zm.188 6.004c.008 0-.029-.043-.132-.128a.668.668 0 00.132.128z"/>
      <path d="M500.489 486.229c-.179 6.029-.383 13.483-.571 21.752-12.667-15.606-23.123-32.514-34.096-50.259-12.665-20.482-26.019-42.077-44.258-64.068-.43-10.275-.91-20.062-1.427-29.369 6.807 8.045 10.013 12.793 13.248 17.585 2.764 4.095 5.55 8.222 10.625 14.467l.981 16.974 2.629-10.812c9.567 12.25 18.832 28.409 27.778 44.01 8.67 15.121 17.04 29.718 25.091 39.72zM518.419 352.225a5930.938 5930.938 0 01-2.558 18.157c-15.848-17.289-33.108-35.5-48.036-51.006l3.963-16.303c14.471 14.937 31.259 32.53 46.631 49.152zM524.718 304.865c-.718 5.779-1.51 11.937-2.356 18.353-15.053-16.08-30.658-33.876-43.445-49.473l4.209-17.316c12.276 15.25 27.259 32.691 41.592 48.436zM546.368 229.155l-3.549 3.389s-3.591 1.256-7.158 5.938c-7.64-9.98-15.478-20.618-23.612-32.035-1.495-2.098-3.417-4.649-5.411-7.294-2.532-3.357-5.177-6.867-7.208-9.797l1.564-6.435 3.482-11.977c3.964 6.263 9.476 13.895 14.455 20.79 1.638 2.267 3.217 4.455 4.665 6.487 7.851 11.02 15.41 21.293 22.772 30.934zM605.166 173.02l-10.359 9.89c-1.762-2.96-3.745-6.545-5.705-10.09-1.88-3.4-3.739-6.762-5.363-9.498 3.505-2.71 7.233-5.633 11.14-8.732 1.549 2.638 3.32 5.878 5.105 9.144 1.782 3.26 3.579 6.547 5.182 9.286zM561.389 108.366l-5.588 17.955c-7.236-11.703-17.698-29.956-25.561-43.979l5.574-19.167c7.091 13.006 18.34 33.116 25.575 45.191zM436.553 267.33l1.23 21.286c-5.632-5.624-10.214-9.504-14.766-13.358-3.614-3.06-7.209-6.104-11.296-9.993-1.523-12.501-2.933-22.176-4.042-29.127 4.401 4.461 9.034 9.626 13.729 14.861 5.047 5.627 10.165 11.333 15.145 16.331zM431.959 187.858l1.475 25.504-2.17-2.881-1.094-1.453c-4.882-6.484-9.979-12.787-14.913-18.889-3.443-4.258-6.807-8.418-9.964-12.473v-22.815a1498.38 1498.38 0 007.915 9.647c6.181 7.492 12.623 15.301 18.751 23.36zM467.686 84.254l-8.835 20.076c-.295-.905-.584-1.806-.865-2.703-.819-2.602-2.028-5.911-3.286-9.356-1.669-4.571-3.426-9.38-4.472-13.091a8575.379 8575.379 0 0010.398-21.773c1.065 6.379 3.587 14.984 5.924 22.956.386 1.319.768 2.62 1.136 3.89zM498.072 15.213l-5.928 13.47c-4.531-3.484-10.206-7.13-13.579-9.063l6.071-12.824c3.492 1.907 9.058 5.338 13.436 8.417zM263.149 58.708l8.992 9.673c-6.661 7.52-16.703 18.248-25.815 25.55l-4.787-3.875-16.413-8.168 15.94-9.718c5.167 1.918 8.792 3 10.397 3 14.178 0 5.672-5.672 5.672-5.672l-3.964-4.707 9.978-6.083zM423.138 569.417c.346-17.726.543-34.726.612-51.009 2.252 10.789 6.314 27.959 11.328 39.074 10.533 23.346 28.068 37.039 44.841 50.137 7.884 6.157 15.601 12.182 22.342 19.017.686 6.886 1.384 14.383 2.053 22.323-7.609-7.843-17.794-14.997-28.449-22.481-21.324-14.978-44.529-31.278-52.727-57.061zM513.945 784.397a.195.195 0 00.023.017l-.027-.07.004.053z"/>
    </g>
    <g class="Vector_2">
      <path fill="#DADFE9" d="M485.441 1080.34V950.21s-163.5-44-294.75 87c-15.308 15.28-33.562 29.45-53.691 43.13h348.441z"/>
      <path fill="#EFF0F5" d="M485.441 969.718c-51.366-6.52-171.825-8.413-272.518 91.492-6.924 6.87-14.427 12.58-22.429 19.13h294.947V969.718z"/>
    </g>
    <path fill="#9BA8C1" d="M485.31 963.575a5.63 5.63 0 10-10.807-3.168l-22.118 75.433c-.43-.1-.88-.19-1.35-.27-4.615-.79-11.085-.79-19.893 1.32l-34.445-46.483-9.132 6.589 20.96 29.834 10.918 13.67c-.527.19-1.05.38-1.568.57-1.165.41-2.304.82-3.407 1.21-4.165 1.44-8.163 2.66-12.31 3.29-7.988 1.21-17.082.3-28.77-7.03-6.22-3.9-12.706-8.83-19.42-14.99a5.625 5.625 0 00-7.956.34 5.625 5.625 0 00.342 7.95c3.996 3.67 7.948 6.96 11.85 9.89l-47.311 17.14c-2.924 1.05-4.436 4.28-3.377 7.21 1.058 2.92 4.287 4.43 7.211 3.38l55.061-19.94c12.919 7.47 23.99 8.71 34.054 7.19 5.186-.79 9.962-2.28 14.323-3.8 1.346-.46 2.626-.92 3.866-1.37h.001c2.924-1.05 5.62-2.02 8.412-2.82 9.509-2.73 15.433-2.6 18.69-2.05 1.631.28 2.634.68 3.126.91.164.08.275.14.338.17l.088.08.287.19h.004l.04.03c.039.02.103.07.191.13.175.11.444.3.798.55.706.49 1.748 1.24 3.045 2.23 2.597 1.98 6.2 4.89 10.178 8.6 8.01 7.47 17.274 17.94 23.05 30.28 6.061 12.96 8.794 21.83 10.022 27.3.613 2.73.849 4.61.939 5.73a14.485 14.485 0 01.051 1.24 5.637 5.637 0 005.154 5.98c3.1.25 5.82-2.05 6.077-5.15l-5.612-.47c5.612.47 5.612.46 5.613.46v-.01l.001-.01.003-.04.006-.08.01-.21c.007-.17.012-.37.011-.62 0-.49-.021-1.15-.089-1.99-.135-1.69-.456-4.09-1.175-7.3-1.438-6.41-4.471-16.05-10.811-29.6-6.626-14.16-17.02-25.77-25.568-33.74a144.39 144.39 0 00-11.04-9.33l-.119-.09c5.115-6.97 12.654-14.23 21.612-21.4 10.727-8.59 23.121-16.76 34.943-23.865 11.808-7.094 22.959-13.069 31.161-17.272a490.398 490.398 0 019.781-4.882c1.162-.563 2.067-.994 2.677-1.283l.691-.325.172-.08.051-.024a5.63 5.63 0 10-4.728-10.221l2.364 5.111c-2.364-5.111-2.366-5.11-2.366-5.11l-.005.002-.065.031-.193.09-.735.345c-.641.303-1.577.75-2.773 1.329a504.567 504.567 0 00-10.006 4.994c-8.359 4.283-19.743 10.383-31.826 17.642-12.068 7.251-24.922 15.708-36.181 24.728-3.301 2.64-6.497 5.35-9.515 8.12l16.499-56.265z" class="Union"/>
    <path fill="#7A89A7" d="M258.82 1066.58s36.378-32.91 36.378-43.31c0-10.39-31.181-81.416 0-81.416s99.607 7.795 99.607 21.654c0 13.858-45.04-107.403 0-107.403s99.607 18.189 99.607 43.308c0 25.118-16.457 0 28.583 0s110.867 26.85 94.41 64.095c-16.457 37.242-102.205 77.952-122.993 59.762-20.788-18.19 5.197-72.755-28.583-59.762-33.78 12.992 7.795 50.232-43.307 59.762-51.103 9.53-60.631-20.79-74.489 19.06-13.858 39.84-6.929 93.54-52.835 72.75-45.906-20.78-36.378-48.5-36.378-48.5z" class="Vector_3"/>
  </g>
</svg>
