<svg width="385" height="343" viewBox="0 0 385 343" xmlns="http://www.w3.org/2000/svg">
  <defs/>
  <defs>
    <clipPath id="a" class="clip0_1251_11971">
      <path fill="#fff" d="M0 0h385v342H0z" transform="translate(0 .105)"/>
    </clipPath>
  </defs>
  <g class="ilustracion izquierda" clip-path="url(#a)">
    <path fill="#DADFE9" d="M73.67 29.674a3.173 3.173 0 00-3.64 2.624c-2.061 12.679-3.039 18.93-7.352 28.021-2.654 5.596-6.167 7.739-9.598 8.709l4.63-20.239a3.176 3.176 0 00-2.385-3.8 3.173 3.173 0 00-3.799 2.385L46.402 69.77c-3.868-.271-6.616-1.789-6.616-1.789l-2.322-1.415-1.754 2.08s-.543.738-.884 1.52c-.34.783-.718 1.892-1.076 3.504-.571 2.576-1.006 7.007-1.196 12.901-4.71-1.692-8.36-4.126-11.52-6.973l9.32-30.59a3.173 3.173 0 10-6.068-1.85l-8.2 26.919c-5.814-7.53-7.82-15.087-7.82-15.087a3.172 3.172 0 10-6.187 1.405s2.781 12.455 13.116 22.5c4.333 4.211 9.894 8.051 17.339 10.307l2.437 37.775a3.174 3.174 0 004.565 2.643 3.176 3.176 0 001.766-3.052l-2.566-39.762c.003-8.359.64-13.188 1.21-15.762.013-.055.018-.047.03-.1 2.279.799 5.437 1.53 9.194 1.227 5.196-.417 13.207-2.668 18.204-11.319h16.088a3.173 3.173 0 000-6.345H70.29c3.047-7.694 4.277-14.57 6.003-25.19a3.172 3.172 0 00-2.624-3.642z" class="path823"/>
    <path fill="#EFF0F5" d="M-23.972 53.367l22.713-15.712S-4.94 4.362 8.437 3.945c10.874-.34 14.753 3.488 21.914 14.26C34.344 24.211 60.16-7.372 77.63 1.782c17.47 9.154 23.995 13.365 19.006 26.766-4.99 13.402-.106-.047 17.364 9.107 10 5.24 13.782 4.378 0 20.904-13.782 16.527-33.538 33.513-37.988 19.583-4.45-13.929 16.469-37.761.785-37.695-15.683.067-6.955 28.387-28.67 23.085-21.714-5.303-19.388-23.413-32.677-4.973C2.16 77-5.82 107.06-19.497 86.64c-13.676-20.42-4.475-33.272-4.475-33.272z" class="Vector"/>
    <path fill="#9BA8C1" d="M73.155 141.559c-17.688-6.136-49.3-34.958-6.722-71.71 42.577-36.75 45.266-11.653 45.266-5.826 0 5.826-4.93-17.48 21.961-13.446 26.892 4.034 19.721 51.99 19.721 51.99s34.958 4.93 17.479 26.443-27.339 12.549-27.339 12.549-.124 18.312-39.441 0c-7.528-3.506-8.963 7.619-30.925 0z" class="Vector_2"/>
    <path fill="#7A89A7" d="M117.576 121.214a2.499 2.499 0 011.783 3.052c-.616 2.349-1.03 7.22-1.245 13.776-.197 5.999-.225 13.176-.152 20.634a29.052 29.052 0 003.55-4.105c3.695-5.145 7.548-13.744 7.548-27.354a2.5 2.5 0 115 0c0 14.626-4.164 24.251-8.487 30.271-2.151 2.995-4.317 5.064-5.974 6.4-.589.474-1.115.856-1.552 1.154.176 10.656.512 21.327.811 29.451a1767.638 1767.638 0 00.534 13.157l.034.76.012.258s.001.001-2.367.113l2.367-.113a2.5 2.5 0 11-4.994.237l2.419-.114-2.419.114v-.001l-.012-.263-.035-.766c-.03-.669-.074-1.65-.127-2.897-.107-2.493-.253-6.048-.409-10.301-.312-8.504-.667-19.804-.836-30.974-.124-8.188-.148-16.328.019-23.254l-.465-.027a37.818 37.818 0 01-7.708-1.337c-6.171-1.737-13.911-5.583-20.136-13.962a2.5 2.5 0 014.013-2.982c5.428 7.307 12.125 10.625 17.477 12.131a32.77 32.77 0 006.681 1.16l.302.019c.232-5.387.633-9.853 1.315-12.454a2.5 2.5 0 013.053-1.783zm-2.151 14.253c.001 0 .001 0 0 0z" class="Vector (Stroke)"/>
    <path fill="#BEC7D8" d="M73.155 141.559c-18.375-3.585-49.3-34.958-6.722-71.71 42.577-36.75 45.266-11.653 45.266-5.826 0 5.826-4.93-17.48 21.961-13.446 26.892 4.034 19.721 51.99 19.721 51.99s34.958 4.93 17.479 26.443-31.373 5.826-31.373 5.826-.896-18.375-27.788-14.342c-26.89 4.034-20.168 24.651-38.544 21.065z" class="Vector_3"/>
    <g class="ground">
      <path fill="#DADFE9" d="M219 223.605c-73.5-27.5-172.487-60.76-219-161.5v279.808h384.5c-43.5-50.808-92-90.808-165.5-118.308z"/>
      <path fill="#EFF0F5" d="M192 240.105c-96.5-42-131-59-192-120v221.808h377c-63.5-60.308-88.5-59.808-185-101.808z"/>
    </g>
    <path fill="#BEC7D8" d="M155.723 272.501c36.608-6.156 82.301 13.922 82.301 13.922l17.795 2.849s-4.982 6.409-28.472 7.121c-23.489.712-26.894-.559-41.943-3.054-26.03-4.317-75.737-5.806-61.269-20.838 8.107-8.424 16.931 2.465 31.588 0z" class="shadow"/>
    <g fill="#F9F9FB" class="deer-white">
      <path d="M158.987 287.938c-4.207-26.891-4.244-27.074-4.244-27.074s12.26-35.066 15.097-41.828c9.537-22.732 43.082-20.666 63.755-18.386 23.377 2.579 22.373-20.898 14.927-25.031-7.492.717-28.608 15.515-38.511-9.297 18.05-11.911 20.273-19.906 36.632-22.997 2.879-.544 6.371-.376 9.212 1.076.675.344-.856 1.658-1.97 2.882 7.384-8.054 17.541-7.312 19.332-9.767-.746 4.862-3.119 11.859-12.846 18.08 2.138-.693 3.995-1.583 5.876-3.302 21.141 21.699 33.395 76.182-17.27 100.369-2.79 12.532-2.453 26.891-2.622 39.277-.581 3.021-9.388 3.635-10.952 2.031-1.529-1.566-6.511-52.887-6.98-58.38-.503-5.884-1.265 16.824-.1 17.164-9.59.951-20.036.053-33.494-7.348 5.619-5.577 6.466-8.046 8.009-11.346 0 0-25.593 27.436-31.956 30.585-6.364 3.149-.683 23.877-.683 23.877l-11.212-.585z"/>
      <path d="M177.454 261.835l16.201-14.663 2.749 1.778c.948-.86-5.7 7.763 6.671 35.37-5.233 3.161-8.51 1.439-10.888.427 0 0-13.333-12.874-14.733-22.912zM247.979 291.795s9.682 1.825 8.87-.088c-1.61-3.793 4.578-47.312 8.125-47.238-3.765 2.959-9.837 8.293-14.975 9.167-2.493 14.031-2.109 26.934-2.02 38.159zM243.666 161.078c0 .37-.12.737-.353 1.08-.233.342-.575.654-1.006.916-.43.262-.942.47-1.504.612a7.3 7.3 0 01-1.775.215 7.3 7.3 0 01-1.775-.215 5.492 5.492 0 01-1.505-.612c-.43-.262-.772-.574-1.005-.916a1.914 1.914 0 01-.353-1.08c0-.371.12-.738.353-1.081.233-.342.575-.653 1.005-.915a5.43 5.43 0 011.505-.612 7.3 7.3 0 011.775-.215 7.3 7.3 0 011.775.215 5.424 5.424 0 011.504.612c.431.262.773.573 1.006.915.233.343.353.71.353 1.081zM167.353 220.371c1.1-3.746 3.044-7.579 7.578-11.676-5.4-2.39-10.565-5.397-15.535-8.91-1.981-.492-7.131 17.937 7.957 20.586zM226.809 151.366c2.33-2.817 5.963-4.886 8.552-5.67 0 0-6.268-4.642-11.348-2.902-3.296 1.13-1.564 6.957 2.796 8.572zM248.832 147.3s21.234-31.653 14.589-52.16c3.967-.768 4.624 21.642 3.504 27.591-.487 2.585 24.314-17.064 21.145-27.361 2.997 2.173 2.25 9.188 2.25 9.188s6.672-11.54 4.807-18.581c2.318-.096 3.439 13.79-.957 21.324-1.401 2.4 17.16-11.374 10.584-30.98 2.919 1.416 6.667 19.022 6.667 19.022s13.664-11.537 5.592-31.814c13.074 21.347 6.266 38.252-47.304 61.711-9.286 4.066-9.165 15.794-9.165 15.794l-11.712 6.266zM239.918 142.783c-18.06-10.625-17.773-24.016-15.268-37.742-3.848 2.037-5.55 10.007-5.802 21.989-10.755-6.574-24.205-9.99-19.884-34.23-2.096 5.292-2.41 12.011-1.622 19.615-7.815-9.562-10.553-12.67-7.28-39.791-1.343 10.23-6.668 25.517-1.315 34.954 15.664 27.615 31.481 24.847 47.189 37.238l3.982-2.033z"/>
    </g>
    <g fill="#7A89A7" class="deer">
      <path d="M178.031 265.338l16.613-15.027 2.819 1.822c.972-.882-6.871 5.905 5.815 34.199-5.365 3.239-8.726 1.475-11.164.437 0 0-12.647-11.143-14.083-21.431zM250.349 293.992s9.928 1.871 9.096-.09c-1.651-3.887 4.694-46.438 8.331-46.362-3.86 3.032-10.087 8.5-15.355 9.396-2.556 14.378-2.163 25.553-2.072 37.056zM167.674 222.843c1.127-3.839 3.121-7.767 7.77-11.966-5.537-2.449-10.833-5.53-15.93-9.131-2.031-.504-7.312 18.383 8.16 21.097zM228.642 152.125c2.389-2.888 6.114-5.008 8.769-5.812 0 0-6.428-4.757-11.637-2.973-3.38 1.157-1.603 7.129 2.868 8.785zM251.224 147.957s1.062-1.582 2.643-4.274c5.58-9.497 17.626-32.807 12.317-49.182 4.068-.786 4.742 22.18 3.593 28.276-.5 2.65 24.932-17.487 21.683-28.04 3.073 2.227 2.307 9.417 2.307 9.417s6.842-11.828 4.929-19.043c2.377-.099 3.526 14.133-.982 21.853-1.436 2.46 17.597-11.657 10.854-31.75 2.993 1.452 6.837 19.495 6.837 19.495s14.011-11.823 5.733-32.604c13.406 21.877 6.426 39.203-48.506 63.244-9.522 4.167-9.398 16.186-9.398 16.186l-5.695 3.046-6.315 3.376zM242.083 143.328c-18.519-10.889-18.224-24.613-15.656-38.68-3.945 2.088-5.691 10.255-5.949 22.536-11.029-6.738-24.821-10.239-20.39-35.081-2.149 5.423-2.471 12.31-1.663 20.102-8.014-9.799-10.822-12.985-7.466-40.78-1.376 10.486-6.836 26.152-1.347 35.823 16.062 28.302 32.281 25.465 48.389 38.164l4.082-2.084z"/>
      <path d="M253.867 143.683c1.255.135 2.503.423 3.672.898l-6.315 3.376s1.062-1.582 2.643-4.274z"/>
      <path d="M154.743 264.343s3.446 21.229 4.352 23.746c.905 2.516 11.497.599 11.497.599s-5.825-17.243.7-20.47c6.525-3.227 32.769-31.344 32.769-31.344-.135.289-.265.572-.394.851-1.372 2.987-2.55 5.55-7.819 10.776 13.8 7.585 24.512 8.506 34.346 7.531-1.195-.348-.413-23.62.102-17.591.481 5.63 5.59 56.176 7.158 57.782 1.603 1.643 10.635 1.014 11.23-2.082.024-1.771.038-3.542.052-5.313.088-10.919.175-21.839 2.637-32.89 51.952-24.788 39.387-80.625 17.709-102.862-1.929 1.761-3.833 2.673-6.025 3.383 9.974-6.376 12.407-13.546 13.172-18.529-.667.914-2.465 1.396-4.848 2.034-4.178 1.119-10.153 2.719-14.975 7.976.236-.259.49-.522.738-.78.956-.988 1.831-1.894 1.282-2.174a10.69 10.69 0 00-.836-.384l-.051-.021-6.315 3.376s1.062-1.582 2.643-4.274a16.912 16.912 0 00-4.888.201c-10.725 2.025-15.525 6.105-22.43 11.976-3.894 3.31-8.458 7.19-15.133 11.592 8.057 20.175 23.351 14.796 33.163 11.346 2.556-.899 4.74-1.667 6.327-1.819 7.636 4.237 8.665 28.297-15.306 25.654-21.199-2.337-55.597-4.454-65.376 18.842-2.909 6.93-15.481 42.868-15.481 42.868zm90.822-101.159c.239-.351.362-.727.362-1.107s-.123-.756-.362-1.107-.59-.67-1.031-.939a5.667 5.667 0 00-1.543-.627 7.516 7.516 0 00-1.82-.22 7.51 7.51 0 00-1.82.22 5.667 5.667 0 00-1.543.627c-.442.269-.792.588-1.031.939a1.957 1.957 0 00-.362 1.107c0 .38.123.756.362 1.107s.589.67 1.031.939c.442.268.966.482 1.543.627a7.51 7.51 0 001.82.22c.624 0 1.243-.075 1.82-.22a5.636 5.636 0 001.543-.627c.441-.269.792-.588 1.031-.939z"/>
      <path d="M245.927 162.077c0 .38-.123.756-.362 1.107s-.59.67-1.031.939a5.636 5.636 0 01-1.543.627 7.516 7.516 0 01-1.82.22 7.51 7.51 0 01-1.82-.22 5.636 5.636 0 01-1.543-.627c-.442-.269-.792-.588-1.031-.939a1.957 1.957 0 01-.362-1.107c0-.38.123-.756.362-1.107s.589-.67 1.031-.939a5.667 5.667 0 011.543-.627 7.51 7.51 0 011.82-.22c.624 0 1.243.075 1.82.22a5.667 5.667 0 011.543.627c.441.269.792.588 1.031.939.239.351.362.727.362 1.107z"/>
    </g>
  </g>
</svg>
