<svg xmlns="http://www.w3.org/2000/svg" width="182" height="148" fill="none" viewBox="0 0 182 148">
  <path fill="#9BA8C1" d="M106.087 56.092s7.572-7.444 13.582-16.81c4.323-6.736 54.644-8.66 55.362-6.87 6.862 17.085-26.946 15.453-26.946 15.453s19.716 3.71 32.079 4.327c1.457 24.568-34.389 5.699-34.389 5.699s8.006 6.708 18.867 9.988c2.891 16.958-16.957 4.172-23.859-3.453 2.023 6.867 13.773 11.843 13.468 14.255-1.218 9.621-17.442-2.05-17.442-2.05s5.567 8.115 6.374 9.967c-6.275 4.302-12.842-5.487-12.842-5.487s-24.042 10.285-27.718 2.353c-1.061-2.29 3.464-27.372 3.464-27.372zM82.718 49.654S75.601 39.462 70.54 27.928C66.898 19.63 11.5-.684 10.4.836c-10.506 14.526 27.21 25.26 27.21 25.26s-22.464-3.51-36.26-7.415c-5.793 23.963 37.113 18.256 37.113 18.256s-10.008 3.76-22.593 3.06c-6.087 15.851 18.068 10.36 27.009 5.28-3.41 6.107-17.267 6.773-17.34 9.29-.289 10.037 19.664 4.332 19.664 4.332s-7.546 6.056-8.755 7.608c6.217 6.582 15.155-.776 15.155-.776s24.874 19.044 30.294 12.48c1.565-1.896.821-28.557.821-28.557z"/>
  <path fill="#7A89A7" d="M67.895 74.137s1.235 4.193-18.086-1.234c-19.321-5.428 5.292 8.697 5.292 8.697s-24.055 2.697.546 8.325c3.337.764-4.04 4.185-4.087 4.14 4.07 9.796 12.132 3.407 12.132 3.407s-4.084 8.085-3.555 9.097c6.485 12.401 18.466-.101 18.466-.101s-.228 16.857 15.303 11.028c1.843-3.071-.559-11.694-.559-11.694s5.735 6.619 13.676 4.803c1.63-.372-3.298-7.175-3.298-7.175s10.985 5.679 15.137 1.367c-.022.024-8.943-7.8-8.943-7.8s11.095 3.117 11.409-3.743c.057-1.242-4.391-.789-14.455-4.323-7.047-2.474-12.04-19.924-18.342-22.331-10.501-4.012-20.636 7.537-20.636 7.537z"/>
  <path fill="#9BA8C1" d="M68.319 74.696s1.067 2.94-15.006-1.052c-16.072-3.991 4.478 6.129 4.478 6.129s-19.913 1.632.539 5.82c2.774.567-3.305 2.879-3.345 2.847 3.475 6.883 10.092 2.507 10.092 2.507s-3.302 5.602-2.852 6.314c5.504 8.728 15.306.123 15.306.123s-.014 11.769 12.8 7.861c1.496-2.125-.585-8.172-.585-8.172s4.823 4.682 11.387 3.497c1.347-.243-2.809-5.045-2.809-5.045s9.166 4.08 12.562 1.113c-.018.016-7.494-5.54-7.494-5.54s9.229 2.293 9.419-2.494c.034-.867-3.649-.597-12.028-3.17-5.867-1.802-10.188-14.04-15.436-15.786-8.747-2.911-17.028 5.048-17.028 5.048z"/>
  <path fill="#BEC7D8" d="M104.461 54.353s6.747-6.634 12.102-14.98c3.853-6.003 48.695-7.716 49.335-6.122 6.115 15.225-24.012 13.77-24.012 13.77s17.569 3.307 28.586 3.856c1.299 21.894-30.645 5.08-30.645 5.08s7.135 5.977 16.813 8.9c2.576 15.112-15.11 3.718-21.261-3.077 1.803 6.119 12.273 10.554 12.001 12.703-1.085 8.573-15.543-1.828-15.543-1.828s4.962 7.233 5.681 8.883c-5.592 3.834-11.444-4.89-11.444-4.89s-21.425 9.165-24.7 2.097c-.946-2.041 3.087-24.392 3.087-24.392zM82.737 46.724s-6.36-9.058-10.883-19.311C68.6 20.037 19.096 1.979 18.113 3.33 8.724 16.243 42.428 25.784 42.428 25.784s-20.074-3.12-32.402-6.591C4.848 40.493 43.19 35.42 43.19 35.42S34.247 38.763 23 38.14c-5.439 14.09 16.146 9.209 24.136 4.694-3.046 5.428-15.43 6.02-15.495 8.257-.258 8.922 17.572 3.85 17.572 3.85s-6.744 5.384-7.824 6.763c5.556 5.852 13.543-.69 13.543-.69S77.16 77.944 82.003 72.109c1.399-1.685.734-25.384.734-25.384z"/>
  <path fill="#505C74" d="M42.634 84.758l72.063 17.737-11.024 45.153L31.61 129.91l11.024-45.152z"/>
  <path fill="#C2ED7A" d="M42.345 85.944l28.625 38.2 43.437-20.463-10.734 43.967-72.062-17.736 10.734-43.968z"/>
  <path fill="#E0FCBD" d="M72.93 118.014l42.014-15.656-72.052-17.731 30.038 33.387z"/>
  <path fill="#7A89A7" d="M70.636 94.678c.576.172 1.461-1.092 1.977-2.825.516-1.732.467-3.276-.109-3.449-.575-.172-1.46 1.092-1.976 2.825-.516 1.732-.468 3.276.108 3.449zM74.264 96.133c.576.172 1.461-1.092 1.977-2.825.516-1.732.467-3.276-.109-3.449-.575-.172-1.46 1.092-1.976 2.825-.516 1.732-.468 3.276.108 3.449zM77.165 96.86c.576.172 1.461-1.092 1.977-2.825.516-1.732.468-3.276-.108-3.449-.576-.172-1.461 1.092-1.977 2.825-.516 1.732-.467 3.276.108 3.449zM82.244 97.588c.576.172 1.46-1.092 1.976-2.825.516-1.732.468-3.276-.108-3.449-.576-.172-1.46 1.092-1.977 2.825-.516 1.732-.467 3.276.109 3.449zM85.872 99.043c.575.172 1.46-1.092 1.976-2.825.516-1.732.468-3.276-.108-3.449-.576-.172-1.461 1.093-1.977 2.825-.516 1.732-.467 3.277.109 3.45zM88.773 99.77c.576.173 1.46-1.092 1.977-2.825.516-1.732.467-3.276-.109-3.449-.576-.172-1.46 1.093-1.977 2.825-.516 1.732-.467 3.277.109 3.45z"/>
  <path fill="#7A89A7" d="M75.605 92.414s-4.095-4.96-1.903-9.826c.547-1.216 5.758-.606 6.011.704 1.016 5.24-4.108 9.122-4.108 9.122zM84.43 93.873s-2.179-6.058 1.525-9.892c.926-.959 5.623 1.384 5.42 2.703-.814 5.276-6.946 7.189-6.946 7.189z"/>
  <path fill="#EBC159" d="M71.073 94.248c.576.173 1.46-1.092 1.977-2.824.516-1.733.467-3.277-.109-3.45-.576-.172-1.46 1.093-1.977 2.825-.516 1.732-.467 3.277.109 3.45zM74.7 95.703c.576.173 1.462-1.092 1.977-2.824.516-1.733.468-3.277-.108-3.45-.576-.172-1.46 1.093-1.977 2.825-.516 1.733-.467 3.277.109 3.45zM77.602 96.43c.576.173 1.46-1.092 1.977-2.824.516-1.733.467-3.277-.109-3.45-.576-.172-1.46 1.093-1.976 2.825-.516 1.733-.468 3.277.108 3.45zM82.68 97.16c.575.172 1.46-1.092 1.976-2.825.516-1.732.467-3.276-.109-3.449-.575-.172-1.46 1.092-1.976 2.825-.516 1.732-.468 3.276.108 3.449zM86.307 98.615c.576.172 1.461-1.092 1.977-2.825.516-1.732.467-3.276-.109-3.449-.575-.172-1.46 1.092-1.976 2.825-.516 1.732-.468 3.276.108 3.449zM89.209 99.342c.575.172 1.46-1.092 1.976-2.825.516-1.732.468-3.276-.108-3.449-.576-.172-1.461 1.092-1.977 2.825-.516 1.732-.467 3.276.109 3.449z"/>
  <path fill="#7A89A7" d="M94.297 47.062c5.174 1.11 7.45-1.005 10.892.208 8.468 2.982 12.408 15.613 10.194 24.807-3.115 12.932-17.098 20.55-31.206 17-14.108-3.549-23.033-16.93-19.918-29.862 2.02-8.386 11.015-18.3 18.534-17.58 4.076.39 6.805 4.419 11.504 5.427z"/>
  <path fill="#9BA8C1" d="M94.882 46.062c5.274 1.11 7.593-1.005 11.101.208 8.629 2.982 12.645 15.613 10.388 24.807-3.174 12.932-17.424 20.55-31.802 17-14.377-3.549-23.473-16.93-20.298-29.862 2.058-8.386 11.225-18.3 18.888-17.58 4.154.39 6.935 4.419 11.723 5.427z"/>
  <path fill="#fff" d="M92.98 54.47c4.489.949 7.114-3.504 10.102-2.477 7.348 2.526 10.811 13.096 8.927 20.771C109.36 83.56 97.272 89.871 85.033 86.85 72.794 83.828 65.01 72.611 67.66 61.815c1.718-7 9.476-15.25 15.993-14.618 3.534.342 5.254 6.412 9.329 7.273z"/>
  <path fill="#505C74" d="M90.769 75.897s5.632-4.379 10.872-3.085c2.802.692 2.747-3.665 3.58-7.059.223-.908-6.057-1.846-6.982-1.724-3.612.48-7.47 11.868-7.47 11.868z"/>
  <path fill="#FB8B4C" d="M85.09 83.635s-2.553-3.83-.562-6.994c.498-.791 4.223.128 4.297 1.06.3 3.731-3.735 5.934-3.735 5.934z"/>
  <path fill="#505C74" d="M83.982 74.221s-2.962-6.5-8.202-7.793c-2.802-.692-.737-4.526.096-7.92.223-.908 6.22 1.185 6.983 1.725 2.977 2.106 1.123 13.988 1.123 13.988z"/>
</svg>
