<svg width="17" height="16" viewBox="0 0 17 16" fill="none" xmlns="http://www.w3.org/2000/svg">
<g clip-path="url(#clip0_2470_27896)">
<path fill-rule="evenodd" clip-rule="evenodd" d="M8.5 0.000488281C4.08 0.000488281 0.5 3.58049 0.5 8.00049C0.5 11.5405 2.79 14.5305 5.97 15.5905C6.37 15.6605 6.52 15.4205 6.52 15.2105C6.52 15.0205 6.51 14.3905 6.51 13.7205C4.5 14.0905 3.98 13.2305 3.82 12.7805C3.73 12.5505 3.34 11.8405 3 11.6505C2.72 11.5005 2.32 11.1305 2.99 11.1205C3.62 11.1105 4.07 11.7005 4.22 11.9405C4.94 13.1505 6.09 12.8105 6.55 12.6005C6.62 12.0805 6.83 11.7305 7.06 11.5305C5.28 11.3305 3.42 10.6405 3.42 7.58049C3.42 6.71049 3.73 5.99049 4.24 5.43049C4.16 5.23049 3.88 4.41049 4.32 3.31049C4.32 3.31049 4.99 3.10049 6.52 4.13049C7.16 3.95049 7.84 3.86049 8.52 3.86049C9.2 3.86049 9.88 3.95049 10.52 4.13049C12.05 3.09049 12.72 3.31049 12.72 3.31049C13.16 4.41049 12.88 5.23049 12.8 5.43049C13.31 5.99049 13.62 6.70049 13.62 7.58049C13.62 10.6505 11.75 11.3305 9.97 11.5305C10.26 11.7805 10.51 12.2605 10.51 13.0105C10.51 14.0805 10.5 14.9405 10.5 15.2105C10.5 15.4205 10.65 15.6705 11.05 15.5905C12.6381 15.0543 14.0182 14.0337 14.9958 12.6721C15.9735 11.3106 16.4996 9.67669 16.5 8.00049C16.5 3.58049 12.92 0.000488281 8.5 0.000488281Z" fill="black"/>
</g>
<defs>
<clipPath id="clip0_2470_27896">
<rect width="16" height="16" fill="white" transform="translate(0.5 0.000488281)"/>
</clipPath>
</defs>
</svg>
