<svg width="18" height="18" viewBox="0 0 18 18" fill="none" xmlns="http://www.w3.org/2000/svg">
<path d="M8.99916 17.5798L12.3152 7.37988H5.68799L8.99916 17.5798Z" fill="#E24329"/>
<path d="M1.04345 7.37988L0.0336426 10.4788C-0.0577364 10.7601 0.0409467 11.0707 0.282136 11.2461L8.99935 17.5798L1.04345 7.37988Z" fill="#FCA326"/>
<path d="M1.04297 7.37964H5.68761L3.68869 1.23669C3.58638 0.922406 3.14052 0.922406 3.03453 1.23669L1.04297 7.37964Z" fill="#E24329"/>
<path d="M16.9602 7.37988L17.9664 10.4788C18.0578 10.7601 17.9591 11.0707 17.7179 11.2461L8.99951 17.5798L16.9602 7.37988Z" fill="#FCA326"/>
<path d="M16.9601 7.37964H12.3154L14.3107 1.23669C14.413 0.922406 14.8588 0.922406 14.9648 1.23669L16.9601 7.37964Z" fill="#E24329"/>
<path d="M8.99951 17.5798L12.3155 7.37988H16.9602L8.99951 17.5798Z" fill="#FC6D26"/>
<path d="M8.99878 17.5798L1.04297 7.37988H5.68761L8.99878 17.5798Z" fill="#FC6D26"/>
</svg>
