<svg width="18" height="18" viewBox="0 0 18 18" fill="none" xmlns="http://www.w3.org/2000/svg">
<path fill-rule="evenodd" clip-rule="evenodd" d="M17.64 9.20468C17.64 8.5665 17.5827 7.95286 17.4764 7.36377H9V10.8451H13.8436C13.635 11.9701 13.0009 12.9233 12.0477 13.5615V15.8197H14.9564C16.6582 14.2529 17.64 11.9456 17.64 9.20468Z" fill="#4285F4"/>
<path fill-rule="evenodd" clip-rule="evenodd" d="M9 18.0005C11.43 18.0005 13.4673 17.1945 14.9564 15.82L12.0477 13.5618C11.2418 14.1018 10.2109 14.4209 9 14.4209C6.65591 14.4209 4.67182 12.8377 3.96409 10.7104H0.957275V13.0423C2.43818 15.9836 5.48182 18.0005 9 18.0005Z" fill="#34A853"/>
<path fill-rule="evenodd" clip-rule="evenodd" d="M3.96409 10.7103C3.78409 10.1703 3.68182 9.5935 3.68182 9.00031C3.68182 8.40713 3.78409 7.83031 3.96409 7.29031V4.9585H0.957273C0.347727 6.1735 0 7.54804 0 9.00031C0 10.4526 0.347727 11.8271 0.957273 13.0421L3.96409 10.7103Z" fill="#FBBC05"/>
<path fill-rule="evenodd" clip-rule="evenodd" d="M9 3.58003C10.3214 3.58003 11.5077 4.03413 12.4405 4.92594L15.0218 2.34458C13.4632 0.892307 11.4259 0.000488281 9 0.000488281C5.48182 0.000488281 2.43818 2.01731 0.957275 4.95867L3.96409 7.29049C4.67182 5.16322 6.65591 3.58003 9 3.58003Z" fill="#EA4335"/>
</svg>
