<svg xmlns="http://www.w3.org/2000/svg" width="32" height="32" fill="none" viewBox="0 0 32 32">
  <path fill="#EFF0F5" d="M0 0h32v32H0z"/>
  <path fill="#BEC7D8" fill-rule="evenodd" d="M28.795 32H3.65a13.465 13.465 0 01-.928-4.927c0-5.818 3.68-10.776 8.838-12.674a12.143 12.143 0 00-.46-1.998c-.271-.824-.653-1.608-1.236-2.57a2.647 2.647 0 01-.434.157c-1.067.286-2.105-.131-2.32-.931-.214-.8.477-1.681 1.544-1.967 1.067-.286 2.106.131 2.32.931.11.41-.017.839-.31 1.2.638 1.044 1.075 1.922 1.386 2.867.206.624.355 1.268.473 1.998a13.51 13.51 0 013.7-.514c1.28 0 2.518.179 3.692.512.104-.663.235-1.267.426-1.868.28-.882.685-1.74 1.299-2.765-.444-.398-.664-.93-.53-1.43.215-.8 1.253-1.217 2.32-.93 1.067.285 1.759 1.165 1.544 1.966-.214.8-1.253 1.217-2.32.93a2.713 2.713 0 01-.144-.042c-.594.987-.963 1.78-1.216 2.574a11.692 11.692 0 00-.415 1.878c5.161 1.897 8.843 6.856 8.843 12.676 0 1.738-.329 3.4-.927 4.927zM13.68 18.62c.15.815-1.1 1.203-2.459 1.453-1.358.25-2.308.267-2.458-.548-.15-.815.83-1.678 2.187-1.928 1.358-.25 2.58.208 2.73 1.023zm4.356 0c-.15.815 1.1 1.203 2.459 1.453 1.358.25 2.309.267 2.458-.548.15-.815-.83-1.678-2.187-1.928-1.358-.25-2.58.208-2.73 1.023zm-3.17 3.004c.351-.001.715-.003 1.007-.071.36-.084.574-.204.767-.312.19-.107.36-.202.629-.24.541-.075.902.286.94.833.022.324.053.885-.255 1.302-.176.238-.854.439-1.455.584-1.064.257-2.4.36-2.76.27-.36-.09-.514-.27-.571-.496-.086-.332.183-1.311.512-1.66.195-.206.677-.208 1.186-.21z" clip-rule="evenodd"/>
</svg>
