<svg width="90" height="67" viewBox="0 0 90 67" fill="none" xmlns="http://www.w3.org/2000/svg">
<g opacity="0.8">
<g opacity="0.66">
<path d="M30.2146 81.5974C26.9086 67.7484 27.1236 52.7436 33.5431 40.0053C34.4856 38.1351 36.8297 37.5801 38.6113 38.6746L53.3352 47.7203C55.119 48.8163 55.6564 51.1521 54.8559 53.0906C52.3703 59.1097 51.6323 67.1665 53.7256 75.936C55.8199 84.7097 60.1011 91.567 65.0319 95.8113C66.6169 97.1757 67.1917 99.4979 66.0998 101.284L57.0721 116.049C55.9785 117.837 53.6346 118.409 51.9487 117.167C40.4839 108.721 33.5204 95.4435 30.2146 81.5974Z" fill="#FB8B4C"/>
</g>
<path d="M46.9648 12.0556C45.2621 15.503 44.4585 19.5748 45.618 23.4271C46.7778 27.2796 49.6926 30.2205 53.0113 32.1404C56.3297 34.0603 60.2059 35.0481 63.8039 33.9511C67.3992 32.8547 70.0728 29.8713 71.7692 26.4249C73.4659 22.9787 74.2636 18.9107 73.105 15.0633C71.9467 11.2161 69.0388 8.27595 65.7261 6.35411C62.4133 4.43231 58.5429 3.44083 54.9466 4.53287C51.3476 5.62573 48.6674 8.60826 46.9648 12.0556Z" fill="#FB8B4C"/>
</g>
</svg>
