<svg width="674" height="495" fill="none" xmlns="http://www.w3.org/2000/svg"><g clip-path="url(#a)"><mask id="b" style="mask-type:alpha" maskUnits="userSpaceOnUse" x="0" y="0" width="674" height="495"><path d="M674 262.58C674 390.94 525.8 495 342.98 495s-396.1-58.58-331.02-232.42C77.04 88.74 261.75 134.2 458.78 28.62 655.82-76.97 674 134.22 674 262.58Z" fill="#fff"/></mask><g mask="url(#b)"><path d="M673.63 0H-26v495.02h699.63V0Z" fill="#E8F5FF"/><path d="m369.61 309.2 1.96-51.54-3.73-33.92-9.57-.35-53.47-1.88 8.82 118.54 56-30.85Z" fill="#BEC7D8"/><path d="m229.25 267.51-3.54 36.2s17.6-11.46 21.54-13.2c3.93-1.74 2.53-42.13 2.53-42.13l-20.06 1.69-.47 17.44Z" fill="#BEC7D8" stroke="#BEE4FF" stroke-width=".26"/><path d="m251.33 224.28 12.78.18-.43-38.66-9.2-.34-41.33-1.2-12.95 25.49 51.13 14.53Z" fill="#DADFE9"/><path opacity=".47" d="m410.09 276.08 39.5.03 15.15-169-42.66 1.97-127.74-2.76-41.56 110.29 157.3 59.47ZM81.7 401.28l39.5.03 15.16-169.01-42.66 1.98-127.74-2.76-61.52 153L81.7 401.27Z" fill="#DADFE9"/><path opacity=".13" d="m159.1 503.39 121.03-239.91s-35.9 5.48-48.7 31.85C218.66 321.69 92.8 330.79 67.3 333.85-38.51 346.5-61.53 346.5-61.53 346.5L-95.74 489.9l254.83 13.5ZM645.71 390.52l23.8-47.98s-2.5.56-106.37 7.5c-103.88 6.95-133.53-41.1-161.05-40.82-39.25.4-78.77-22.2-78.77-22.2l-.22 23 178.1 77.66 144.51 2.84Z" fill="#234779"/><path opacity=".47" d="m617.72 451.48 39.5.02 15.15-169-42.66 1.98-127.74-2.77L460.4 392l157.31 59.48Z" fill="#DADFE9"/><path d="M114.64 340.63c17.29-3.17 90.4-6.7 110.86-35.1 20.47-28.39 49.04-33.78 48.7-39.56-.38-15.6 4.46-28.19 2.85-41.26-3.63-3.96-5.56-3.37-5.56-3.37s5.64-1.55 22.89.13c17.25 1.68 10.85-3.29 11.92 0-5 5.5 5.67 26.48 5.67 26.48.12 1.65 3.87 2.8 9.34 4.56l8.98 34.63s6.45 4.23 16.87 10.2c10.42 5.97 21.7 5.17 21.7 5.17s55.92 16.77 75.51 25.95c19.59 9.18 35.71 25.62 74.97 30.91 39.25 5.3 82.81.48 97.43.65 14.61.17 150.6-4.18 150.6-4.18L639.87 556.96s-420.46 60.65-422.97 61.56C214.37 619.42.76 508.75.76 508.75L-76.8 387.79s119.06-33.88 191.44-47.16Z" fill="#1C5DA2" stroke="#234779" stroke-width="1.32" stroke-linecap="round" stroke-linejoin="round"/><path d="M181.27 360.7c33.7-7.19 55.5-27.05 71-51.23 15.5-24.18 35.01-27.96 37.28-39.98-3.77-25.48-12.78-27.98-12.78-28.48l.5-15.5s18.02 3.5 29.03-2.5l-1.5 3 .5 6.5s-3.5 9 .37 20.4c3.86 11.4 6.75 7.9 10.85 9.35l.93 22.3s1.7 16.6 9.5 21.61c7.79 5.01 5.15 2.74 5.15 2.74s64.35 27.08 83.53 35.38c30.67 13.28 22.05 28.16 46.65 44.44 31.48 20.84 144.51-14.84 151.88 7.44 7.36 22.28-89.76 40.13-79.06 66.12 13.07 31.78 5.33 10.7-37.99 45.86-19.33 15.7-156.39 15.15-227.22 11.95-70.83-3.2-301.22-28.47-182.54-61.01-18.68-41.62-152.47-41.05-64.1-62.46 47.3-11.45 124.32-28.74 158.02-35.93Z" fill="#234779"/><path d="M504.48 159.5S671.32 109.26 740.69 23c18.5-23-67.06 114.5-67.06 114.5l-169.15 58v-36Z" fill="#6C98C6"/><path d="M676.9 318.98s-108.23 10.81-161.44 2.74c-42.15-6.4-67.31-28.18-121.47-40-23.13-5.06-82.5-13.92-70.68-32.71 12.72-20.18-31.12-15.24-15.81-36.46 9.89-13.72 50.59-22.88 84.82-31.82 31.06-8.1 81.13-13.22 81.13-13.22l203.44-64 66.6-19.02-66.6 234.5Z" fill="#fff"/><path d="M224.64 376.99s-1.73 32.03-.13 44.71c.55 4.65 20.75 9.86 36.23 19.93 15.49 10.07 18.32 8.81 29.91 9.36 11.6.54 15.64 0 29.35-1.1 13.71-1.08 27.07-7.9 43.69-11.4 16.61-3.5 21.72-14.56 21.72-14.56l2.41-42.06" fill="#1C5DA2"/><path d="M224.01 356.15s-1.73 32.03-.13 44.72c.55 4.65 20.75 9.85 36.23 19.93 15.49 10.07 18.32 8.8 29.91 9.35 11.6.55 15.64 0 29.35-1.09 13.71-1.08 27.07-7.91 43.69-11.41 16.61-3.5 21.71-14.56 21.71-14.56l2.42-42.05" fill="#E8F5FF"/><path d="M224.01 356.15s-1.73 32.03-.13 44.72c.55 4.65 20.75 9.85 36.23 19.93 15.49 10.07 18.32 8.8 29.91 9.35 11.6.55 15.64 0 29.35-1.09 13.71-1.08 27.07-7.91 43.69-11.41 16.61-3.5 21.71-14.56 21.71-14.56l2.42-42.05" stroke="#00B5EE" stroke-width=".26"/><path d="m336.05 363.18 26.68 1.29-4.98 54.32-24.04 7.49 2.34-63.1ZM276.93 389.67l-20.36-13.57s-.42 29.4-1.84 41.12c6.24 4.22 13.52 8.73 19.47 11.32-.15-12.48 2.73-38.87 2.73-38.87Z" fill="#BEC7D8"/><path d="m291.56 373.2 41.76 5.81s-.87 34.19-1.5 47.5c-10.5 3.65-40.5 3.65-40.5 3.65l.24-56.95Z" fill="#DADFE9"/><path d="M223.83 356.15c-.33-9.57 16.33-16.28 31.01-22.98 48.46-19.5 65.26-16.96 103.56-.62 18.04 7.94 30.39 12.73 28.91 26.53-1.47 13.8-20.85 25.17-34.6 23.07-9.14-1.4-18.65-2.31-34.98 3.18-16.33 5.5-37.04 11.48-45.43 3.26-15.47-15.14-48.14-22.87-48.47-32.44ZM91.6 288.87c31.94-.49 96.68 3.15 136.3-20.94 6.31-3.83-6.97-14.86 13.3-17.68 23.79-3.3 20.06-5.91 34.08-21.22 13.3-14.52-68.06-20.5-55.04-34.35 16.43-9.3 16.95 2.23 35.06-.26 18.5-2.55 6.32-7.45 13.5-11.2 7.2-3.74 20.49 5.2 60.47-4.03 40-9.22 70.34-14.63 78.52-15.74 8.18-1.1 42.98-10.86 42.98-10.86l88.26-36.97S786.93-28.35 714.67-63.97c-64.27-31.67-549.3-33.18-549.3-33.18l-270.2 240.17 11.06 129.25s153.44 17.1 185.37 16.6Z" fill="#fff"/><path d="M275.77 350.19c2.9-2.3 3-4.24 11.87-2.52 8.88 1.72 17.4-.03 17.1 4-.3 4.02-8.05 4.22-16.63 4.17-8.94-.06-14.61-3.84-12.34-5.65Z" fill="#DADFE9"/><path opacity=".14" d="M276.65 349.45c2.16-1.04 2.24-1.92 8.86-1.14 6.63.78 13-.01 12.78 1.81-.23 1.82-6.02 1.92-12.42 1.89-6.68-.03-10.92-1.74-9.22-2.56Z" fill="#007DA6"/><path d="M278.71 348.1c-.47.95-.4.56-.94 1.66-.53 1.1 1.83 1.4 6.28 1.32 4.45-.08 2.2-2.75 2.2-2.75l-7.54-.22ZM289.05 346.8c-.39 1.16-.35.7-.78 2.04-.43 1.35 1.9 1.55 6.24 1.14 4.33-.4 1.9-3.42 1.9-3.42l-7.36.25Z" fill="#FB8B4C"/><path d="M269.84 333.78s1.44 14.74 11.18 14.99c11.6.29 16.86-1.47 16.86-1.47l-3.13-5.73-22.25-9.32-2.66 1.53Z" fill="#EFF0F5" stroke="#F9F9FB" stroke-width=".26"/><path d="M277.3 314.24c-.83-1.37-1-12.86 9.07-13.22 9.25-.33 9.5 11.8 9.5 11.8s.12 1.5 3.75 9c2.86 2.2 7.02 7.46 6.41 9.37-1.15 3.65-2.47 1.61-2.47 1.61l.13-.1s-20.83-9.22-26.4-18.46Z" fill="#9BA8C1"/><path d="M278.27 314.51s7.91-10.4 17.02-2.5c1.5 2 2.75 5.42 5.1 7.88 2.17 2.25 7.63 10.08 5.28 12.11-.59-3.6-3.1-6.41-3.1-6.41 1.1 2.6 1.2 4.83 1.22 6.18.11 10.9-5.87 15.5-5.87 15.5-3.53-1.33-2.33-5.05-4.65-4.48-2.12.51-3.31 1.48-5.16 1.9-1.18 2.74-8.13 8.17-12.5-.74-4.36-8.9-2.12-9.02-2.95-12.05-3.15 3-5.8 3.39-5.34-2 .26-3.1 7.45-10.89 7.45-10.89s1.84-2.77 3.5-4.5Z" fill="#617693"/><path d="M289.83 342.49c.45-1.63 3.6-4.72 5.13-4.36 1.9.44 2.06 3.95 1.72 5.13-.78-3.64-3.36-4.51-6.85-.77ZM272.45 332c.98-.87.45-.41 2.06-2.74 1.12-1.63 1.19 3.92-1.73 5.48a22.36 22.36 0 0 0-.33-2.74ZM274.77 319.01c1-1.5.5-1 3-2-2.8 1.88-2.1 1.58-3 2Z" fill="#4B5B72"/></g></g><defs><clipPath id="a"><path fill="#fff" d="M0 0h674v495H0z"/></clipPath></defs></svg>