<svg width="700" height="495" viewBox="0 0 700 495" fill="none" xmlns="http://www.w3.org/2000/svg">
<mask id="mask0_3222_48712" style="mask-type:alpha" maskUnits="userSpaceOnUse" x="26" y="0" width="674" height="495">
<path d="M700 262.576C700 390.94 551.797 495 368.98 495C186.163 495 -27.1193 436.415 37.96 262.576C103.039 88.7362 287.75 134.206 484.783 28.6198C681.816 -76.9667 700 134.211 700 262.576Z" fill="#C4C4C4"/>
</mask>
<g mask="url(#mask0_3222_48712)">
<path d="M699.63 -0.00012207H0V495.018H699.63V-0.00012207Z" fill="#E8F5FF" stroke="#E8F5FF" stroke-width="2.64583" stroke-linecap="round" stroke-linejoin="round"/>
<path d="M395.611 309.202L397.571 257.658L393.838 223.74L384.265 223.387L330.798 221.508L339.623 340.051L395.611 309.202Z" fill="#BEC7D8"/>
<path d="M255.249 267.515L251.709 303.712C251.709 303.712 269.314 292.25 273.246 290.511C277.178 288.772 275.776 248.375 275.776 248.375L255.723 250.07L255.249 267.515Z" fill="#BEC7D8" stroke="#BEE4FF" stroke-width="0.264583"/>
<path d="M277.334 224.279L290.109 224.459L289.68 185.796L280.479 185.462L239.153 184.26L226.196 209.746L277.334 224.279Z" fill="#DADFE9"/>
<path opacity="0.471412" d="M436.088 276.084L475.586 276.114L490.738 107.106L448.079 109.084L320.336 106.324L278.777 216.607L436.088 276.084Z" fill="#DADFE9"/>
<path opacity="0.471412" d="M107.707 401.278L147.205 401.308L162.358 232.3L119.699 234.278L-8.0446 231.518L-69.5628 384.514L107.707 401.278Z" fill="#DADFE9"/>
<path opacity="0.471412" d="M185.09 503.39L306.125 263.478C306.125 263.478 270.23 268.965 257.437 295.327C244.645 321.688 118.798 330.792 93.2854 333.846C-12.5114 346.513 -35.5322 346.513 -35.5322 346.513L-69.7423 489.895L185.09 503.39Z" fill="#234779" fill-opacity="0.13"/>
<path opacity="0.471412" d="M671.713 390.52L695.507 342.535C695.507 342.535 693.018 343.096 589.139 350.044C485.259 356.992 455.614 308.943 428.086 309.22C388.841 309.615 349.314 287.01 349.314 287.01L349.1 310.016L527.194 387.684L671.713 390.52Z" fill="#234779" fill-opacity="0.13"/>
<path opacity="0.471412" d="M643.721 451.475L683.219 451.505L698.371 282.497L655.712 284.475L527.969 281.715L486.41 391.998L643.721 451.475Z" fill="#DADFE9"/>
<path d="M140.638 340.63C157.93 337.456 231.035 333.934 251.501 305.537C271.967 277.14 300.544 271.752 300.2 265.965C299.818 250.369 304.657 237.781 303.045 224.708C299.42 220.749 297.486 221.341 297.486 221.341C297.486 221.341 303.13 219.792 320.38 221.469C337.629 223.145 331.226 218.181 332.299 221.469C327.295 226.969 337.973 247.948 337.973 247.948C338.086 249.603 341.844 250.759 347.313 252.509L356.292 287.141C356.292 287.141 362.743 291.371 373.16 297.339C383.577 303.307 394.855 302.511 394.855 302.511C394.855 302.511 450.783 319.279 470.371 328.459C489.96 337.639 506.084 354.075 545.335 359.371C584.587 364.667 628.151 359.847 642.766 360.017C657.381 360.186 793.378 355.842 793.378 355.842L665.858 556.963C665.858 556.963 245.402 617.61 242.888 618.518C240.373 619.425 26.7599 508.75 26.7599 508.75L-50.7975 387.791C-50.7975 387.791 68.2559 353.914 140.638 340.63Z" fill="#1C5DA2" stroke="#234779" stroke-width="1.32292" stroke-linecap="round" stroke-linejoin="round"/>
<path d="M207.266 360.703C240.966 353.513 262.768 333.651 278.266 309.471C293.765 285.292 313.282 281.51 315.551 269.494C311.781 244.009 302.773 241.509 302.773 241.009L303.273 225.508C303.273 225.508 321.289 229.008 332.299 223.008L330.798 226.008L331.298 232.508C331.298 232.508 327.795 241.509 331.665 252.907C335.534 264.306 338.423 260.805 342.52 262.264L343.453 284.567C343.453 284.567 345.154 301.158 352.946 306.17C360.739 311.182 358.102 308.907 358.102 308.907C358.102 308.907 422.449 335.993 441.628 344.295C472.303 357.574 463.676 372.449 488.279 388.735C519.755 409.57 632.79 373.894 640.157 396.171C647.524 418.448 550.404 436.298 561.096 462.288C574.171 494.071 566.429 472.983 523.114 508.147C503.778 523.844 366.723 523.303 295.889 520.102C225.055 516.9 -5.32856 491.635 113.351 459.088C94.6743 417.473 -39.1166 418.043 49.259 396.631C96.5412 385.175 173.566 367.893 207.266 360.703Z" fill="#234779"/>
<path d="M530.478 159.506C530.478 159.506 697.321 109.253 766.69 23.0008C785.189 -9.75249e-06 699.63 137.505 699.63 137.505L530.478 195.507L530.478 159.506Z" fill="#1C5DA2" fill-opacity="0.61"/>
<path d="M702.891 318.981C702.891 318.981 594.666 329.792 541.457 321.718C499.308 315.322 474.146 293.541 419.989 281.711C396.857 276.658 337.482 267.797 349.315 249.009C362.026 228.826 318.195 233.772 333.498 212.548C343.387 198.832 384.088 189.67 418.322 180.731C449.38 172.622 499.45 167.506 499.45 167.506L702.891 103.504L769.496 84.4873L702.891 318.981Z" fill="white"/>
<path d="M250.643 376.987C250.643 376.987 248.911 409.016 250.512 421.704C251.061 426.352 271.257 431.558 286.743 441.63C302.229 451.701 305.059 450.44 316.65 450.986C328.242 451.533 332.289 450.985 346.001 449.898C359.713 448.812 373.075 441.983 389.688 438.485C406.302 434.987 411.406 423.924 411.406 423.924L413.822 381.875" fill="#1C5DA2"/>
<path d="M250.012 356.152C250.012 356.152 248.281 388.181 249.882 400.87C250.431 405.517 270.627 410.723 286.112 420.795C301.598 430.866 304.428 429.605 316.02 430.152C327.611 430.698 331.658 430.15 345.37 429.063C359.082 427.977 372.445 421.149 389.058 417.65C405.671 414.152 410.775 403.09 410.775 403.09L413.192 361.04" fill="#E8F5FF"/>
<path d="M250.012 356.152C250.012 356.152 248.281 388.181 249.882 400.87C250.431 405.517 270.627 410.723 286.112 420.795C301.598 430.866 304.428 429.605 316.02 430.152C327.611 430.698 331.658 430.15 345.37 429.063C359.082 427.977 372.445 421.149 389.058 417.65C405.671 414.152 410.775 403.09 410.775 403.09L413.192 361.04" stroke="#00B5EE" stroke-width="0.264583"/>
<path d="M362.049 363.182L388.729 364.468L383.751 418.786L359.706 426.276L362.049 363.182Z" fill="#BEC7D8"/>
<path d="M302.93 389.671L282.568 376.099C282.568 376.099 282.154 405.507 280.731 417.216C286.969 421.436 294.246 425.951 300.196 428.537C300.046 416.057 302.93 389.671 302.93 389.671Z" fill="#BEC7D8"/>
<path d="M317.558 373.208L359.324 379.012C359.324 379.012 358.455 413.195 357.82 426.516C347.311 430.156 317.325 430.157 317.325 430.157L317.558 373.208Z" fill="#DADFE9"/>
<path d="M249.831 356.148C249.503 346.578 266.163 339.865 280.841 333.165C329.304 313.677 346.104 316.212 384.396 332.55C402.443 340.495 414.787 345.279 413.312 359.08C411.838 372.881 392.46 384.244 378.718 382.149C369.571 380.754 360.055 379.835 343.728 385.33C327.4 390.824 306.692 396.805 298.301 388.59C282.835 373.45 250.16 365.718 249.831 356.148Z" fill="white"/>
<path d="M117.603 288.873C149.537 288.381 214.28 292.024 253.909 267.931C260.212 264.099 246.93 253.068 267.204 250.25C290.989 246.945 287.257 244.336 301.284 229.025C314.581 214.511 233.222 208.521 246.238 194.681C262.668 185.372 263.187 196.908 281.301 194.416C299.803 191.871 287.616 186.97 294.806 183.225C301.996 179.48 315.289 188.413 355.275 179.189C395.261 169.966 425.61 164.555 433.79 163.451C441.971 162.348 476.769 152.587 476.769 152.587L565.028 115.618C565.028 115.618 812.937 -28.3534 740.666 -63.9688C676.396 -95.6416 191.366 -97.1495 191.366 -97.1495L-78.8374 143.02L-67.767 272.274C-67.767 272.274 85.6686 289.365 117.603 288.873Z" fill="white"/>
<path d="M301.775 350.187C304.67 347.887 304.769 345.95 313.643 347.673C322.516 349.395 331.047 347.639 330.739 351.665C330.431 355.692 322.691 355.893 314.113 355.837C305.174 355.78 299.497 351.998 301.775 350.187V350.187Z" fill="#DADFE9"/>
<path opacity="0.14" d="M302.649 349.451C304.811 348.409 304.885 347.532 311.514 348.312C318.144 349.092 324.516 348.296 324.286 350.12C324.056 351.944 318.274 352.035 311.866 352.01C305.188 351.984 300.947 350.271 302.649 349.451V349.451Z" fill="#007DA6"/>
<path d="M304.714 348.107C304.236 349.048 304.31 348.662 303.774 349.763C303.239 350.865 305.604 351.167 310.051 351.084C314.499 351.001 312.244 348.335 312.244 348.335L304.714 348.107Z" fill="#FB8B4C"/>
<path d="M315.05 346.809C314.663 347.961 314.702 347.497 314.273 348.843C313.843 350.19 316.175 350.387 320.506 349.983C324.838 349.579 322.415 346.562 322.415 346.562L315.05 346.809Z" fill="#FB8B4C"/>
<path d="M295.839 333.782C295.839 333.782 297.281 348.521 307.023 348.767C318.616 349.06 323.876 347.299 323.876 347.299L320.749 341.571L298.503 332.253L295.839 333.782Z" fill="#EFF0F5" stroke="#F9F9FB" stroke-width="0.26458"/>
<path d="M303.293 314.24C302.469 312.872 302.295 301.378 312.371 301.018C321.619 300.687 321.869 312.821 321.869 312.821C321.869 312.821 321.994 314.328 325.618 321.813C328.479 324.017 332.641 329.278 332.034 331.191C330.879 334.836 329.555 332.803 329.555 332.803H329.564L329.694 332.709C329.694 332.709 308.857 323.477 303.292 314.24L303.293 314.24Z" fill="#9BA8C1"/>
<path d="M304.274 314.512C304.274 314.512 312.184 304.102 321.289 312.012C322.791 314.012 324.04 317.433 326.397 319.887C328.557 322.135 334.025 329.973 331.667 332.002C331.083 328.408 328.569 325.589 328.569 325.589C329.666 328.187 329.764 330.415 329.79 331.772C329.904 342.662 323.917 347.277 323.917 347.277C320.394 345.943 321.587 342.224 319.269 342.788C317.154 343.302 315.958 344.275 314.105 344.685C312.929 347.429 305.984 352.861 301.615 343.953C297.246 335.046 299.487 334.926 298.659 331.902C295.515 334.896 292.851 335.289 293.317 329.891C293.585 326.792 300.771 319.012 300.771 319.012C300.771 319.012 302.607 316.235 304.274 314.512Z" fill="#617693"/>
<path d="M315.832 342.487C316.277 340.856 319.435 337.774 320.957 338.128C322.869 338.573 323.017 342.079 322.678 343.26C321.896 339.623 319.325 338.747 315.833 342.487L315.832 342.487Z" fill="#4B5B72"/>
<path d="M298.446 332.002C299.425 331.134 298.905 331.59 300.506 329.261C301.625 327.634 301.698 333.181 298.779 334.739C298.665 333.059 298.446 332.002 298.446 332.002L298.446 332.002Z" fill="#4B5B72"/>
<path d="M300.771 319.012C301.772 317.512 301.271 318.012 303.774 317.012C300.974 318.893 301.671 318.586 300.771 319.012Z" fill="#4B5B72"/>
</g>
</svg>
