<svg xmlns="http://www.w3.org/2000/svg" width="129" height="130" fill="none" viewBox="0 0 129 130">
  <style>
    #petals { fill: #262C39 }
    #leafs { fill: #007DA6 }
    #circle { fill: #83EEDE }
        @media (prefers-color-scheme: dark) {
        /* dark theme styles */
          #petals { fill: #ffffff }
          #leafs { fill: #83EEDE }
          #circle { fill: #007DA6 }
      }
  </style>
  <g class="Logo icon">
    <path fill="#262C39" class="petals" id="petals" d="M100.079 18.007a85.866 85.866 0 00-4.197.025c-2.265.07-4.672.185-7.059.508a25.586 25.586 0 011.344 5.338c.102.724.18 1.441.242 2.153 1.867-.288 3.808-.514 5.701-.572a79.146 79.146 0 013.807-.022c1.138.02 2.16.061 3.044.107a84.7 84.7 0 01.169 6.892c-.035 1.852-.23 3.75-.486 5.585.659.044 1.324.107 1.995.195 2.021.265 3.838.74 5.509 1.353.286-2.367.369-4.75.411-6.993.111-5.94-.471-10.939-.471-10.939l-.343-2.962-2.967-.306s-2.802-.292-6.699-.36v-.002zm-71.36.018c-3.913.079-6.728.38-6.728.38l-2.966.314-.334 2.964s-.567 4.977-.441 10.892c.049 2.312.147 4.772.462 7.21a25.614 25.614 0 015.215-1.297c.77-.108 1.531-.188 2.287-.25-.28-1.904-.494-3.89-.535-5.822-.056-2.631.04-5.052.15-6.85.89-.048 1.922-.092 3.07-.115a79.275 79.275 0 013.823.012c1.755.05 3.551.244 5.298.494.043-.623.101-1.249.185-1.882.27-2.056.756-3.902 1.384-5.597-2.254-.277-4.518-.38-6.655-.44a88.353 88.353 0 00-4.215-.015v.002zm81.293 70.69a25.73 25.73 0 01-5.473 1.363c-.679.092-1.354.165-2.022.22.328 2.056.572 4.243.617 6.36a84.022 84.022 0 01-.149 6.815c-1.815.08-4.255.134-6.905.033-1.817-.07-3.677-.292-5.48-.573a25.516 25.516 0 01-1.63 7.476c2.31.313 4.634.44 6.826.524 5.961.228 10.987-.255 10.987-.255l3.001-.287.338-2.995s.566-4.978.441-10.894c-.053-2.495-.171-5.162-.551-7.788zm-91.233.442c-.326 2.425-.44 4.872-.506 7.174-.17 5.963.36 10.984.36 10.984l.316 2.998 2.999.309s4.982.519 10.897.336c2.33-.071 4.81-.195 7.263-.541a25.64 25.64 0 01-1.532-5.927c-.07-.52-.12-1.034-.17-1.547-1.893.296-3.866.528-5.79.587-2.615.081-5.02.01-6.816-.083a85.207 85.207 0 01-.1-6.905c.057-1.955.287-3.963.584-5.888a31.425 31.425 0 01-2.16-.204 25.592 25.592 0 01-5.345-1.293z"/>
    <path fill="#007DA6" class="leafs" id="leafs" d="M64.189 0l-2.315 1.881s-3.89 3.157-7.942 7.468c-4.053 4.31-8.598 9.506-9.41 15.689-.802 6.113 1.139 12.734 3.89 18.957 1.993-1.663 4.173-3.103 6.499-4.198-2.115-5.33-3.456-10.484-3.021-13.792.325-2.48 3.787-7.664 7.456-11.566a84.173 84.173 0 014.903-4.784 84.233 84.233 0 014.993 4.754c3.73 3.873 7.262 9.035 7.612 11.521.673 4.79-.148 9.483-1.967 14.215 2.25 1.151 4.356 2.623 6.272 4.309 2.607-6.14 4.025-12.643 3.053-19.558-.871-6.2-5.497-11.363-9.618-15.642-4.122-4.28-8.068-7.402-8.068-7.402L64.189 0zm36.22 44.35c-5.078.137-10.37 1.836-15.405 4.06 1.66 1.992 3.099 4.171 4.194 6.495 5.323-2.11 10.471-3.447 13.775-3.014 2.481.326 7.665 3.787 11.567 7.456a83.658 83.658 0 014.761 4.878 85.266 85.266 0 01-4.812 4.952c-3.931 3.712-9.153 7.227-11.678 7.57-4.691.638-9.289-.153-13.922-1.905-1.148 2.256-2.622 4.365-4.306 6.285 6.041 2.534 12.436 3.906 19.229 2.983 6.212-.844 11.442-5.434 15.779-9.53 4.337-4.096 7.511-8.022 7.511-8.022L129 64.215l-1.902-2.339s-3.157-3.89-7.468-7.943c-4.311-4.053-9.507-8.598-15.69-9.41a22.462 22.462 0 00-3.531-.173zm-71.623.134c-1.282.02-2.579.12-3.89.304-6.2.872-11.363 5.498-15.642 9.62-4.28 4.12-7.402 8.067-7.402 8.067L0 64.812l1.88 2.315s3.158 3.89 7.468 7.942c4.31 4.053 9.506 8.598 15.689 9.41 6.11.802 12.729-1.138 18.95-3.886-1.663-1.994-3.101-4.174-4.196-6.501-5.327 2.113-10.48 3.453-13.786 3.019-2.481-.326-7.665-3.787-11.566-7.455a84.12 84.12 0 01-4.784-4.904 84.224 84.224 0 014.754-4.993c3.873-3.73 9.035-7.262 11.521-7.612 4.792-.674 9.485.149 14.219 1.969 1.15-2.248 2.617-4.351 4.298-6.265-4.973-2.116-10.183-3.456-15.661-3.367zm19.088 40.1c-2.534 6.04-3.907 12.436-2.983 19.23.844 6.212 5.434 11.441 9.53 15.778 4.095 4.337 8.022 7.511 8.022 7.511l2.343 1.898 2.34-1.902s3.889-3.157 7.942-7.468c4.053-4.311 8.598-9.506 9.409-15.69.801-6.105-1.134-12.717-3.88-18.934-1.993 1.663-4.174 3.101-6.5 4.196 2.11 5.322 3.446 10.468 3.013 13.771-.326 2.481-3.788 7.665-7.457 11.567a83.968 83.968 0 01-4.877 4.761 85.32 85.32 0 01-4.953-4.812c-3.711-3.931-7.226-9.152-7.57-11.677-.638-4.693.154-9.292 1.907-13.928-2.256-1.147-4.365-2.619-6.286-4.302z" />
    <path fill="#83EEDE" class="circle" id="circle" d="M64.66 45.006c-5.162-.051-9.886 2.567-13.518 6.131-3.631 3.564-6.338 8.237-6.387 13.397-.049 5.156 2.566 9.874 6.126 13.502 3.56 3.627 8.228 6.332 13.382 6.383 5.155.053 9.877-2.557 13.509-6.112 3.632-3.555 6.343-8.22 6.397-13.377.055-5.16-2.558-9.887-6.117-13.523-3.56-3.636-8.231-6.35-13.393-6.4zm-.075 7.43c2.381.025 5.666 1.625 8.157 4.17 2.49 2.544 4.022 5.863 3.997 8.246-.025 2.378-1.624 5.658-4.165 8.144-2.54 2.487-5.855 4.017-8.236 3.993-2.38-.025-5.663-1.62-8.153-4.157-2.49-2.538-4.022-5.849-4-8.228.023-2.382 1.621-5.67 4.162-8.163 2.54-2.494 5.857-4.028 8.238-4.005z"/>
  </g>
</svg>
