<svg width="405" height="220" viewBox="0 0 405 220" fill="none" xmlns="http://www.w3.org/2000/svg">
<g filter="url(#filter0_f_4898_86165)">
<rect x="2.50006" y="22" width="144" height="188" rx="8" fill="#F9F9FB"/>
<circle cx="16.5001" cy="36" r="4.5" stroke="#4089E8" stroke-width="3"/>
<path d="M30.5001 36H118.5" stroke="#BEC7D8" stroke-width="2" stroke-linecap="round"/>
<path fill-rule="evenodd" clip-rule="evenodd" d="M131.118 36C131.118 35.237 131.737 34.6184 132.5 34.6184C133.263 34.6184 133.882 35.237 133.882 36C133.882 36.763 133.263 37.3816 132.5 37.3816C131.737 37.3816 131.118 36.763 131.118 36Z" fill="#BEC7D8"/>
<path fill-rule="evenodd" clip-rule="evenodd" d="M131.118 32.1316C131.118 31.3686 131.737 30.75 132.5 30.75C133.263 30.75 133.882 31.3686 133.882 32.1316C133.882 32.8946 133.263 33.5132 132.5 33.5132C131.737 33.5132 131.118 32.8946 131.118 32.1316Z" fill="#BEC7D8"/>
<path fill-rule="evenodd" clip-rule="evenodd" d="M131.118 39.8684C131.118 39.1054 131.737 38.4868 132.5 38.4868C133.263 38.4868 133.882 39.1054 133.882 39.8684C133.882 40.6314 133.263 41.25 132.5 41.25C131.737 41.25 131.118 40.6314 131.118 39.8684Z" fill="#BEC7D8"/>
<rect x="10.5001" y="50" width="128" height="32" rx="4" fill="#EFF0F5"/>
<path fill-rule="evenodd" clip-rule="evenodd" d="M25.4024 59.7643C25.5326 59.8944 25.5326 60.1055 25.4024 60.2357L21.7358 63.9023C21.6056 64.0325 21.3945 64.0325 21.2644 63.9023L19.5977 62.2357C19.4675 62.1055 19.4675 61.8944 19.5977 61.7643C19.7279 61.6341 19.9389 61.6341 20.0691 61.7643L21.5001 63.1952L24.931 59.7643C25.0612 59.6341 25.2723 59.6341 25.4024 59.7643Z" fill="#007CA5"/>
<path d="M30.5001 62H116.5" stroke="#BEC7D8" stroke-width="2" stroke-linecap="round"/>
<path d="M30.5001 70H54.5001" stroke="#BEC7D8" stroke-width="2" stroke-linecap="round"/>
<rect x="10.5001" y="90" width="128" height="32" rx="4" fill="#EFF0F5"/>
<path fill-rule="evenodd" clip-rule="evenodd" d="M25.4024 99.7643C25.5326 99.8944 25.5326 100.105 25.4024 100.236L21.7358 103.902C21.6056 104.033 21.3945 104.033 21.2644 103.902L19.5977 102.236C19.4675 102.105 19.4675 101.894 19.5977 101.764C19.7279 101.634 19.9389 101.634 20.0691 101.764L21.5001 103.195L24.931 99.7643C25.0612 99.6341 25.2723 99.6341 25.4024 99.7643Z" fill="#007CA5"/>
<path d="M30.5001 102H90.5001" stroke="#BEC7D8" stroke-width="2" stroke-linecap="round"/>
<path d="M30.5001 110H54.5001" stroke="#BEC7D8" stroke-width="2" stroke-linecap="round"/>
<rect x="10.5001" y="130" width="128" height="32" rx="4" fill="#EFF0F5"/>
<path fill-rule="evenodd" clip-rule="evenodd" d="M25.4024 139.764C25.5326 139.894 25.5326 140.105 25.4024 140.236L21.7358 143.902C21.6056 144.033 21.3945 144.033 21.2644 143.902L19.5977 142.236C19.4675 142.105 19.4675 141.894 19.5977 141.764C19.7279 141.634 19.9389 141.634 20.0691 141.764L21.5001 143.195L24.931 139.764C25.0612 139.634 25.2723 139.634 25.4024 139.764Z" fill="#007CA5"/>
<path d="M30.5001 142H115.5" stroke="#BEC7D8" stroke-width="2" stroke-linecap="round"/>
<path d="M30.5001 150H54.5001" stroke="#BEC7D8" stroke-width="2" stroke-linecap="round"/>
<rect x="10.5001" y="170" width="128" height="32" rx="4" fill="#EFF0F5"/>
<path fill-rule="evenodd" clip-rule="evenodd" d="M25.4024 179.764C25.5326 179.894 25.5326 180.105 25.4024 180.236L21.7358 183.902C21.6056 184.033 21.3945 184.033 21.2644 183.902L19.5977 182.236C19.4675 182.105 19.4675 181.894 19.5977 181.764C19.7279 181.634 19.9389 181.634 20.0691 181.764L21.5001 183.195L24.931 179.764C25.0612 179.634 25.2723 179.634 25.4024 179.764Z" fill="#007CA5"/>
<path d="M30.5001 182H112.5" stroke="#BEC7D8" stroke-width="2" stroke-linecap="round"/>
<path d="M30.5001 190H54.5001" stroke="#BEC7D8" stroke-width="2" stroke-linecap="round"/>
<rect x="3.50006" y="23" width="142" height="186" rx="7" stroke="#EFF0F5" stroke-width="2"/>
</g>
<g filter="url(#filter1_f_4898_86165)">
<rect x="258.5" y="22" width="144" height="188" rx="8" fill="#F9F9FB"/>
<circle cx="272.5" cy="36" r="4.5" stroke="#759339" stroke-width="3"/>
<path d="M286.5 36H374.5" stroke="#BEC7D8" stroke-width="2" stroke-linecap="round"/>
<path fill-rule="evenodd" clip-rule="evenodd" d="M387.118 36C387.118 35.237 387.737 34.6184 388.5 34.6184C389.263 34.6184 389.882 35.237 389.882 36C389.882 36.763 389.263 37.3816 388.5 37.3816C387.737 37.3816 387.118 36.763 387.118 36Z" fill="#BEC7D8"/>
<path fill-rule="evenodd" clip-rule="evenodd" d="M387.118 32.1316C387.118 31.3686 387.737 30.75 388.5 30.75C389.263 30.75 389.882 31.3686 389.882 32.1316C389.882 32.8946 389.263 33.5132 388.5 33.5132C387.737 33.5132 387.118 32.8946 387.118 32.1316Z" fill="#BEC7D8"/>
<path fill-rule="evenodd" clip-rule="evenodd" d="M387.118 39.8684C387.118 39.1054 387.737 38.4868 388.5 38.4868C389.263 38.4868 389.882 39.1054 389.882 39.8684C389.882 40.6314 389.263 41.25 388.5 41.25C387.737 41.25 387.118 40.6314 387.118 39.8684Z" fill="#BEC7D8"/>
<rect x="266.5" y="50" width="128" height="32" rx="4" fill="#EFF0F5"/>
<path fill-rule="evenodd" clip-rule="evenodd" d="M281.402 59.7643C281.533 59.8944 281.533 60.1055 281.402 60.2357L277.736 63.9023C277.606 64.0325 277.395 64.0325 277.264 63.9023L275.598 62.2357C275.468 62.1055 275.468 61.8944 275.598 61.7643C275.728 61.6341 275.939 61.6341 276.069 61.7643L277.5 63.1952L280.931 59.7643C281.061 59.6341 281.272 59.6341 281.402 59.7643Z" fill="#007CA5"/>
<path d="M286.5 62H372.5" stroke="#BEC7D8" stroke-width="2" stroke-linecap="round"/>
<path d="M286.5 70H310.5" stroke="#BEC7D8" stroke-width="2" stroke-linecap="round"/>
<rect x="266.5" y="90" width="128" height="32" rx="4" fill="#EFF0F5"/>
<path fill-rule="evenodd" clip-rule="evenodd" d="M281.402 99.7643C281.533 99.8944 281.533 100.105 281.402 100.236L277.736 103.902C277.606 104.033 277.395 104.033 277.264 103.902L275.598 102.236C275.468 102.105 275.468 101.894 275.598 101.764C275.728 101.634 275.939 101.634 276.069 101.764L277.5 103.195L280.931 99.7643C281.061 99.6341 281.272 99.6341 281.402 99.7643Z" fill="#007CA5"/>
<path d="M286.5 102H386.5" stroke="#BEC7D8" stroke-width="2" stroke-linecap="round"/>
<path d="M286.5 110H310.5" stroke="#BEC7D8" stroke-width="2" stroke-linecap="round"/>
<rect x="266.5" y="130" width="128" height="32" rx="4" fill="#EFF0F5"/>
<path fill-rule="evenodd" clip-rule="evenodd" d="M281.402 139.764C281.533 139.894 281.533 140.105 281.402 140.236L277.736 143.902C277.606 144.033 277.395 144.033 277.264 143.902L275.598 142.236C275.468 142.105 275.468 141.894 275.598 141.764C275.728 141.634 275.939 141.634 276.069 141.764L277.5 143.195L280.931 139.764C281.061 139.634 281.272 139.634 281.402 139.764Z" fill="#007CA5"/>
<path d="M286.5 142H371.5" stroke="#BEC7D8" stroke-width="2" stroke-linecap="round"/>
<path d="M286.5 150H310.5" stroke="#BEC7D8" stroke-width="2" stroke-linecap="round"/>
<rect x="266.5" y="170" width="128" height="32" rx="4" fill="#EFF0F5"/>
<path fill-rule="evenodd" clip-rule="evenodd" d="M281.402 179.764C281.533 179.894 281.533 180.105 281.402 180.236L277.736 183.902C277.606 184.033 277.395 184.033 277.264 183.902L275.598 182.236C275.468 182.105 275.468 181.894 275.598 181.764C275.728 181.634 275.939 181.634 276.069 181.764L277.5 183.195L280.931 179.764C281.061 179.634 281.272 179.634 281.402 179.764Z" fill="#007CA5"/>
<path d="M286.5 182H368.5" stroke="#BEC7D8" stroke-width="2" stroke-linecap="round"/>
<path d="M286.5 190H310.5" stroke="#BEC7D8" stroke-width="2" stroke-linecap="round"/>
<rect x="259.5" y="23" width="142" height="186" rx="7" stroke="#EFF0F5" stroke-width="2"/>
</g>
<rect x="131" y="1" width="142" height="218" rx="7" fill="#F9F9FB"/>
<circle cx="144" cy="14" r="4.5" stroke="#D34CE9" stroke-width="3"/>
<path d="M158 14H246" stroke="#BEC7D8" stroke-width="2" stroke-linecap="round"/>
<path fill-rule="evenodd" clip-rule="evenodd" d="M258.618 14C258.618 13.237 259.237 12.6184 260 12.6184C260.763 12.6184 261.382 13.237 261.382 14C261.382 14.763 260.763 15.3816 260 15.3816C259.237 15.3816 258.618 14.763 258.618 14Z" fill="#BEC7D8"/>
<path fill-rule="evenodd" clip-rule="evenodd" d="M258.618 10.1316C258.618 9.36855 259.237 8.75 260 8.75C260.763 8.75 261.382 9.36855 261.382 10.1316C261.382 10.8946 260.763 11.5132 260 11.5132C259.237 11.5132 258.618 10.8946 258.618 10.1316Z" fill="#BEC7D8"/>
<path fill-rule="evenodd" clip-rule="evenodd" d="M258.618 17.8684C258.618 17.1054 259.237 16.4868 260 16.4868C260.763 16.4868 261.382 17.1054 261.382 17.8684C261.382 18.6314 260.763 19.25 260 19.25C259.237 19.25 258.618 18.6314 258.618 17.8684Z" fill="#BEC7D8"/>
<rect x="138" y="28" width="128" height="24" rx="4" fill="#EFF0F5"/>
<path fill-rule="evenodd" clip-rule="evenodd" d="M152.902 37.7643C153.033 37.8944 153.033 38.1055 152.902 38.2357L149.236 41.9023C149.106 42.0325 148.895 42.0325 148.764 41.9023L147.098 40.2357C146.968 40.1055 146.968 39.8944 147.098 39.7643C147.228 39.6341 147.439 39.6341 147.569 39.7643L149 41.1952L152.431 37.7643C152.561 37.6341 152.772 37.6341 152.902 37.7643Z" fill="#007CA5"/>
<path d="M158 40H218" stroke="#BEC7D8" stroke-width="2" stroke-linecap="round"/>
<rect x="138" y="60" width="128" height="32" rx="4" fill="#EFF0F5"/>
<path fill-rule="evenodd" clip-rule="evenodd" d="M152.902 69.7643C153.033 69.8944 153.033 70.1055 152.902 70.2357L149.236 73.9023C149.106 74.0325 148.895 74.0325 148.764 73.9023L147.098 72.2357C146.968 72.1055 146.968 71.8944 147.098 71.7643C147.228 71.6341 147.439 71.6341 147.569 71.7643L149 73.1952L152.431 69.7643C152.561 69.6341 152.772 69.6341 152.902 69.7643Z" fill="#007CA5"/>
<path d="M158 72H258" stroke="#BEC7D8" stroke-width="2" stroke-linecap="round"/>
<path d="M158 80H189" stroke="#BEC7D8" stroke-width="2" stroke-linecap="round"/>
<rect x="138" y="100" width="128" height="32" rx="4" fill="#EFF0F5"/>
<path fill-rule="evenodd" clip-rule="evenodd" d="M152.902 109.764C153.033 109.894 153.033 110.105 152.902 110.236L149.236 113.902C149.106 114.033 148.895 114.033 148.764 113.902L147.098 112.236C146.968 112.105 146.968 111.894 147.098 111.764C147.228 111.634 147.439 111.634 147.569 111.764L149 113.195L152.431 109.764C152.561 109.634 152.772 109.634 152.902 109.764Z" fill="#007CA5"/>
<path d="M158 112H258" stroke="#BEC7D8" stroke-width="2" stroke-linecap="round"/>
<path d="M158 120H224" stroke="#BEC7D8" stroke-width="2" stroke-linecap="round"/>
<rect x="138" y="140" width="128" height="32" rx="4" fill="#D3FBF4"/>
<rect x="138" y="180" width="128" height="32" rx="4" fill="#EFF0F5"/>
<path fill-rule="evenodd" clip-rule="evenodd" d="M152.902 189.764C153.033 189.894 153.033 190.105 152.902 190.236L149.236 193.902C149.106 194.033 148.895 194.033 148.764 193.902L147.098 192.236C146.968 192.105 146.968 191.894 147.098 191.764C147.228 191.634 147.439 191.634 147.569 191.764L149 193.195L152.431 189.764C152.561 189.634 152.772 189.634 152.902 189.764Z" fill="#007CA5"/>
<path d="M158 192H258" stroke="#BEC7D8" stroke-width="2" stroke-linecap="round"/>
<path d="M158 200H222" stroke="#BEC7D8" stroke-width="2" stroke-linecap="round"/>
<g filter="url(#filter2_d_4898_86165)">
<rect x="125.5" y="136" width="128" height="32" rx="4" fill="#EFF0F5"/>
<path fill-rule="evenodd" clip-rule="evenodd" d="M140.402 145.764C140.533 145.894 140.533 146.105 140.402 146.236L136.736 149.902C136.606 150.033 136.395 150.033 136.264 149.902L134.598 148.236C134.468 148.105 134.468 147.894 134.598 147.764C134.728 147.634 134.939 147.634 135.069 147.764L136.5 149.195L139.931 145.764C140.061 145.634 140.272 145.634 140.402 145.764Z" fill="#007CA5"/>
<path d="M145.5 148H245.5" stroke="#BEC7D8" stroke-width="2" stroke-linecap="round"/>
<path d="M145.5 156H225.5" stroke="#BEC7D8" stroke-width="2" stroke-linecap="round"/>
</g>
<rect x="131" y="1" width="142" height="218" rx="7" stroke="#EFF0F5" stroke-width="2"/>
<defs>
<filter id="filter0_f_4898_86165" x="0.500061" y="20" width="148" height="192" filterUnits="userSpaceOnUse" color-interpolation-filters="sRGB">
<feFlood flood-opacity="0" result="BackgroundImageFix"/>
<feBlend mode="normal" in="SourceGraphic" in2="BackgroundImageFix" result="shape"/>
<feGaussianBlur stdDeviation="1" result="effect1_foregroundBlur_4898_86165"/>
</filter>
<filter id="filter1_f_4898_86165" x="256.5" y="20" width="148" height="192" filterUnits="userSpaceOnUse" color-interpolation-filters="sRGB">
<feFlood flood-opacity="0" result="BackgroundImageFix"/>
<feBlend mode="normal" in="SourceGraphic" in2="BackgroundImageFix" result="shape"/>
<feGaussianBlur stdDeviation="1" result="effect1_foregroundBlur_4898_86165"/>
</filter>
<filter id="filter2_d_4898_86165" x="118.5" y="135" width="135" height="38" filterUnits="userSpaceOnUse" color-interpolation-filters="sRGB">
<feFlood flood-opacity="0" result="BackgroundImageFix"/>
<feColorMatrix in="SourceAlpha" type="matrix" values="0 0 0 0 0 0 0 0 0 0 0 0 0 0 0 0 0 0 127 0" result="hardAlpha"/>
<feMorphology radius="2" operator="erode" in="SourceAlpha" result="effect1_dropShadow_4898_86165"/>
<feOffset dx="-4" dy="2"/>
<feGaussianBlur stdDeviation="2.5"/>
<feColorMatrix type="matrix" values="0 0 0 0 0.180392 0 0 0 0 0.203922 0 0 0 0 0.25098 0 0 0 0.1 0"/>
<feBlend mode="normal" in2="BackgroundImageFix" result="effect1_dropShadow_4898_86165"/>
<feBlend mode="normal" in="SourceGraphic" in2="effect1_dropShadow_4898_86165" result="shape"/>
</filter>
</defs>
</svg>
