<svg xmlns="http://www.w3.org/2000/svg" width="56" height="56" fill="none"><path fill="#262C39" d="M43.45 7.82a37.3 37.3 0 0 0-1.83 0 30 30 0 0 0-3.06.23 11.1 11.1 0 0 1 .69 3.25c.8-.13 1.65-.22 2.47-.25a34.32 34.32 0 0 1 1.65 0c.5 0 .94.02 1.33.04.05.78.1 1.84.07 3-.02.8-.1 1.62-.21 2.41l.86.09c.88.12 1.67.32 2.4.59.12-1.03.16-2.06.17-3.04.05-2.58-.2-4.75-.2-4.75l-.15-1.28-1.29-.14s-1.21-.12-2.9-.15zm-30.98 0c-1.7.04-2.92.17-2.92.17l-1.3.14-.14 1.28s-.24 2.16-.19 4.73c.02 1 .07 2.07.2 3.13a11.12 11.12 0 0 1 2.27-.56 17.2 17.2 0 0 1 .99-.11 20.54 20.54 0 0 1-.23-2.53 36.45 36.45 0 0 1 .06-2.97 38.8 38.8 0 0 1 3-.05c.76.02 1.54.11 2.3.22.01-.27.04-.54.07-.82.12-.9.33-1.7.6-2.43-.97-.12-1.96-.16-2.88-.19a38.35 38.35 0 0 0-1.83 0zm35.29 30.7a11.14 11.14 0 0 1-3.26.68 20.5 20.5 0 0 1 .27 2.76 36.4 36.4 0 0 1-.06 2.96c-.8.03-1.85.06-3 .01a20.84 20.84 0 0 1-2.38-.25 11.08 11.08 0 0 1-.7 3.25 39.73 39.73 0 0 0 7.73.12l1.3-.13.15-1.3s.24-2.16.19-4.73a27.84 27.84 0 0 0-.24-3.38zm-39.6.18a30.42 30.42 0 0 0-.23 3.12 39.86 39.86 0 0 0 .16 4.77l.14 1.3 1.3.13s2.16.23 4.73.15c1.01-.03 2.09-.09 3.15-.24a11.14 11.14 0 0 1-.66-2.57l-.08-.67c-.82.13-1.68.23-2.51.25-1.14.04-2.18 0-2.96-.03a37 37 0 0 1-.04-3c.02-.85.12-1.72.25-2.56-.31-.02-.62-.04-.94-.08a11.11 11.11 0 0 1-2.32-.57z"/><path fill="#007DA6" d="m27.86 0-1 .82s-1.69 1.37-3.45 3.24c-1.76 1.87-3.73 4.13-4.08 6.8-.35 2.66.5 5.54 1.69 8.24a13.23 13.23 0 0 1 2.82-1.82c-.92-2.32-1.5-4.56-1.31-6 .14-1.07 1.64-3.32 3.23-5.01a36.5 36.5 0 0 1 2.13-2.08 37.2 37.2 0 0 1 2.17 2.06c1.62 1.69 3.15 3.93 3.3 5 .3 2.09-.06 4.12-.85 6.18.98.5 1.89 1.14 2.72 1.87a15.8 15.8 0 0 0 1.33-8.5c-.38-2.68-2.39-4.93-4.18-6.78A39.7 39.7 0 0 0 28.88.8L27.86 0zM43.6 19.25c-2.2.06-4.5.8-6.69 1.77a13.25 13.25 0 0 1 1.82 2.82c2.31-.92 4.55-1.5 5.98-1.31 1.08.14 3.33 1.64 5.02 3.23a36.37 36.37 0 0 1 2.07 2.12 36.91 36.91 0 0 1-2.09 2.15c-1.7 1.61-3.97 3.14-5.07 3.29-2.04.27-4.03-.07-6.04-.83a13.32 13.32 0 0 1-1.87 2.73 15.8 15.8 0 0 0 8.35 1.3c2.7-.37 4.96-2.37 6.85-4.14 1.88-1.78 3.26-3.49 3.26-3.49l.82-1.01-.83-1.02s-1.37-1.69-3.24-3.45c-1.87-1.76-4.12-3.73-6.8-4.08a9.75 9.75 0 0 0-1.54-.08zm-31.1.06a13.62 13.62 0 0 0-1.68.13c-2.7.38-4.93 2.39-6.8 4.18-1.85 1.79-3.2 3.5-3.2 3.5L0 28.14l.82 1s1.37 1.69 3.24 3.45c1.87 1.76 4.13 3.73 6.8 4.08 2.66.35 5.53-.5 8.23-1.68a13.21 13.21 0 0 1-1.82-2.83c-2.3.92-4.55 1.5-5.98 1.31-1.08-.14-3.33-1.64-5.02-3.23a36.53 36.53 0 0 1-2.08-2.13 36.9 36.9 0 0 1 2.06-2.17c1.69-1.62 3.93-3.15 5-3.3 2.09-.3 4.12.06 6.18.85a13.37 13.37 0 0 1 1.86-2.72 16.6 16.6 0 0 0-6.8-1.46zm8.3 17.4a15.8 15.8 0 0 0-1.3 8.36c.36 2.7 2.36 4.96 4.13 6.85a39.87 39.87 0 0 0 3.49 3.26l1.01.82 1.02-.83s1.69-1.37 3.45-3.24c1.76-1.87 3.73-4.12 4.08-6.8.35-2.66-.49-5.53-1.68-8.23a13.24 13.24 0 0 1-2.82 1.82c.91 2.31 1.5 4.55 1.3 5.98-.14 1.08-1.64 3.33-3.23 5.02a36.47 36.47 0 0 1-2.12 2.07 36.94 36.94 0 0 1-2.15-2.09c-1.61-1.7-3.14-3.97-3.29-5.07-.27-2.04.07-4.03.83-6.04a13.34 13.34 0 0 1-2.73-1.87z"/><path fill="#83EEDE" d="M28.07 19.54c-2.24-.03-4.3 1.11-5.87 2.66-1.57 1.55-2.75 3.57-2.77 5.81-.02 2.24 1.11 4.3 2.66 5.87 1.54 1.57 3.57 2.74 5.8 2.77 2.24.02 4.3-1.11 5.87-2.66 1.58-1.54 2.76-3.56 2.78-5.8.02-2.24-1.11-4.3-2.66-5.87-1.54-1.58-3.57-2.76-5.81-2.78zm-.03 3.22c1.03.01 2.46.7 3.54 1.81 1.08 1.1 1.74 2.55 1.73 3.58 0 1.04-.7 2.46-1.8 3.54s-2.55 1.74-3.58 1.73c-1.03 0-2.46-.7-3.54-1.8s-1.75-2.54-1.74-3.58c.01-1.03.7-2.46 1.81-3.54 1.1-1.08 2.54-1.75 3.58-1.74z"/></svg>